G75*
G70*
%OFA0B0*%
%FSLAX24Y24*%
%IPPOS*%
%LPD*%
%AMOC8*
5,1,8,0,0,1.08239X$1,22.5*
%
%ADD10C,0.0000*%
D10*
X000655Y001159D02*
X000655Y040159D01*
X059155Y040159D01*
X059155Y001159D01*
X000655Y001159D01*
X002025Y003159D02*
X002027Y003209D01*
X002033Y003259D01*
X002043Y003308D01*
X002057Y003356D01*
X002074Y003403D01*
X002095Y003448D01*
X002120Y003492D01*
X002148Y003533D01*
X002180Y003572D01*
X002214Y003609D01*
X002251Y003643D01*
X002291Y003673D01*
X002333Y003700D01*
X002377Y003724D01*
X002423Y003745D01*
X002470Y003761D01*
X002518Y003774D01*
X002568Y003783D01*
X002617Y003788D01*
X002668Y003789D01*
X002718Y003786D01*
X002767Y003779D01*
X002816Y003768D01*
X002864Y003753D01*
X002910Y003735D01*
X002955Y003713D01*
X002998Y003687D01*
X003039Y003658D01*
X003078Y003626D01*
X003114Y003591D01*
X003146Y003553D01*
X003176Y003513D01*
X003203Y003470D01*
X003226Y003426D01*
X003245Y003380D01*
X003261Y003332D01*
X003273Y003283D01*
X003281Y003234D01*
X003285Y003184D01*
X003285Y003134D01*
X003281Y003084D01*
X003273Y003035D01*
X003261Y002986D01*
X003245Y002938D01*
X003226Y002892D01*
X003203Y002848D01*
X003176Y002805D01*
X003146Y002765D01*
X003114Y002727D01*
X003078Y002692D01*
X003039Y002660D01*
X002998Y002631D01*
X002955Y002605D01*
X002910Y002583D01*
X002864Y002565D01*
X002816Y002550D01*
X002767Y002539D01*
X002718Y002532D01*
X002668Y002529D01*
X002617Y002530D01*
X002568Y002535D01*
X002518Y002544D01*
X002470Y002557D01*
X002423Y002573D01*
X002377Y002594D01*
X002333Y002618D01*
X002291Y002645D01*
X002251Y002675D01*
X002214Y002709D01*
X002180Y002746D01*
X002148Y002785D01*
X002120Y002826D01*
X002095Y002870D01*
X002074Y002915D01*
X002057Y002962D01*
X002043Y003010D01*
X002033Y003059D01*
X002027Y003109D01*
X002025Y003159D01*
X001926Y007257D02*
X001928Y007305D01*
X001934Y007353D01*
X001944Y007400D01*
X001957Y007446D01*
X001975Y007491D01*
X001995Y007535D01*
X002020Y007577D01*
X002048Y007616D01*
X002078Y007653D01*
X002112Y007687D01*
X002149Y007719D01*
X002187Y007748D01*
X002228Y007773D01*
X002271Y007795D01*
X002316Y007813D01*
X002362Y007827D01*
X002409Y007838D01*
X002457Y007845D01*
X002505Y007848D01*
X002553Y007847D01*
X002601Y007842D01*
X002649Y007833D01*
X002695Y007821D01*
X002740Y007804D01*
X002784Y007784D01*
X002826Y007761D01*
X002866Y007734D01*
X002904Y007704D01*
X002939Y007671D01*
X002971Y007635D01*
X003001Y007597D01*
X003027Y007556D01*
X003049Y007513D01*
X003069Y007469D01*
X003084Y007424D01*
X003096Y007377D01*
X003104Y007329D01*
X003108Y007281D01*
X003108Y007233D01*
X003104Y007185D01*
X003096Y007137D01*
X003084Y007090D01*
X003069Y007045D01*
X003049Y007001D01*
X003027Y006958D01*
X003001Y006917D01*
X002971Y006879D01*
X002939Y006843D01*
X002904Y006810D01*
X002866Y006780D01*
X002826Y006753D01*
X002784Y006730D01*
X002740Y006710D01*
X002695Y006693D01*
X002649Y006681D01*
X002601Y006672D01*
X002553Y006667D01*
X002505Y006666D01*
X002457Y006669D01*
X002409Y006676D01*
X002362Y006687D01*
X002316Y006701D01*
X002271Y006719D01*
X002228Y006741D01*
X002187Y006766D01*
X002149Y006795D01*
X002112Y006827D01*
X002078Y006861D01*
X002048Y006898D01*
X002020Y006937D01*
X001995Y006979D01*
X001975Y007023D01*
X001957Y007068D01*
X001944Y007114D01*
X001934Y007161D01*
X001928Y007209D01*
X001926Y007257D01*
X017202Y007257D02*
X017204Y007305D01*
X017210Y007353D01*
X017220Y007400D01*
X017233Y007446D01*
X017251Y007491D01*
X017271Y007535D01*
X017296Y007577D01*
X017324Y007616D01*
X017354Y007653D01*
X017388Y007687D01*
X017425Y007719D01*
X017463Y007748D01*
X017504Y007773D01*
X017547Y007795D01*
X017592Y007813D01*
X017638Y007827D01*
X017685Y007838D01*
X017733Y007845D01*
X017781Y007848D01*
X017829Y007847D01*
X017877Y007842D01*
X017925Y007833D01*
X017971Y007821D01*
X018016Y007804D01*
X018060Y007784D01*
X018102Y007761D01*
X018142Y007734D01*
X018180Y007704D01*
X018215Y007671D01*
X018247Y007635D01*
X018277Y007597D01*
X018303Y007556D01*
X018325Y007513D01*
X018345Y007469D01*
X018360Y007424D01*
X018372Y007377D01*
X018380Y007329D01*
X018384Y007281D01*
X018384Y007233D01*
X018380Y007185D01*
X018372Y007137D01*
X018360Y007090D01*
X018345Y007045D01*
X018325Y007001D01*
X018303Y006958D01*
X018277Y006917D01*
X018247Y006879D01*
X018215Y006843D01*
X018180Y006810D01*
X018142Y006780D01*
X018102Y006753D01*
X018060Y006730D01*
X018016Y006710D01*
X017971Y006693D01*
X017925Y006681D01*
X017877Y006672D01*
X017829Y006667D01*
X017781Y006666D01*
X017733Y006669D01*
X017685Y006676D01*
X017638Y006687D01*
X017592Y006701D01*
X017547Y006719D01*
X017504Y006741D01*
X017463Y006766D01*
X017425Y006795D01*
X017388Y006827D01*
X017354Y006861D01*
X017324Y006898D01*
X017296Y006937D01*
X017271Y006979D01*
X017251Y007023D01*
X017233Y007068D01*
X017220Y007114D01*
X017210Y007161D01*
X017204Y007209D01*
X017202Y007257D01*
X034233Y008561D02*
X034235Y008609D01*
X034241Y008657D01*
X034251Y008704D01*
X034264Y008750D01*
X034282Y008795D01*
X034302Y008839D01*
X034327Y008881D01*
X034355Y008920D01*
X034385Y008957D01*
X034419Y008991D01*
X034456Y009023D01*
X034494Y009052D01*
X034535Y009077D01*
X034578Y009099D01*
X034623Y009117D01*
X034669Y009131D01*
X034716Y009142D01*
X034764Y009149D01*
X034812Y009152D01*
X034860Y009151D01*
X034908Y009146D01*
X034956Y009137D01*
X035002Y009125D01*
X035047Y009108D01*
X035091Y009088D01*
X035133Y009065D01*
X035173Y009038D01*
X035211Y009008D01*
X035246Y008975D01*
X035278Y008939D01*
X035308Y008901D01*
X035334Y008860D01*
X035356Y008817D01*
X035376Y008773D01*
X035391Y008728D01*
X035403Y008681D01*
X035411Y008633D01*
X035415Y008585D01*
X035415Y008537D01*
X035411Y008489D01*
X035403Y008441D01*
X035391Y008394D01*
X035376Y008349D01*
X035356Y008305D01*
X035334Y008262D01*
X035308Y008221D01*
X035278Y008183D01*
X035246Y008147D01*
X035211Y008114D01*
X035173Y008084D01*
X035133Y008057D01*
X035091Y008034D01*
X035047Y008014D01*
X035002Y007997D01*
X034956Y007985D01*
X034908Y007976D01*
X034860Y007971D01*
X034812Y007970D01*
X034764Y007973D01*
X034716Y007980D01*
X034669Y007991D01*
X034623Y008005D01*
X034578Y008023D01*
X034535Y008045D01*
X034494Y008070D01*
X034456Y008099D01*
X034419Y008131D01*
X034385Y008165D01*
X034355Y008202D01*
X034327Y008241D01*
X034302Y008283D01*
X034282Y008327D01*
X034264Y008372D01*
X034251Y008418D01*
X034241Y008465D01*
X034235Y008513D01*
X034233Y008561D01*
X042895Y008561D02*
X042897Y008609D01*
X042903Y008657D01*
X042913Y008704D01*
X042926Y008750D01*
X042944Y008795D01*
X042964Y008839D01*
X042989Y008881D01*
X043017Y008920D01*
X043047Y008957D01*
X043081Y008991D01*
X043118Y009023D01*
X043156Y009052D01*
X043197Y009077D01*
X043240Y009099D01*
X043285Y009117D01*
X043331Y009131D01*
X043378Y009142D01*
X043426Y009149D01*
X043474Y009152D01*
X043522Y009151D01*
X043570Y009146D01*
X043618Y009137D01*
X043664Y009125D01*
X043709Y009108D01*
X043753Y009088D01*
X043795Y009065D01*
X043835Y009038D01*
X043873Y009008D01*
X043908Y008975D01*
X043940Y008939D01*
X043970Y008901D01*
X043996Y008860D01*
X044018Y008817D01*
X044038Y008773D01*
X044053Y008728D01*
X044065Y008681D01*
X044073Y008633D01*
X044077Y008585D01*
X044077Y008537D01*
X044073Y008489D01*
X044065Y008441D01*
X044053Y008394D01*
X044038Y008349D01*
X044018Y008305D01*
X043996Y008262D01*
X043970Y008221D01*
X043940Y008183D01*
X043908Y008147D01*
X043873Y008114D01*
X043835Y008084D01*
X043795Y008057D01*
X043753Y008034D01*
X043709Y008014D01*
X043664Y007997D01*
X043618Y007985D01*
X043570Y007976D01*
X043522Y007971D01*
X043474Y007970D01*
X043426Y007973D01*
X043378Y007980D01*
X043331Y007991D01*
X043285Y008005D01*
X043240Y008023D01*
X043197Y008045D01*
X043156Y008070D01*
X043118Y008099D01*
X043081Y008131D01*
X043047Y008165D01*
X043017Y008202D01*
X042989Y008241D01*
X042964Y008283D01*
X042944Y008327D01*
X042926Y008372D01*
X042913Y008418D01*
X042903Y008465D01*
X042897Y008513D01*
X042895Y008561D01*
X045233Y008561D02*
X045235Y008609D01*
X045241Y008657D01*
X045251Y008704D01*
X045264Y008750D01*
X045282Y008795D01*
X045302Y008839D01*
X045327Y008881D01*
X045355Y008920D01*
X045385Y008957D01*
X045419Y008991D01*
X045456Y009023D01*
X045494Y009052D01*
X045535Y009077D01*
X045578Y009099D01*
X045623Y009117D01*
X045669Y009131D01*
X045716Y009142D01*
X045764Y009149D01*
X045812Y009152D01*
X045860Y009151D01*
X045908Y009146D01*
X045956Y009137D01*
X046002Y009125D01*
X046047Y009108D01*
X046091Y009088D01*
X046133Y009065D01*
X046173Y009038D01*
X046211Y009008D01*
X046246Y008975D01*
X046278Y008939D01*
X046308Y008901D01*
X046334Y008860D01*
X046356Y008817D01*
X046376Y008773D01*
X046391Y008728D01*
X046403Y008681D01*
X046411Y008633D01*
X046415Y008585D01*
X046415Y008537D01*
X046411Y008489D01*
X046403Y008441D01*
X046391Y008394D01*
X046376Y008349D01*
X046356Y008305D01*
X046334Y008262D01*
X046308Y008221D01*
X046278Y008183D01*
X046246Y008147D01*
X046211Y008114D01*
X046173Y008084D01*
X046133Y008057D01*
X046091Y008034D01*
X046047Y008014D01*
X046002Y007997D01*
X045956Y007985D01*
X045908Y007976D01*
X045860Y007971D01*
X045812Y007970D01*
X045764Y007973D01*
X045716Y007980D01*
X045669Y007991D01*
X045623Y008005D01*
X045578Y008023D01*
X045535Y008045D01*
X045494Y008070D01*
X045456Y008099D01*
X045419Y008131D01*
X045385Y008165D01*
X045355Y008202D01*
X045327Y008241D01*
X045302Y008283D01*
X045282Y008327D01*
X045264Y008372D01*
X045251Y008418D01*
X045241Y008465D01*
X045235Y008513D01*
X045233Y008561D01*
X053895Y008561D02*
X053897Y008609D01*
X053903Y008657D01*
X053913Y008704D01*
X053926Y008750D01*
X053944Y008795D01*
X053964Y008839D01*
X053989Y008881D01*
X054017Y008920D01*
X054047Y008957D01*
X054081Y008991D01*
X054118Y009023D01*
X054156Y009052D01*
X054197Y009077D01*
X054240Y009099D01*
X054285Y009117D01*
X054331Y009131D01*
X054378Y009142D01*
X054426Y009149D01*
X054474Y009152D01*
X054522Y009151D01*
X054570Y009146D01*
X054618Y009137D01*
X054664Y009125D01*
X054709Y009108D01*
X054753Y009088D01*
X054795Y009065D01*
X054835Y009038D01*
X054873Y009008D01*
X054908Y008975D01*
X054940Y008939D01*
X054970Y008901D01*
X054996Y008860D01*
X055018Y008817D01*
X055038Y008773D01*
X055053Y008728D01*
X055065Y008681D01*
X055073Y008633D01*
X055077Y008585D01*
X055077Y008537D01*
X055073Y008489D01*
X055065Y008441D01*
X055053Y008394D01*
X055038Y008349D01*
X055018Y008305D01*
X054996Y008262D01*
X054970Y008221D01*
X054940Y008183D01*
X054908Y008147D01*
X054873Y008114D01*
X054835Y008084D01*
X054795Y008057D01*
X054753Y008034D01*
X054709Y008014D01*
X054664Y007997D01*
X054618Y007985D01*
X054570Y007976D01*
X054522Y007971D01*
X054474Y007970D01*
X054426Y007973D01*
X054378Y007980D01*
X054331Y007991D01*
X054285Y008005D01*
X054240Y008023D01*
X054197Y008045D01*
X054156Y008070D01*
X054118Y008099D01*
X054081Y008131D01*
X054047Y008165D01*
X054017Y008202D01*
X053989Y008241D01*
X053964Y008283D01*
X053944Y008327D01*
X053926Y008372D01*
X053913Y008418D01*
X053903Y008465D01*
X053897Y008513D01*
X053895Y008561D01*
X056525Y003159D02*
X056527Y003209D01*
X056533Y003259D01*
X056543Y003308D01*
X056557Y003356D01*
X056574Y003403D01*
X056595Y003448D01*
X056620Y003492D01*
X056648Y003533D01*
X056680Y003572D01*
X056714Y003609D01*
X056751Y003643D01*
X056791Y003673D01*
X056833Y003700D01*
X056877Y003724D01*
X056923Y003745D01*
X056970Y003761D01*
X057018Y003774D01*
X057068Y003783D01*
X057117Y003788D01*
X057168Y003789D01*
X057218Y003786D01*
X057267Y003779D01*
X057316Y003768D01*
X057364Y003753D01*
X057410Y003735D01*
X057455Y003713D01*
X057498Y003687D01*
X057539Y003658D01*
X057578Y003626D01*
X057614Y003591D01*
X057646Y003553D01*
X057676Y003513D01*
X057703Y003470D01*
X057726Y003426D01*
X057745Y003380D01*
X057761Y003332D01*
X057773Y003283D01*
X057781Y003234D01*
X057785Y003184D01*
X057785Y003134D01*
X057781Y003084D01*
X057773Y003035D01*
X057761Y002986D01*
X057745Y002938D01*
X057726Y002892D01*
X057703Y002848D01*
X057676Y002805D01*
X057646Y002765D01*
X057614Y002727D01*
X057578Y002692D01*
X057539Y002660D01*
X057498Y002631D01*
X057455Y002605D01*
X057410Y002583D01*
X057364Y002565D01*
X057316Y002550D01*
X057267Y002539D01*
X057218Y002532D01*
X057168Y002529D01*
X057117Y002530D01*
X057068Y002535D01*
X057018Y002544D01*
X056970Y002557D01*
X056923Y002573D01*
X056877Y002594D01*
X056833Y002618D01*
X056791Y002645D01*
X056751Y002675D01*
X056714Y002709D01*
X056680Y002746D01*
X056648Y002785D01*
X056620Y002826D01*
X056595Y002870D01*
X056574Y002915D01*
X056557Y002962D01*
X056543Y003010D01*
X056533Y003059D01*
X056527Y003109D01*
X056525Y003159D01*
X017202Y024061D02*
X017204Y024109D01*
X017210Y024157D01*
X017220Y024204D01*
X017233Y024250D01*
X017251Y024295D01*
X017271Y024339D01*
X017296Y024381D01*
X017324Y024420D01*
X017354Y024457D01*
X017388Y024491D01*
X017425Y024523D01*
X017463Y024552D01*
X017504Y024577D01*
X017547Y024599D01*
X017592Y024617D01*
X017638Y024631D01*
X017685Y024642D01*
X017733Y024649D01*
X017781Y024652D01*
X017829Y024651D01*
X017877Y024646D01*
X017925Y024637D01*
X017971Y024625D01*
X018016Y024608D01*
X018060Y024588D01*
X018102Y024565D01*
X018142Y024538D01*
X018180Y024508D01*
X018215Y024475D01*
X018247Y024439D01*
X018277Y024401D01*
X018303Y024360D01*
X018325Y024317D01*
X018345Y024273D01*
X018360Y024228D01*
X018372Y024181D01*
X018380Y024133D01*
X018384Y024085D01*
X018384Y024037D01*
X018380Y023989D01*
X018372Y023941D01*
X018360Y023894D01*
X018345Y023849D01*
X018325Y023805D01*
X018303Y023762D01*
X018277Y023721D01*
X018247Y023683D01*
X018215Y023647D01*
X018180Y023614D01*
X018142Y023584D01*
X018102Y023557D01*
X018060Y023534D01*
X018016Y023514D01*
X017971Y023497D01*
X017925Y023485D01*
X017877Y023476D01*
X017829Y023471D01*
X017781Y023470D01*
X017733Y023473D01*
X017685Y023480D01*
X017638Y023491D01*
X017592Y023505D01*
X017547Y023523D01*
X017504Y023545D01*
X017463Y023570D01*
X017425Y023599D01*
X017388Y023631D01*
X017354Y023665D01*
X017324Y023702D01*
X017296Y023741D01*
X017271Y023783D01*
X017251Y023827D01*
X017233Y023872D01*
X017220Y023918D01*
X017210Y023965D01*
X017204Y024013D01*
X017202Y024061D01*
X001926Y024061D02*
X001928Y024109D01*
X001934Y024157D01*
X001944Y024204D01*
X001957Y024250D01*
X001975Y024295D01*
X001995Y024339D01*
X002020Y024381D01*
X002048Y024420D01*
X002078Y024457D01*
X002112Y024491D01*
X002149Y024523D01*
X002187Y024552D01*
X002228Y024577D01*
X002271Y024599D01*
X002316Y024617D01*
X002362Y024631D01*
X002409Y024642D01*
X002457Y024649D01*
X002505Y024652D01*
X002553Y024651D01*
X002601Y024646D01*
X002649Y024637D01*
X002695Y024625D01*
X002740Y024608D01*
X002784Y024588D01*
X002826Y024565D01*
X002866Y024538D01*
X002904Y024508D01*
X002939Y024475D01*
X002971Y024439D01*
X003001Y024401D01*
X003027Y024360D01*
X003049Y024317D01*
X003069Y024273D01*
X003084Y024228D01*
X003096Y024181D01*
X003104Y024133D01*
X003108Y024085D01*
X003108Y024037D01*
X003104Y023989D01*
X003096Y023941D01*
X003084Y023894D01*
X003069Y023849D01*
X003049Y023805D01*
X003027Y023762D01*
X003001Y023721D01*
X002971Y023683D01*
X002939Y023647D01*
X002904Y023614D01*
X002866Y023584D01*
X002826Y023557D01*
X002784Y023534D01*
X002740Y023514D01*
X002695Y023497D01*
X002649Y023485D01*
X002601Y023476D01*
X002553Y023471D01*
X002505Y023470D01*
X002457Y023473D01*
X002409Y023480D01*
X002362Y023491D01*
X002316Y023505D01*
X002271Y023523D01*
X002228Y023545D01*
X002187Y023570D01*
X002149Y023599D01*
X002112Y023631D01*
X002078Y023665D01*
X002048Y023702D01*
X002020Y023741D01*
X001995Y023783D01*
X001975Y023827D01*
X001957Y023872D01*
X001944Y023918D01*
X001934Y023965D01*
X001928Y024013D01*
X001926Y024061D01*
X002025Y038159D02*
X002027Y038209D01*
X002033Y038259D01*
X002043Y038308D01*
X002057Y038356D01*
X002074Y038403D01*
X002095Y038448D01*
X002120Y038492D01*
X002148Y038533D01*
X002180Y038572D01*
X002214Y038609D01*
X002251Y038643D01*
X002291Y038673D01*
X002333Y038700D01*
X002377Y038724D01*
X002423Y038745D01*
X002470Y038761D01*
X002518Y038774D01*
X002568Y038783D01*
X002617Y038788D01*
X002668Y038789D01*
X002718Y038786D01*
X002767Y038779D01*
X002816Y038768D01*
X002864Y038753D01*
X002910Y038735D01*
X002955Y038713D01*
X002998Y038687D01*
X003039Y038658D01*
X003078Y038626D01*
X003114Y038591D01*
X003146Y038553D01*
X003176Y038513D01*
X003203Y038470D01*
X003226Y038426D01*
X003245Y038380D01*
X003261Y038332D01*
X003273Y038283D01*
X003281Y038234D01*
X003285Y038184D01*
X003285Y038134D01*
X003281Y038084D01*
X003273Y038035D01*
X003261Y037986D01*
X003245Y037938D01*
X003226Y037892D01*
X003203Y037848D01*
X003176Y037805D01*
X003146Y037765D01*
X003114Y037727D01*
X003078Y037692D01*
X003039Y037660D01*
X002998Y037631D01*
X002955Y037605D01*
X002910Y037583D01*
X002864Y037565D01*
X002816Y037550D01*
X002767Y037539D01*
X002718Y037532D01*
X002668Y037529D01*
X002617Y037530D01*
X002568Y037535D01*
X002518Y037544D01*
X002470Y037557D01*
X002423Y037573D01*
X002377Y037594D01*
X002333Y037618D01*
X002291Y037645D01*
X002251Y037675D01*
X002214Y037709D01*
X002180Y037746D01*
X002148Y037785D01*
X002120Y037826D01*
X002095Y037870D01*
X002074Y037915D01*
X002057Y037962D01*
X002043Y038010D01*
X002033Y038059D01*
X002027Y038109D01*
X002025Y038159D01*
X056525Y038159D02*
X056527Y038209D01*
X056533Y038259D01*
X056543Y038308D01*
X056557Y038356D01*
X056574Y038403D01*
X056595Y038448D01*
X056620Y038492D01*
X056648Y038533D01*
X056680Y038572D01*
X056714Y038609D01*
X056751Y038643D01*
X056791Y038673D01*
X056833Y038700D01*
X056877Y038724D01*
X056923Y038745D01*
X056970Y038761D01*
X057018Y038774D01*
X057068Y038783D01*
X057117Y038788D01*
X057168Y038789D01*
X057218Y038786D01*
X057267Y038779D01*
X057316Y038768D01*
X057364Y038753D01*
X057410Y038735D01*
X057455Y038713D01*
X057498Y038687D01*
X057539Y038658D01*
X057578Y038626D01*
X057614Y038591D01*
X057646Y038553D01*
X057676Y038513D01*
X057703Y038470D01*
X057726Y038426D01*
X057745Y038380D01*
X057761Y038332D01*
X057773Y038283D01*
X057781Y038234D01*
X057785Y038184D01*
X057785Y038134D01*
X057781Y038084D01*
X057773Y038035D01*
X057761Y037986D01*
X057745Y037938D01*
X057726Y037892D01*
X057703Y037848D01*
X057676Y037805D01*
X057646Y037765D01*
X057614Y037727D01*
X057578Y037692D01*
X057539Y037660D01*
X057498Y037631D01*
X057455Y037605D01*
X057410Y037583D01*
X057364Y037565D01*
X057316Y037550D01*
X057267Y037539D01*
X057218Y037532D01*
X057168Y037529D01*
X057117Y037530D01*
X057068Y037535D01*
X057018Y037544D01*
X056970Y037557D01*
X056923Y037573D01*
X056877Y037594D01*
X056833Y037618D01*
X056791Y037645D01*
X056751Y037675D01*
X056714Y037709D01*
X056680Y037746D01*
X056648Y037785D01*
X056620Y037826D01*
X056595Y037870D01*
X056574Y037915D01*
X056557Y037962D01*
X056543Y038010D01*
X056533Y038059D01*
X056527Y038109D01*
X056525Y038159D01*
M02*
