G75*
G70*
%OFA0B0*%
%FSLAX24Y24*%
%IPPOS*%
%LPD*%
%AMOC8*
5,1,8,0,0,1.08239X$1,22.5*
%
%ADD10C,0.0000*%
%ADD11R,0.0631X0.0474*%
%ADD12R,0.0513X0.0375*%
%ADD13C,0.0674*%
%ADD14R,0.0474X0.0631*%
%ADD15R,0.0631X0.0789*%
%ADD16R,0.0513X0.0474*%
%ADD17R,0.0340X0.0880*%
%ADD18R,0.0474X0.0513*%
%ADD19R,0.0950X0.0320*%
%ADD20R,0.0907X0.0907*%
%ADD21C,0.1261*%
%ADD22R,0.0659X0.0580*%
%ADD23R,0.0671X0.0592*%
%ADD24R,0.0375X0.0513*%
%ADD25R,0.0320X0.0950*%
%ADD26R,0.0580X0.0659*%
%ADD27R,0.0552X0.0552*%
%ADD28C,0.1661*%
%ADD29R,0.0297X0.0552*%
%ADD30C,0.1480*%
%ADD31R,0.0986X0.0986*%
%ADD32R,0.0592X0.0671*%
%ADD33R,0.0710X0.1379*%
%ADD34R,0.0710X0.0789*%
%ADD35R,0.0789X0.0710*%
%ADD36R,0.0560X0.0960*%
%ADD37R,0.1497X0.0946*%
%ADD38R,0.0241X0.0482*%
%ADD39R,0.0789X0.0631*%
%ADD40R,0.0552X0.0316*%
%ADD41R,0.0880X0.0340*%
%ADD42C,0.0600*%
%ADD43R,0.0780X0.0780*%
%ADD44C,0.0780*%
%ADD45R,0.1104X0.0336*%
%ADD46R,0.0198X0.0710*%
%ADD47R,0.0710X0.0198*%
%ADD48C,0.0740*%
%ADD49R,0.2180X0.0840*%
%ADD50C,0.1340*%
%ADD51R,0.1261X0.0631*%
%ADD52C,0.1080*%
%ADD53OC8,0.1080*%
%ADD54R,0.0946X0.0631*%
%ADD55C,0.0476*%
%ADD56C,0.0516*%
%ADD57C,0.0671*%
D10*
X000655Y001159D02*
X000655Y040159D01*
X059155Y040159D01*
X059155Y001159D01*
X000655Y001159D01*
X002025Y003159D02*
X002027Y003209D01*
X002033Y003259D01*
X002043Y003308D01*
X002057Y003356D01*
X002074Y003403D01*
X002095Y003448D01*
X002120Y003492D01*
X002148Y003533D01*
X002180Y003572D01*
X002214Y003609D01*
X002251Y003643D01*
X002291Y003673D01*
X002333Y003700D01*
X002377Y003724D01*
X002423Y003745D01*
X002470Y003761D01*
X002518Y003774D01*
X002568Y003783D01*
X002617Y003788D01*
X002668Y003789D01*
X002718Y003786D01*
X002767Y003779D01*
X002816Y003768D01*
X002864Y003753D01*
X002910Y003735D01*
X002955Y003713D01*
X002998Y003687D01*
X003039Y003658D01*
X003078Y003626D01*
X003114Y003591D01*
X003146Y003553D01*
X003176Y003513D01*
X003203Y003470D01*
X003226Y003426D01*
X003245Y003380D01*
X003261Y003332D01*
X003273Y003283D01*
X003281Y003234D01*
X003285Y003184D01*
X003285Y003134D01*
X003281Y003084D01*
X003273Y003035D01*
X003261Y002986D01*
X003245Y002938D01*
X003226Y002892D01*
X003203Y002848D01*
X003176Y002805D01*
X003146Y002765D01*
X003114Y002727D01*
X003078Y002692D01*
X003039Y002660D01*
X002998Y002631D01*
X002955Y002605D01*
X002910Y002583D01*
X002864Y002565D01*
X002816Y002550D01*
X002767Y002539D01*
X002718Y002532D01*
X002668Y002529D01*
X002617Y002530D01*
X002568Y002535D01*
X002518Y002544D01*
X002470Y002557D01*
X002423Y002573D01*
X002377Y002594D01*
X002333Y002618D01*
X002291Y002645D01*
X002251Y002675D01*
X002214Y002709D01*
X002180Y002746D01*
X002148Y002785D01*
X002120Y002826D01*
X002095Y002870D01*
X002074Y002915D01*
X002057Y002962D01*
X002043Y003010D01*
X002033Y003059D01*
X002027Y003109D01*
X002025Y003159D01*
X001926Y007257D02*
X001928Y007305D01*
X001934Y007353D01*
X001944Y007400D01*
X001957Y007446D01*
X001975Y007491D01*
X001995Y007535D01*
X002020Y007577D01*
X002048Y007616D01*
X002078Y007653D01*
X002112Y007687D01*
X002149Y007719D01*
X002187Y007748D01*
X002228Y007773D01*
X002271Y007795D01*
X002316Y007813D01*
X002362Y007827D01*
X002409Y007838D01*
X002457Y007845D01*
X002505Y007848D01*
X002553Y007847D01*
X002601Y007842D01*
X002649Y007833D01*
X002695Y007821D01*
X002740Y007804D01*
X002784Y007784D01*
X002826Y007761D01*
X002866Y007734D01*
X002904Y007704D01*
X002939Y007671D01*
X002971Y007635D01*
X003001Y007597D01*
X003027Y007556D01*
X003049Y007513D01*
X003069Y007469D01*
X003084Y007424D01*
X003096Y007377D01*
X003104Y007329D01*
X003108Y007281D01*
X003108Y007233D01*
X003104Y007185D01*
X003096Y007137D01*
X003084Y007090D01*
X003069Y007045D01*
X003049Y007001D01*
X003027Y006958D01*
X003001Y006917D01*
X002971Y006879D01*
X002939Y006843D01*
X002904Y006810D01*
X002866Y006780D01*
X002826Y006753D01*
X002784Y006730D01*
X002740Y006710D01*
X002695Y006693D01*
X002649Y006681D01*
X002601Y006672D01*
X002553Y006667D01*
X002505Y006666D01*
X002457Y006669D01*
X002409Y006676D01*
X002362Y006687D01*
X002316Y006701D01*
X002271Y006719D01*
X002228Y006741D01*
X002187Y006766D01*
X002149Y006795D01*
X002112Y006827D01*
X002078Y006861D01*
X002048Y006898D01*
X002020Y006937D01*
X001995Y006979D01*
X001975Y007023D01*
X001957Y007068D01*
X001944Y007114D01*
X001934Y007161D01*
X001928Y007209D01*
X001926Y007257D01*
X017202Y007257D02*
X017204Y007305D01*
X017210Y007353D01*
X017220Y007400D01*
X017233Y007446D01*
X017251Y007491D01*
X017271Y007535D01*
X017296Y007577D01*
X017324Y007616D01*
X017354Y007653D01*
X017388Y007687D01*
X017425Y007719D01*
X017463Y007748D01*
X017504Y007773D01*
X017547Y007795D01*
X017592Y007813D01*
X017638Y007827D01*
X017685Y007838D01*
X017733Y007845D01*
X017781Y007848D01*
X017829Y007847D01*
X017877Y007842D01*
X017925Y007833D01*
X017971Y007821D01*
X018016Y007804D01*
X018060Y007784D01*
X018102Y007761D01*
X018142Y007734D01*
X018180Y007704D01*
X018215Y007671D01*
X018247Y007635D01*
X018277Y007597D01*
X018303Y007556D01*
X018325Y007513D01*
X018345Y007469D01*
X018360Y007424D01*
X018372Y007377D01*
X018380Y007329D01*
X018384Y007281D01*
X018384Y007233D01*
X018380Y007185D01*
X018372Y007137D01*
X018360Y007090D01*
X018345Y007045D01*
X018325Y007001D01*
X018303Y006958D01*
X018277Y006917D01*
X018247Y006879D01*
X018215Y006843D01*
X018180Y006810D01*
X018142Y006780D01*
X018102Y006753D01*
X018060Y006730D01*
X018016Y006710D01*
X017971Y006693D01*
X017925Y006681D01*
X017877Y006672D01*
X017829Y006667D01*
X017781Y006666D01*
X017733Y006669D01*
X017685Y006676D01*
X017638Y006687D01*
X017592Y006701D01*
X017547Y006719D01*
X017504Y006741D01*
X017463Y006766D01*
X017425Y006795D01*
X017388Y006827D01*
X017354Y006861D01*
X017324Y006898D01*
X017296Y006937D01*
X017271Y006979D01*
X017251Y007023D01*
X017233Y007068D01*
X017220Y007114D01*
X017210Y007161D01*
X017204Y007209D01*
X017202Y007257D01*
X034233Y008561D02*
X034235Y008609D01*
X034241Y008657D01*
X034251Y008704D01*
X034264Y008750D01*
X034282Y008795D01*
X034302Y008839D01*
X034327Y008881D01*
X034355Y008920D01*
X034385Y008957D01*
X034419Y008991D01*
X034456Y009023D01*
X034494Y009052D01*
X034535Y009077D01*
X034578Y009099D01*
X034623Y009117D01*
X034669Y009131D01*
X034716Y009142D01*
X034764Y009149D01*
X034812Y009152D01*
X034860Y009151D01*
X034908Y009146D01*
X034956Y009137D01*
X035002Y009125D01*
X035047Y009108D01*
X035091Y009088D01*
X035133Y009065D01*
X035173Y009038D01*
X035211Y009008D01*
X035246Y008975D01*
X035278Y008939D01*
X035308Y008901D01*
X035334Y008860D01*
X035356Y008817D01*
X035376Y008773D01*
X035391Y008728D01*
X035403Y008681D01*
X035411Y008633D01*
X035415Y008585D01*
X035415Y008537D01*
X035411Y008489D01*
X035403Y008441D01*
X035391Y008394D01*
X035376Y008349D01*
X035356Y008305D01*
X035334Y008262D01*
X035308Y008221D01*
X035278Y008183D01*
X035246Y008147D01*
X035211Y008114D01*
X035173Y008084D01*
X035133Y008057D01*
X035091Y008034D01*
X035047Y008014D01*
X035002Y007997D01*
X034956Y007985D01*
X034908Y007976D01*
X034860Y007971D01*
X034812Y007970D01*
X034764Y007973D01*
X034716Y007980D01*
X034669Y007991D01*
X034623Y008005D01*
X034578Y008023D01*
X034535Y008045D01*
X034494Y008070D01*
X034456Y008099D01*
X034419Y008131D01*
X034385Y008165D01*
X034355Y008202D01*
X034327Y008241D01*
X034302Y008283D01*
X034282Y008327D01*
X034264Y008372D01*
X034251Y008418D01*
X034241Y008465D01*
X034235Y008513D01*
X034233Y008561D01*
X042895Y008561D02*
X042897Y008609D01*
X042903Y008657D01*
X042913Y008704D01*
X042926Y008750D01*
X042944Y008795D01*
X042964Y008839D01*
X042989Y008881D01*
X043017Y008920D01*
X043047Y008957D01*
X043081Y008991D01*
X043118Y009023D01*
X043156Y009052D01*
X043197Y009077D01*
X043240Y009099D01*
X043285Y009117D01*
X043331Y009131D01*
X043378Y009142D01*
X043426Y009149D01*
X043474Y009152D01*
X043522Y009151D01*
X043570Y009146D01*
X043618Y009137D01*
X043664Y009125D01*
X043709Y009108D01*
X043753Y009088D01*
X043795Y009065D01*
X043835Y009038D01*
X043873Y009008D01*
X043908Y008975D01*
X043940Y008939D01*
X043970Y008901D01*
X043996Y008860D01*
X044018Y008817D01*
X044038Y008773D01*
X044053Y008728D01*
X044065Y008681D01*
X044073Y008633D01*
X044077Y008585D01*
X044077Y008537D01*
X044073Y008489D01*
X044065Y008441D01*
X044053Y008394D01*
X044038Y008349D01*
X044018Y008305D01*
X043996Y008262D01*
X043970Y008221D01*
X043940Y008183D01*
X043908Y008147D01*
X043873Y008114D01*
X043835Y008084D01*
X043795Y008057D01*
X043753Y008034D01*
X043709Y008014D01*
X043664Y007997D01*
X043618Y007985D01*
X043570Y007976D01*
X043522Y007971D01*
X043474Y007970D01*
X043426Y007973D01*
X043378Y007980D01*
X043331Y007991D01*
X043285Y008005D01*
X043240Y008023D01*
X043197Y008045D01*
X043156Y008070D01*
X043118Y008099D01*
X043081Y008131D01*
X043047Y008165D01*
X043017Y008202D01*
X042989Y008241D01*
X042964Y008283D01*
X042944Y008327D01*
X042926Y008372D01*
X042913Y008418D01*
X042903Y008465D01*
X042897Y008513D01*
X042895Y008561D01*
X045233Y008561D02*
X045235Y008609D01*
X045241Y008657D01*
X045251Y008704D01*
X045264Y008750D01*
X045282Y008795D01*
X045302Y008839D01*
X045327Y008881D01*
X045355Y008920D01*
X045385Y008957D01*
X045419Y008991D01*
X045456Y009023D01*
X045494Y009052D01*
X045535Y009077D01*
X045578Y009099D01*
X045623Y009117D01*
X045669Y009131D01*
X045716Y009142D01*
X045764Y009149D01*
X045812Y009152D01*
X045860Y009151D01*
X045908Y009146D01*
X045956Y009137D01*
X046002Y009125D01*
X046047Y009108D01*
X046091Y009088D01*
X046133Y009065D01*
X046173Y009038D01*
X046211Y009008D01*
X046246Y008975D01*
X046278Y008939D01*
X046308Y008901D01*
X046334Y008860D01*
X046356Y008817D01*
X046376Y008773D01*
X046391Y008728D01*
X046403Y008681D01*
X046411Y008633D01*
X046415Y008585D01*
X046415Y008537D01*
X046411Y008489D01*
X046403Y008441D01*
X046391Y008394D01*
X046376Y008349D01*
X046356Y008305D01*
X046334Y008262D01*
X046308Y008221D01*
X046278Y008183D01*
X046246Y008147D01*
X046211Y008114D01*
X046173Y008084D01*
X046133Y008057D01*
X046091Y008034D01*
X046047Y008014D01*
X046002Y007997D01*
X045956Y007985D01*
X045908Y007976D01*
X045860Y007971D01*
X045812Y007970D01*
X045764Y007973D01*
X045716Y007980D01*
X045669Y007991D01*
X045623Y008005D01*
X045578Y008023D01*
X045535Y008045D01*
X045494Y008070D01*
X045456Y008099D01*
X045419Y008131D01*
X045385Y008165D01*
X045355Y008202D01*
X045327Y008241D01*
X045302Y008283D01*
X045282Y008327D01*
X045264Y008372D01*
X045251Y008418D01*
X045241Y008465D01*
X045235Y008513D01*
X045233Y008561D01*
X053895Y008561D02*
X053897Y008609D01*
X053903Y008657D01*
X053913Y008704D01*
X053926Y008750D01*
X053944Y008795D01*
X053964Y008839D01*
X053989Y008881D01*
X054017Y008920D01*
X054047Y008957D01*
X054081Y008991D01*
X054118Y009023D01*
X054156Y009052D01*
X054197Y009077D01*
X054240Y009099D01*
X054285Y009117D01*
X054331Y009131D01*
X054378Y009142D01*
X054426Y009149D01*
X054474Y009152D01*
X054522Y009151D01*
X054570Y009146D01*
X054618Y009137D01*
X054664Y009125D01*
X054709Y009108D01*
X054753Y009088D01*
X054795Y009065D01*
X054835Y009038D01*
X054873Y009008D01*
X054908Y008975D01*
X054940Y008939D01*
X054970Y008901D01*
X054996Y008860D01*
X055018Y008817D01*
X055038Y008773D01*
X055053Y008728D01*
X055065Y008681D01*
X055073Y008633D01*
X055077Y008585D01*
X055077Y008537D01*
X055073Y008489D01*
X055065Y008441D01*
X055053Y008394D01*
X055038Y008349D01*
X055018Y008305D01*
X054996Y008262D01*
X054970Y008221D01*
X054940Y008183D01*
X054908Y008147D01*
X054873Y008114D01*
X054835Y008084D01*
X054795Y008057D01*
X054753Y008034D01*
X054709Y008014D01*
X054664Y007997D01*
X054618Y007985D01*
X054570Y007976D01*
X054522Y007971D01*
X054474Y007970D01*
X054426Y007973D01*
X054378Y007980D01*
X054331Y007991D01*
X054285Y008005D01*
X054240Y008023D01*
X054197Y008045D01*
X054156Y008070D01*
X054118Y008099D01*
X054081Y008131D01*
X054047Y008165D01*
X054017Y008202D01*
X053989Y008241D01*
X053964Y008283D01*
X053944Y008327D01*
X053926Y008372D01*
X053913Y008418D01*
X053903Y008465D01*
X053897Y008513D01*
X053895Y008561D01*
X056525Y003159D02*
X056527Y003209D01*
X056533Y003259D01*
X056543Y003308D01*
X056557Y003356D01*
X056574Y003403D01*
X056595Y003448D01*
X056620Y003492D01*
X056648Y003533D01*
X056680Y003572D01*
X056714Y003609D01*
X056751Y003643D01*
X056791Y003673D01*
X056833Y003700D01*
X056877Y003724D01*
X056923Y003745D01*
X056970Y003761D01*
X057018Y003774D01*
X057068Y003783D01*
X057117Y003788D01*
X057168Y003789D01*
X057218Y003786D01*
X057267Y003779D01*
X057316Y003768D01*
X057364Y003753D01*
X057410Y003735D01*
X057455Y003713D01*
X057498Y003687D01*
X057539Y003658D01*
X057578Y003626D01*
X057614Y003591D01*
X057646Y003553D01*
X057676Y003513D01*
X057703Y003470D01*
X057726Y003426D01*
X057745Y003380D01*
X057761Y003332D01*
X057773Y003283D01*
X057781Y003234D01*
X057785Y003184D01*
X057785Y003134D01*
X057781Y003084D01*
X057773Y003035D01*
X057761Y002986D01*
X057745Y002938D01*
X057726Y002892D01*
X057703Y002848D01*
X057676Y002805D01*
X057646Y002765D01*
X057614Y002727D01*
X057578Y002692D01*
X057539Y002660D01*
X057498Y002631D01*
X057455Y002605D01*
X057410Y002583D01*
X057364Y002565D01*
X057316Y002550D01*
X057267Y002539D01*
X057218Y002532D01*
X057168Y002529D01*
X057117Y002530D01*
X057068Y002535D01*
X057018Y002544D01*
X056970Y002557D01*
X056923Y002573D01*
X056877Y002594D01*
X056833Y002618D01*
X056791Y002645D01*
X056751Y002675D01*
X056714Y002709D01*
X056680Y002746D01*
X056648Y002785D01*
X056620Y002826D01*
X056595Y002870D01*
X056574Y002915D01*
X056557Y002962D01*
X056543Y003010D01*
X056533Y003059D01*
X056527Y003109D01*
X056525Y003159D01*
X017202Y024061D02*
X017204Y024109D01*
X017210Y024157D01*
X017220Y024204D01*
X017233Y024250D01*
X017251Y024295D01*
X017271Y024339D01*
X017296Y024381D01*
X017324Y024420D01*
X017354Y024457D01*
X017388Y024491D01*
X017425Y024523D01*
X017463Y024552D01*
X017504Y024577D01*
X017547Y024599D01*
X017592Y024617D01*
X017638Y024631D01*
X017685Y024642D01*
X017733Y024649D01*
X017781Y024652D01*
X017829Y024651D01*
X017877Y024646D01*
X017925Y024637D01*
X017971Y024625D01*
X018016Y024608D01*
X018060Y024588D01*
X018102Y024565D01*
X018142Y024538D01*
X018180Y024508D01*
X018215Y024475D01*
X018247Y024439D01*
X018277Y024401D01*
X018303Y024360D01*
X018325Y024317D01*
X018345Y024273D01*
X018360Y024228D01*
X018372Y024181D01*
X018380Y024133D01*
X018384Y024085D01*
X018384Y024037D01*
X018380Y023989D01*
X018372Y023941D01*
X018360Y023894D01*
X018345Y023849D01*
X018325Y023805D01*
X018303Y023762D01*
X018277Y023721D01*
X018247Y023683D01*
X018215Y023647D01*
X018180Y023614D01*
X018142Y023584D01*
X018102Y023557D01*
X018060Y023534D01*
X018016Y023514D01*
X017971Y023497D01*
X017925Y023485D01*
X017877Y023476D01*
X017829Y023471D01*
X017781Y023470D01*
X017733Y023473D01*
X017685Y023480D01*
X017638Y023491D01*
X017592Y023505D01*
X017547Y023523D01*
X017504Y023545D01*
X017463Y023570D01*
X017425Y023599D01*
X017388Y023631D01*
X017354Y023665D01*
X017324Y023702D01*
X017296Y023741D01*
X017271Y023783D01*
X017251Y023827D01*
X017233Y023872D01*
X017220Y023918D01*
X017210Y023965D01*
X017204Y024013D01*
X017202Y024061D01*
X001926Y024061D02*
X001928Y024109D01*
X001934Y024157D01*
X001944Y024204D01*
X001957Y024250D01*
X001975Y024295D01*
X001995Y024339D01*
X002020Y024381D01*
X002048Y024420D01*
X002078Y024457D01*
X002112Y024491D01*
X002149Y024523D01*
X002187Y024552D01*
X002228Y024577D01*
X002271Y024599D01*
X002316Y024617D01*
X002362Y024631D01*
X002409Y024642D01*
X002457Y024649D01*
X002505Y024652D01*
X002553Y024651D01*
X002601Y024646D01*
X002649Y024637D01*
X002695Y024625D01*
X002740Y024608D01*
X002784Y024588D01*
X002826Y024565D01*
X002866Y024538D01*
X002904Y024508D01*
X002939Y024475D01*
X002971Y024439D01*
X003001Y024401D01*
X003027Y024360D01*
X003049Y024317D01*
X003069Y024273D01*
X003084Y024228D01*
X003096Y024181D01*
X003104Y024133D01*
X003108Y024085D01*
X003108Y024037D01*
X003104Y023989D01*
X003096Y023941D01*
X003084Y023894D01*
X003069Y023849D01*
X003049Y023805D01*
X003027Y023762D01*
X003001Y023721D01*
X002971Y023683D01*
X002939Y023647D01*
X002904Y023614D01*
X002866Y023584D01*
X002826Y023557D01*
X002784Y023534D01*
X002740Y023514D01*
X002695Y023497D01*
X002649Y023485D01*
X002601Y023476D01*
X002553Y023471D01*
X002505Y023470D01*
X002457Y023473D01*
X002409Y023480D01*
X002362Y023491D01*
X002316Y023505D01*
X002271Y023523D01*
X002228Y023545D01*
X002187Y023570D01*
X002149Y023599D01*
X002112Y023631D01*
X002078Y023665D01*
X002048Y023702D01*
X002020Y023741D01*
X001995Y023783D01*
X001975Y023827D01*
X001957Y023872D01*
X001944Y023918D01*
X001934Y023965D01*
X001928Y024013D01*
X001926Y024061D01*
X002025Y038159D02*
X002027Y038209D01*
X002033Y038259D01*
X002043Y038308D01*
X002057Y038356D01*
X002074Y038403D01*
X002095Y038448D01*
X002120Y038492D01*
X002148Y038533D01*
X002180Y038572D01*
X002214Y038609D01*
X002251Y038643D01*
X002291Y038673D01*
X002333Y038700D01*
X002377Y038724D01*
X002423Y038745D01*
X002470Y038761D01*
X002518Y038774D01*
X002568Y038783D01*
X002617Y038788D01*
X002668Y038789D01*
X002718Y038786D01*
X002767Y038779D01*
X002816Y038768D01*
X002864Y038753D01*
X002910Y038735D01*
X002955Y038713D01*
X002998Y038687D01*
X003039Y038658D01*
X003078Y038626D01*
X003114Y038591D01*
X003146Y038553D01*
X003176Y038513D01*
X003203Y038470D01*
X003226Y038426D01*
X003245Y038380D01*
X003261Y038332D01*
X003273Y038283D01*
X003281Y038234D01*
X003285Y038184D01*
X003285Y038134D01*
X003281Y038084D01*
X003273Y038035D01*
X003261Y037986D01*
X003245Y037938D01*
X003226Y037892D01*
X003203Y037848D01*
X003176Y037805D01*
X003146Y037765D01*
X003114Y037727D01*
X003078Y037692D01*
X003039Y037660D01*
X002998Y037631D01*
X002955Y037605D01*
X002910Y037583D01*
X002864Y037565D01*
X002816Y037550D01*
X002767Y037539D01*
X002718Y037532D01*
X002668Y037529D01*
X002617Y037530D01*
X002568Y037535D01*
X002518Y037544D01*
X002470Y037557D01*
X002423Y037573D01*
X002377Y037594D01*
X002333Y037618D01*
X002291Y037645D01*
X002251Y037675D01*
X002214Y037709D01*
X002180Y037746D01*
X002148Y037785D01*
X002120Y037826D01*
X002095Y037870D01*
X002074Y037915D01*
X002057Y037962D01*
X002043Y038010D01*
X002033Y038059D01*
X002027Y038109D01*
X002025Y038159D01*
X056525Y038159D02*
X056527Y038209D01*
X056533Y038259D01*
X056543Y038308D01*
X056557Y038356D01*
X056574Y038403D01*
X056595Y038448D01*
X056620Y038492D01*
X056648Y038533D01*
X056680Y038572D01*
X056714Y038609D01*
X056751Y038643D01*
X056791Y038673D01*
X056833Y038700D01*
X056877Y038724D01*
X056923Y038745D01*
X056970Y038761D01*
X057018Y038774D01*
X057068Y038783D01*
X057117Y038788D01*
X057168Y038789D01*
X057218Y038786D01*
X057267Y038779D01*
X057316Y038768D01*
X057364Y038753D01*
X057410Y038735D01*
X057455Y038713D01*
X057498Y038687D01*
X057539Y038658D01*
X057578Y038626D01*
X057614Y038591D01*
X057646Y038553D01*
X057676Y038513D01*
X057703Y038470D01*
X057726Y038426D01*
X057745Y038380D01*
X057761Y038332D01*
X057773Y038283D01*
X057781Y038234D01*
X057785Y038184D01*
X057785Y038134D01*
X057781Y038084D01*
X057773Y038035D01*
X057761Y037986D01*
X057745Y037938D01*
X057726Y037892D01*
X057703Y037848D01*
X057676Y037805D01*
X057646Y037765D01*
X057614Y037727D01*
X057578Y037692D01*
X057539Y037660D01*
X057498Y037631D01*
X057455Y037605D01*
X057410Y037583D01*
X057364Y037565D01*
X057316Y037550D01*
X057267Y037539D01*
X057218Y037532D01*
X057168Y037529D01*
X057117Y037530D01*
X057068Y037535D01*
X057018Y037544D01*
X056970Y037557D01*
X056923Y037573D01*
X056877Y037594D01*
X056833Y037618D01*
X056791Y037645D01*
X056751Y037675D01*
X056714Y037709D01*
X056680Y037746D01*
X056648Y037785D01*
X056620Y037826D01*
X056595Y037870D01*
X056574Y037915D01*
X056557Y037962D01*
X056543Y038010D01*
X056533Y038059D01*
X056527Y038109D01*
X056525Y038159D01*
D11*
X024088Y023033D03*
X024088Y022285D03*
X023222Y022659D03*
X024088Y021033D03*
X024088Y020285D03*
X023222Y020659D03*
X024088Y019033D03*
X024088Y018285D03*
X023222Y018659D03*
X024088Y017033D03*
X024088Y016285D03*
X023222Y016659D03*
X024088Y015033D03*
X024088Y014285D03*
X023222Y014659D03*
X024088Y013033D03*
X024088Y012285D03*
X023222Y012659D03*
X024088Y011033D03*
X024088Y010285D03*
X023222Y010659D03*
X024088Y009033D03*
X024088Y008285D03*
X023222Y008659D03*
X017588Y032785D03*
X017588Y033533D03*
X016722Y033159D03*
X017588Y034785D03*
X017588Y035533D03*
X016722Y035159D03*
X017588Y036785D03*
X017588Y037533D03*
X016722Y037159D03*
X017588Y038785D03*
X017588Y039533D03*
X016722Y039159D03*
D12*
X019234Y038909D03*
X019234Y039409D03*
X020076Y039409D03*
X020076Y038909D03*
X020076Y038409D03*
X020076Y037909D03*
X019234Y037909D03*
X019234Y038409D03*
X019234Y036409D03*
X019234Y035909D03*
X019234Y035409D03*
X019234Y034909D03*
X020076Y034909D03*
X020076Y035409D03*
X020076Y035909D03*
X020076Y036409D03*
X020076Y033409D03*
X020076Y032909D03*
X020076Y032409D03*
X019234Y032409D03*
X019234Y032909D03*
X019234Y033409D03*
X019234Y031909D03*
X020076Y031909D03*
X020076Y030409D03*
X020076Y029909D03*
X019234Y029909D03*
X019234Y030409D03*
X019234Y029409D03*
X019234Y028909D03*
X020076Y028909D03*
X020076Y029409D03*
X016076Y029409D03*
X016076Y028909D03*
X015234Y028909D03*
X015234Y029409D03*
X015234Y029909D03*
X015234Y030409D03*
X016076Y030409D03*
X016076Y029909D03*
X025984Y022909D03*
X025984Y022409D03*
X025984Y021909D03*
X025984Y021409D03*
X026826Y021409D03*
X026826Y021909D03*
X026826Y022409D03*
X026826Y022909D03*
X026826Y020409D03*
X026826Y019909D03*
X026826Y019409D03*
X026826Y018909D03*
X025984Y018909D03*
X025984Y019409D03*
X025984Y019909D03*
X025984Y020409D03*
X025984Y012409D03*
X025984Y011909D03*
X026826Y011909D03*
X026826Y012409D03*
X026826Y011409D03*
X026826Y010909D03*
X025984Y010909D03*
X025984Y011409D03*
X025984Y009909D03*
X026826Y009909D03*
X026826Y009409D03*
X026826Y008909D03*
X026826Y008409D03*
X025984Y008409D03*
X025984Y008909D03*
X025984Y009409D03*
D13*
X014952Y032159D02*
X014358Y032159D01*
X014358Y033159D02*
X014952Y033159D01*
X014952Y034159D02*
X014358Y034159D01*
X014358Y035159D02*
X014952Y035159D01*
X014952Y036159D02*
X014358Y036159D01*
X014358Y037159D02*
X014952Y037159D01*
X014952Y038159D02*
X014358Y038159D01*
X014358Y039159D02*
X014952Y039159D01*
X011952Y039159D02*
X011358Y039159D01*
X011358Y038159D02*
X011952Y038159D01*
X011952Y037159D02*
X011358Y037159D01*
X011358Y036159D02*
X011952Y036159D01*
X011952Y035159D02*
X011358Y035159D01*
X011358Y034159D02*
X011952Y034159D01*
X011952Y033159D02*
X011358Y033159D01*
X011358Y032159D02*
X011952Y032159D01*
X008952Y032159D02*
X008358Y032159D01*
X008358Y033159D02*
X008952Y033159D01*
X008952Y034159D02*
X008358Y034159D01*
X008358Y035159D02*
X008952Y035159D01*
X008952Y036159D02*
X008358Y036159D01*
X008358Y037159D02*
X008952Y037159D01*
X008952Y038159D02*
X008358Y038159D01*
X008358Y039159D02*
X008952Y039159D01*
X005952Y039159D02*
X005358Y039159D01*
X005358Y038159D02*
X005952Y038159D01*
X005952Y037159D02*
X005358Y037159D01*
X005358Y036159D02*
X005952Y036159D01*
X005952Y035159D02*
X005358Y035159D01*
X005358Y034159D02*
X005952Y034159D01*
X005952Y033159D02*
X005358Y033159D01*
X005358Y032159D02*
X005952Y032159D01*
X024655Y038362D02*
X024655Y038956D01*
X025655Y038956D02*
X025655Y038362D01*
X026655Y038362D02*
X026655Y038956D01*
X027655Y038956D02*
X027655Y038362D01*
D14*
X014529Y031092D03*
X013781Y031092D03*
X013029Y031092D03*
X012281Y031092D03*
X011529Y031092D03*
X010781Y031092D03*
X010029Y031092D03*
X009281Y031092D03*
X008529Y031092D03*
X007781Y031092D03*
X007029Y031092D03*
X006281Y031092D03*
X005529Y031092D03*
X004781Y031092D03*
X004029Y031092D03*
X003281Y031092D03*
X003655Y030226D03*
X005155Y030226D03*
X006655Y030226D03*
X008155Y030226D03*
X009655Y030226D03*
X011155Y030226D03*
X012655Y030226D03*
X014155Y030226D03*
X035781Y016592D03*
X036529Y016592D03*
X036155Y015726D03*
X037781Y016592D03*
X038529Y016592D03*
X038155Y015726D03*
X039781Y016592D03*
X040529Y016592D03*
X040155Y015726D03*
X041781Y016592D03*
X042529Y016592D03*
X042155Y015726D03*
X046781Y016592D03*
X047529Y016592D03*
X047155Y015726D03*
X048781Y016592D03*
X049529Y016592D03*
X049155Y015726D03*
X050781Y016592D03*
X051529Y016592D03*
X051155Y015726D03*
X052781Y016592D03*
X053529Y016592D03*
X053155Y015726D03*
D15*
X034324Y019659D03*
X032986Y019659D03*
X020324Y026659D03*
X020324Y027659D03*
X018986Y027659D03*
X018986Y026659D03*
X016324Y026659D03*
X016324Y027659D03*
X014986Y027659D03*
X014986Y026659D03*
X021986Y037159D03*
X023324Y037159D03*
D16*
X024655Y036994D03*
X025655Y036994D03*
X025655Y036324D03*
X024655Y036324D03*
X027320Y035159D03*
X027990Y035159D03*
X030320Y035159D03*
X030990Y035159D03*
X030655Y036324D03*
X030655Y036994D03*
X032655Y036994D03*
X032655Y036324D03*
X032615Y030159D03*
X031945Y030159D03*
X031945Y029159D03*
X032615Y029159D03*
X026427Y029159D03*
X025758Y029159D03*
X025758Y030159D03*
X026427Y030159D03*
X024655Y029994D03*
X024655Y029324D03*
X024655Y028494D03*
X024655Y027824D03*
X025820Y028159D03*
X026490Y028159D03*
X033320Y022659D03*
X033990Y022659D03*
X027240Y017659D03*
X026570Y017659D03*
X030320Y011159D03*
X030990Y011159D03*
X043820Y013659D03*
X044490Y013659D03*
X044490Y017659D03*
X043820Y017659D03*
X047155Y037824D03*
X047155Y038494D03*
X049155Y038494D03*
X049155Y037824D03*
X051155Y037824D03*
X051155Y038494D03*
X013490Y027659D03*
X012820Y027659D03*
X011990Y027159D03*
X012820Y026659D03*
X013490Y026659D03*
X011990Y028159D03*
X011320Y028159D03*
X011320Y027159D03*
D17*
X007655Y026449D03*
X007155Y026449D03*
X006655Y026449D03*
X006155Y026449D03*
X005655Y026449D03*
X005155Y026449D03*
X004655Y026449D03*
X004655Y028869D03*
X005155Y028869D03*
X005655Y028869D03*
X006155Y028869D03*
X006655Y028869D03*
X007155Y028869D03*
X007655Y028869D03*
X029905Y009869D03*
X030405Y009869D03*
X030905Y009869D03*
X031405Y009869D03*
X031905Y009869D03*
X032405Y009869D03*
X032905Y009869D03*
X033405Y009869D03*
X033405Y007449D03*
X032905Y007449D03*
X032405Y007449D03*
X031905Y007449D03*
X031405Y007449D03*
X030905Y007449D03*
X030405Y007449D03*
X029905Y007449D03*
X014905Y004869D03*
X014405Y004869D03*
X013905Y004869D03*
X013405Y004869D03*
X012905Y004869D03*
X012405Y004869D03*
X011905Y004869D03*
X011405Y004869D03*
X011405Y002449D03*
X011905Y002449D03*
X012405Y002449D03*
X012905Y002449D03*
X013405Y002449D03*
X013905Y002449D03*
X014405Y002449D03*
X014905Y002449D03*
D18*
X010155Y003324D03*
X010155Y003994D03*
X019820Y008159D03*
X020490Y008159D03*
X023320Y007659D03*
X023990Y007659D03*
X023990Y009659D03*
X023320Y009659D03*
X020490Y011159D03*
X019820Y011159D03*
X019820Y012159D03*
X020490Y012159D03*
X023320Y011659D03*
X023990Y011659D03*
X023990Y013659D03*
X023320Y013659D03*
X020490Y015159D03*
X019820Y015159D03*
X019820Y016159D03*
X020490Y016159D03*
X023320Y017659D03*
X023990Y017659D03*
X023990Y019659D03*
X023320Y019659D03*
X020490Y019159D03*
X019820Y019159D03*
X019820Y020159D03*
X020490Y020159D03*
X023320Y021659D03*
X023990Y021659D03*
X023990Y023659D03*
X023320Y023659D03*
X020490Y023159D03*
X019820Y023159D03*
X025820Y026159D03*
X026490Y026159D03*
X026490Y027159D03*
X025820Y027159D03*
X023655Y027824D03*
X023655Y028494D03*
X029820Y031159D03*
X030490Y031159D03*
X025655Y032824D03*
X025655Y033494D03*
X021405Y038324D03*
X021405Y038994D03*
X008655Y027994D03*
X008655Y027324D03*
X042320Y027034D03*
X042990Y027034D03*
X042990Y028034D03*
X042320Y028034D03*
X042320Y029284D03*
X042990Y029284D03*
X042990Y030284D03*
X042320Y030284D03*
X043820Y018659D03*
X044490Y018659D03*
X044490Y014659D03*
X043820Y014659D03*
D19*
X021185Y014409D03*
X021185Y013909D03*
X021185Y013409D03*
X021185Y012909D03*
X019125Y012909D03*
X019125Y013409D03*
X019125Y013909D03*
X019125Y014409D03*
X019125Y016909D03*
X019125Y017409D03*
X019125Y017909D03*
X019125Y018409D03*
X021185Y018409D03*
X021185Y017909D03*
X021185Y017409D03*
X021185Y016909D03*
X021185Y020909D03*
X021185Y021409D03*
X021185Y021909D03*
X021185Y022409D03*
X019125Y022409D03*
X019125Y021909D03*
X019125Y021409D03*
X019125Y020909D03*
X019125Y010409D03*
X019125Y009909D03*
X019125Y009409D03*
X019125Y008909D03*
X021185Y008909D03*
X021185Y009409D03*
X021185Y009909D03*
X021185Y010409D03*
X043072Y033409D03*
X043072Y033909D03*
X043072Y034409D03*
X043072Y034909D03*
X045238Y034909D03*
X045238Y034409D03*
X045238Y033909D03*
X045238Y033409D03*
D20*
X015943Y024242D03*
X014289Y024242D03*
X012635Y024242D03*
X010982Y024242D03*
X009328Y024242D03*
X007675Y024242D03*
X006021Y024242D03*
X004368Y024242D03*
X004368Y022076D03*
X006021Y022076D03*
X007675Y022076D03*
X009328Y022076D03*
X010982Y022076D03*
X012635Y022076D03*
X014289Y022076D03*
X015943Y022076D03*
X015943Y009242D03*
X014289Y009242D03*
X012635Y009242D03*
X010982Y009242D03*
X009328Y009242D03*
X007675Y009242D03*
X006021Y009242D03*
X004368Y009242D03*
X004368Y007076D03*
X006021Y007076D03*
X007675Y007076D03*
X009328Y007076D03*
X010982Y007076D03*
X012635Y007076D03*
X014289Y007076D03*
X015943Y007076D03*
X036675Y006576D03*
X038328Y006576D03*
X039982Y006576D03*
X041635Y006576D03*
X041635Y008742D03*
X039982Y008742D03*
X038328Y008742D03*
X036675Y008742D03*
X047675Y008742D03*
X049328Y008742D03*
X050982Y008742D03*
X052635Y008742D03*
X052635Y006576D03*
X050982Y006576D03*
X049328Y006576D03*
X047675Y006576D03*
D21*
X045824Y008561D03*
X043486Y008561D03*
X034824Y008561D03*
X017793Y007257D03*
X002517Y007257D03*
X002517Y024061D03*
X017793Y024061D03*
X051403Y024710D03*
X052655Y024710D03*
X052655Y021761D03*
X051403Y021761D03*
X051403Y027659D03*
X052655Y027659D03*
X052655Y030608D03*
X051403Y030608D03*
X051403Y033557D03*
X052655Y033557D03*
X054486Y008561D03*
D22*
X015655Y010813D03*
X014155Y010813D03*
X012655Y010813D03*
X011155Y010813D03*
X009155Y010813D03*
X007655Y010813D03*
X006155Y010813D03*
X004655Y010813D03*
X004655Y012506D03*
X006155Y012506D03*
X007655Y012506D03*
X009155Y012506D03*
X011155Y012506D03*
X012655Y012506D03*
X014155Y012506D03*
X015655Y012506D03*
X015655Y018813D03*
X014155Y018813D03*
X012655Y018813D03*
X011155Y018813D03*
X009155Y018813D03*
X007655Y018813D03*
X006155Y018813D03*
X004655Y018813D03*
X004655Y020506D03*
X006155Y020506D03*
X007655Y020506D03*
X009155Y020506D03*
X011155Y020506D03*
X012655Y020506D03*
X014155Y020506D03*
X015655Y020506D03*
D23*
X035655Y014533D03*
X035655Y013785D03*
X036655Y013785D03*
X037655Y013785D03*
X037655Y014533D03*
X036655Y014533D03*
X038655Y014533D03*
X038655Y013785D03*
X039655Y013785D03*
X040655Y013785D03*
X040655Y014533D03*
X039655Y014533D03*
X041655Y014533D03*
X041655Y013785D03*
X042655Y013785D03*
X042655Y014533D03*
X046655Y014533D03*
X047655Y014533D03*
X047655Y013785D03*
X046655Y013785D03*
X048655Y013785D03*
X048655Y014533D03*
X049655Y014533D03*
X050655Y014533D03*
X050655Y013785D03*
X049655Y013785D03*
X051655Y013785D03*
X051655Y014533D03*
X052655Y014533D03*
X053655Y014533D03*
X053655Y013785D03*
X052655Y013785D03*
X053155Y037785D03*
X053155Y038533D03*
D24*
X050905Y018580D03*
X050405Y018580D03*
X049905Y018580D03*
X049405Y018580D03*
X049405Y017738D03*
X049905Y017738D03*
X050405Y017738D03*
X050905Y017738D03*
X048405Y017738D03*
X047905Y017738D03*
X047405Y017738D03*
X046905Y017738D03*
X046905Y018580D03*
X047405Y018580D03*
X047905Y018580D03*
X048405Y018580D03*
X039905Y018580D03*
X039405Y018580D03*
X038905Y018580D03*
X038405Y018580D03*
X038405Y017738D03*
X038905Y017738D03*
X039405Y017738D03*
X039905Y017738D03*
X037405Y017738D03*
X036905Y017738D03*
X036405Y017738D03*
X035905Y017738D03*
X035905Y018580D03*
X036405Y018580D03*
X036905Y018580D03*
X037405Y018580D03*
X038405Y003080D03*
X038905Y003080D03*
X039405Y003080D03*
X039905Y003080D03*
X039905Y002238D03*
X039405Y002238D03*
X038905Y002238D03*
X038405Y002238D03*
X049405Y002238D03*
X049905Y002238D03*
X050405Y002238D03*
X050905Y002238D03*
X050905Y003080D03*
X050405Y003080D03*
X049905Y003080D03*
X049405Y003080D03*
D25*
X048905Y010629D03*
X048405Y010629D03*
X047905Y010629D03*
X047405Y010629D03*
X047405Y012689D03*
X047905Y012689D03*
X048405Y012689D03*
X048905Y012689D03*
X051405Y012689D03*
X051905Y012689D03*
X052405Y012689D03*
X052905Y012689D03*
X052905Y010629D03*
X052405Y010629D03*
X051905Y010629D03*
X051405Y010629D03*
X041905Y010629D03*
X041405Y010629D03*
X040905Y010629D03*
X040405Y010629D03*
X037905Y010629D03*
X037405Y010629D03*
X036905Y010629D03*
X036405Y010629D03*
X036405Y012689D03*
X036905Y012689D03*
X037405Y012689D03*
X037905Y012689D03*
X040405Y012689D03*
X040905Y012689D03*
X041405Y012689D03*
X041905Y012689D03*
D26*
X041809Y004659D03*
X043502Y004659D03*
X043502Y003159D03*
X041809Y003159D03*
X045809Y003159D03*
X047502Y003159D03*
X047502Y004659D03*
X045809Y004659D03*
X052809Y004659D03*
X054502Y004659D03*
X054502Y003159D03*
X052809Y003159D03*
X036502Y003159D03*
X034809Y003159D03*
X034809Y004659D03*
X036502Y004659D03*
D27*
X037655Y004246D03*
X037655Y005072D03*
X038655Y005072D03*
X038655Y004246D03*
X039655Y004246D03*
X040655Y004246D03*
X040655Y005072D03*
X039655Y005072D03*
X048655Y005072D03*
X048655Y004246D03*
X049655Y004246D03*
X050655Y004246D03*
X050655Y005072D03*
X049655Y005072D03*
X051655Y005072D03*
X051655Y004246D03*
X031655Y036246D03*
X031655Y037072D03*
X029655Y037072D03*
X029655Y036246D03*
X048155Y037746D03*
X048155Y038572D03*
X050155Y038572D03*
X050155Y037746D03*
X052155Y037746D03*
X052155Y038572D03*
X054155Y038572D03*
X054155Y037746D03*
D28*
X057824Y035427D03*
X057824Y019891D03*
D29*
X034029Y020647D03*
X033281Y020647D03*
X033281Y021671D03*
X033655Y021671D03*
X034029Y021671D03*
X023029Y038147D03*
X022281Y038147D03*
X022281Y039171D03*
X022655Y039171D03*
X023029Y039171D03*
D30*
X045655Y031096D03*
X045655Y028796D03*
X049155Y028796D03*
X049155Y031096D03*
X049155Y025522D03*
X049155Y023222D03*
X045655Y023222D03*
X045655Y025522D03*
D31*
X044155Y034159D03*
D32*
X041529Y034159D03*
X040781Y034159D03*
X039529Y034159D03*
X038781Y034159D03*
X038781Y035159D03*
X039529Y035159D03*
X039529Y036159D03*
X038781Y036159D03*
X036529Y034159D03*
X035781Y034159D03*
X038781Y033159D03*
X039529Y033159D03*
X040781Y033159D03*
X041529Y033159D03*
X041529Y032159D03*
X040781Y032159D03*
X042781Y032159D03*
X043529Y032159D03*
X046781Y033159D03*
X047529Y033159D03*
D33*
X045907Y037659D03*
X042403Y037659D03*
D34*
X046604Y035159D03*
X046604Y034159D03*
X047706Y034159D03*
X047706Y035159D03*
X036706Y033159D03*
X035604Y033159D03*
D35*
X040155Y030335D03*
X040155Y029233D03*
X040155Y028085D03*
X040155Y026983D03*
X040155Y037108D03*
X041155Y037108D03*
X041155Y038210D03*
X040155Y038210D03*
D36*
X037565Y035939D03*
X036655Y035939D03*
X035745Y035939D03*
D37*
X036655Y038379D03*
D38*
X043771Y012604D03*
X044027Y012604D03*
X044283Y012604D03*
X044539Y012604D03*
X044539Y010714D03*
X044283Y010714D03*
X044027Y010714D03*
X043771Y010714D03*
D39*
X045655Y010990D03*
X045655Y012328D03*
X041155Y026865D03*
X041155Y028203D03*
X041155Y029115D03*
X041155Y030453D03*
D40*
X043641Y016533D03*
X043641Y016159D03*
X043641Y015785D03*
X044669Y015785D03*
X044669Y016533D03*
D41*
X028115Y016409D03*
X028115Y016909D03*
X028115Y015909D03*
X028115Y015409D03*
X028115Y014909D03*
X028115Y014409D03*
X028115Y013909D03*
X028115Y013409D03*
X025695Y013409D03*
X025695Y013909D03*
X025695Y014409D03*
X025695Y014909D03*
X025695Y015409D03*
X025695Y015909D03*
X025695Y016409D03*
X025695Y016909D03*
D42*
X025655Y005419D02*
X025655Y004899D01*
X026655Y004899D02*
X026655Y005419D01*
X027655Y005419D02*
X027655Y004899D01*
X028655Y004899D02*
X028655Y005419D01*
X029655Y005419D02*
X029655Y004899D01*
X030655Y004899D02*
X030655Y005419D01*
X031655Y005419D02*
X031655Y004899D01*
X032655Y004899D02*
X032655Y005419D01*
X032655Y002419D02*
X032655Y001899D01*
X031655Y001899D02*
X031655Y002419D01*
X030655Y002419D02*
X030655Y001899D01*
X029655Y001899D02*
X029655Y002419D01*
X028655Y002419D02*
X028655Y001899D01*
X027655Y001899D02*
X027655Y002419D01*
X026655Y002419D02*
X026655Y001899D01*
X025655Y001899D02*
X025655Y002419D01*
X023655Y002419D02*
X023655Y001899D01*
X022655Y001899D02*
X022655Y002419D01*
X021655Y002419D02*
X021655Y001899D01*
X020655Y001899D02*
X020655Y002419D01*
X019655Y002419D02*
X019655Y001899D01*
X018655Y001899D02*
X018655Y002419D01*
X017655Y002419D02*
X017655Y001899D01*
X016655Y001899D02*
X016655Y002419D01*
X016655Y004899D02*
X016655Y005419D01*
X017655Y005419D02*
X017655Y004899D01*
X018655Y004899D02*
X018655Y005419D01*
X019655Y005419D02*
X019655Y004899D01*
X020655Y004899D02*
X020655Y005419D01*
X021655Y005419D02*
X021655Y004899D01*
X022655Y004899D02*
X022655Y005419D01*
X023655Y005419D02*
X023655Y004899D01*
D43*
X034155Y038659D03*
D44*
X033155Y038659D03*
X032155Y038659D03*
X031155Y038659D03*
X030155Y038659D03*
X029155Y038659D03*
D45*
X040927Y025159D03*
X040927Y024659D03*
X040927Y024159D03*
X040927Y023659D03*
X040927Y023159D03*
X042383Y023159D03*
X042383Y023659D03*
X042383Y024159D03*
X042383Y024659D03*
X042383Y025159D03*
D46*
X030238Y027045D03*
X030041Y027045D03*
X029844Y027045D03*
X029647Y027045D03*
X029450Y027045D03*
X029254Y027045D03*
X029057Y027045D03*
X028860Y027045D03*
X028663Y027045D03*
X028466Y027045D03*
X028269Y027045D03*
X028072Y027045D03*
X028072Y030273D03*
X028269Y030273D03*
X028466Y030273D03*
X028663Y030273D03*
X028860Y030273D03*
X029057Y030273D03*
X029254Y030273D03*
X029450Y030273D03*
X029647Y030273D03*
X029844Y030273D03*
X030041Y030273D03*
X030238Y030273D03*
D47*
X030769Y029742D03*
X030769Y029545D03*
X030769Y029348D03*
X030769Y029151D03*
X030769Y028954D03*
X030769Y028757D03*
X030769Y028561D03*
X030769Y028364D03*
X030769Y028167D03*
X030769Y027970D03*
X030769Y027773D03*
X030769Y027576D03*
X027541Y027576D03*
X027541Y027773D03*
X027541Y027970D03*
X027541Y028167D03*
X027541Y028364D03*
X027541Y028561D03*
X027541Y028757D03*
X027541Y028954D03*
X027541Y029151D03*
X027541Y029348D03*
X027541Y029545D03*
X027541Y029742D03*
D48*
X038655Y030159D03*
X038655Y029159D03*
X038655Y028159D03*
X038655Y027159D03*
X038655Y026159D03*
X038655Y025159D03*
X038655Y024159D03*
X038655Y023159D03*
X038655Y022159D03*
D49*
X031055Y033159D03*
X027255Y033159D03*
D50*
X002655Y038159D03*
X002655Y003159D03*
X057155Y003159D03*
X057155Y038159D03*
D51*
X021100Y024784D03*
X019210Y024784D03*
D52*
X056155Y010659D03*
D53*
X056155Y012659D03*
D54*
X023785Y035659D03*
X022525Y035659D03*
D55*
X022655Y034159D03*
X020155Y034159D03*
X029093Y028284D03*
X029718Y028534D03*
X033093Y027909D03*
X033530Y028222D03*
X038155Y027659D03*
X038155Y026659D03*
X026280Y025034D03*
X025780Y025034D03*
X025780Y024534D03*
X026280Y024534D03*
X024780Y024534D03*
X024280Y024534D03*
X024280Y025034D03*
X024780Y025034D03*
X023155Y026909D03*
X038155Y039159D03*
D56*
X046655Y036159D03*
X015155Y015159D03*
X014155Y016159D03*
X012655Y017159D03*
X011905Y017159D03*
X010155Y016159D03*
X010155Y015159D03*
X008405Y015159D03*
X007655Y016159D03*
X006155Y017159D03*
X005155Y017159D03*
X003655Y016159D03*
X003655Y015159D03*
X005155Y014159D03*
X006905Y014159D03*
X011905Y014159D03*
X013405Y014159D03*
X046655Y012659D03*
D57*
X035218Y018347D03*
X047655Y026159D03*
X047655Y027659D03*
M02*
