%
M48
M72
T01C0.0197
T02C0.0236
T03C0.0276
T04C0.0320
T05C0.0394
T06C0.0400
T07C0.0551
T08C0.0709
T09C0.1000
T10C0.1181
T11C0.1260
%
T01
X9280Y3284
X9280Y3784
X9280Y4284
X9280Y4784
X10780Y3909
X11405Y3159
X11905Y3159
X15405Y2659
X15905Y2659
X14905Y5534
X19905Y8909
X19905Y9909
X22655Y9659
X22655Y8659
X22655Y7659
X24280Y6284
X24780Y5909
X28093Y8909
X27718Y9409
X28468Y9659
X27343Y9909
X28468Y10909
X28093Y11409
X27718Y11909
X27343Y12409
X26530Y13909
X26530Y14409
X26530Y14909
X26530Y15409
X26530Y15909
X27405Y15784
X27405Y15159
X27405Y16409
X26530Y16409
X26655Y16909
X25655Y18159
X24905Y19159
X22655Y18659
X22155Y19159
X22655Y17659
X22655Y16659
X22655Y15659
X22655Y14659
X22655Y13659
X22655Y12659
X22655Y11659
X22655Y10659
X20405Y13409
X20405Y14409
X20405Y17409
X20405Y18409
X22655Y20659
X22655Y21159
X22655Y22659
X22655Y23659
X24655Y23159
X27343Y22909
X27343Y22409
X27343Y21909
X27343Y21409
X28468Y20409
X28093Y19909
X27718Y19409
X27343Y18909
X24655Y21159
X29030Y23784
X29530Y23784
X30030Y23784
X31280Y24909
X31655Y25284
X32030Y25659
X32405Y26034
X31655Y27159
X32030Y27534
X30780Y26784
X30030Y27784
X29530Y27784
X28530Y28222
X28280Y27784
X27030Y26659
X27530Y26409
X25280Y27284
X25280Y27784
X24155Y28159
X24155Y27159
X22155Y27159
X21655Y27159
X21155Y27159
X21655Y26659
X22155Y26659
X22155Y27659
X21655Y28159
X21155Y28159
X18405Y28909
X17405Y29409
X17905Y29909
X16905Y30409
X15655Y30909
X15655Y33159
X16655Y34159
X17155Y34159
X17655Y34159
X15655Y35159
X17155Y36159
X17655Y36159
X18655Y37159
X18655Y37659
X19155Y37159
X19655Y37159
X18655Y38284
X18655Y39034
X18655Y39659
X21155Y39659
X21655Y39659
X22655Y38659
X26280Y36784
X26655Y37159
X28155Y36659
X28655Y36659
X28655Y37159
X29655Y35659
X31155Y35659
X33155Y34159
X33155Y33659
X33155Y33159
X33155Y32659
X33155Y32159
X31405Y31534
X31405Y30784
X31405Y30284
X31405Y29784
X31405Y29284
X30030Y29284
X29530Y29284
X29280Y29659
X28280Y29284
X26905Y29284
X24155Y29159
X24155Y29659
X24155Y30159
X22405Y30909
X22405Y31534
X22405Y32409
X22405Y32909
X22405Y33409
X21280Y32909
X20905Y33409
X21655Y32409
X24280Y33034
X24155Y33659
X24155Y34659
X23155Y34659
X22655Y34659
X23155Y35159
X25155Y34659
X26155Y34659
X25155Y32409
X17905Y27159
X17405Y27659
X16905Y28159
X18405Y26659
X18655Y25659
X19155Y25659
X19655Y25659
X19655Y24159
X19155Y24159
X19905Y21909
X19905Y20909
X14155Y26659
X14155Y27159
X14155Y27659
X14155Y28159
X9155Y28659
X7655Y28159
X7155Y28159
X6655Y28159
X6155Y27659
X5655Y28159
X5155Y27159
X4655Y27159
X3655Y27159
X3155Y26659
X2655Y27159
X3155Y27659
X2655Y28159
X3155Y28659
X3655Y28159
X3655Y29159
X2655Y29159
X2655Y26159
X3655Y26159
X6655Y25659
X15655Y37159
X15655Y39159
X33905Y28909
X34280Y26409
X36780Y24534
X36780Y24034
X32405Y22659
X35905Y20159
X36405Y19784
X36905Y19409
X37405Y19097
X38405Y19097
X38905Y19409
X39405Y19784
X39905Y20159
X40655Y19659
X41155Y19659
X41655Y19659
X42155Y19659
X43655Y19659
X46218Y21222
X46905Y20159
X47405Y19784
X47905Y19409
X48405Y19097
X49405Y19097
X49905Y19409
X50405Y19784
X50905Y20159
X53655Y20159
X55155Y20159
X55155Y18659
X53655Y18659
X55155Y17159
X55155Y15659
X55155Y14159
X55155Y12659
X54655Y12659
X54155Y12659
X53655Y12659
X50655Y12659
X50155Y12659
X49655Y12659
X50155Y13159
X48155Y15159
X48155Y15784
X46343Y15659
X45030Y15284
X44218Y16159
X45030Y16909
X46905Y17222
X50155Y15784
X52155Y15159
X52155Y16784
X46155Y11659
X46405Y10909
X46405Y10409
X45905Y10409
X45405Y10409
X45030Y11659
X46905Y10909
X46905Y10409
X42655Y10659
X42655Y11659
X39655Y12659
X39155Y12159
X38655Y11659
X38655Y11159
X38655Y10659
X39155Y10659
X39155Y11159
X35155Y11159
X34655Y11159
X34655Y10659
X35155Y10659
X35155Y11659
X34655Y11659
X34655Y12159
X35155Y12159
X33030Y10909
X32155Y10659
X31655Y10659
X31655Y11159
X31655Y11659
X31655Y12159
X32155Y12159
X32155Y11659
X32155Y11159
X31905Y8909
X32405Y8909
X32905Y8909
X31405Y8534
X30905Y8159
X30405Y6409
X29905Y6409
X34809Y5659
X37530Y5659
X40780Y5659
X43502Y5659
X45809Y5659
X48530Y5659
X51780Y5659
X54502Y5659
X41155Y15159
X41155Y15784
X39155Y15784
X37155Y15159
X37155Y16534
X35905Y17222
X35155Y16159
X34655Y16159
X34655Y15659
X34655Y15159
X35155Y15159
X35155Y15659
X34655Y14659
X30030Y16284
X29530Y16284
X29030Y16284
X43405Y23034
X43405Y23534
X43405Y24034
X43405Y24534
X43405Y25034
X43405Y25534
X45093Y27597
X44780Y29784
X43655Y31159
X43155Y31159
X40155Y33159
X37530Y34909
X35155Y34659
X35155Y34159
X35155Y31659
X35655Y31659
X39155Y29659
X37280Y27472
X46968Y25722
X55155Y25159
X55155Y23659
X55155Y22159
X55155Y27159
X55155Y29159
X55155Y31159
X55155Y33159
X52655Y32159
X52155Y31659
X49155Y33659
X49155Y34659
X49655Y36659
X48155Y36659
X52655Y36659
X54655Y36659
X41155Y35659
X40655Y35659
X24655Y2159
T02
X24780Y24534
X24280Y24534
X24280Y25034
X24780Y25034
X25780Y25034
X26280Y25034
X26280Y24534
X25780Y24534
X23155Y26909
X29093Y28284
X29718Y28534
X33093Y27909
X33530Y28222
X38155Y27659
X38155Y26659
X22655Y34159
X20155Y34159
X38155Y39159
T03
X46655Y36159
X15155Y15159
X14155Y16159
X12655Y17159
X11905Y17159
X10155Y16159
X10155Y15159
X8405Y15159
X7655Y16159
X6155Y17159
X5155Y17159
X3655Y16159
X3655Y15159
X5155Y14159
X6905Y14159
X11905Y14159
X13405Y14159
X46655Y12659
T04
X32655Y5159
X31655Y5159
X30655Y5159
X29655Y5159
X28655Y5159
X27655Y5159
X26655Y5159
X25655Y5159
X23655Y5159
X22655Y5159
X21655Y5159
X20655Y5159
X19655Y5159
X18655Y5159
X17655Y5159
X16655Y5159
X16655Y2159
X17655Y2159
X18655Y2159
X19655Y2159
X20655Y2159
X21655Y2159
X22655Y2159
X23655Y2159
X25655Y2159
X26655Y2159
X27655Y2159
X28655Y2159
X29655Y2159
X30655Y2159
X31655Y2159
X32655Y2159
T05
X35218Y18347
X38655Y22159
X38655Y23159
X38655Y24159
X38655Y25159
X38655Y26159
X38655Y27159
X38655Y28159
X38655Y29159
X38655Y30159
X47655Y27659
X47655Y26159
X34155Y38659
X33155Y38659
X32155Y38659
X31155Y38659
X30155Y38659
X29155Y38659
X27655Y38659
X26655Y38659
X25655Y38659
X24655Y38659
X14655Y38159
X14655Y39159
X14655Y37159
X14655Y36159
X14655Y35159
X14655Y34159
X14655Y33159
X14655Y32159
X11655Y32159
X11655Y33159
X11655Y34159
X11655Y35159
X11655Y36159
X11655Y37159
X11655Y38159
X11655Y39159
X8655Y39159
X8655Y38159
X8655Y37159
X8655Y36159
X8655Y35159
X8655Y34159
X8655Y33159
X8655Y32159
X5655Y32159
X5655Y33159
X5655Y34159
X5655Y35159
X5655Y36159
X5655Y37159
X5655Y38159
X5655Y39159
T06
X56155Y12659
X56155Y10659
T07
X52635Y8742
X50982Y8742
X49328Y8742
X47675Y8742
X47675Y6576
X49328Y6576
X50982Y6576
X52635Y6576
X41635Y6576
X39982Y6576
X38328Y6576
X36675Y6576
X36675Y8742
X38328Y8742
X39982Y8742
X41635Y8742
X15943Y9242
X14289Y9242
X12635Y9242
X10982Y9242
X9328Y9242
X7675Y9242
X6021Y9242
X4368Y9242
X4368Y7076
X6021Y7076
X7675Y7076
X9328Y7076
X10982Y7076
X12635Y7076
X14289Y7076
X15943Y7076
X15943Y22076
X14289Y22076
X12635Y22076
X10982Y22076
X9328Y22076
X7675Y22076
X6021Y22076
X4368Y22076
X4368Y24242
X6021Y24242
X7675Y24242
X9328Y24242
X10982Y24242
X12635Y24242
X14289Y24242
X15943Y24242
T08
X51403Y24710
X52655Y24710
X52655Y21761
X51403Y21761
X51403Y27659
X52655Y27659
X52655Y30608
X51403Y30608
X51403Y33557
X52655Y33557
T09
X49155Y31096
X49155Y28796
X45655Y28796
X45655Y31096
X45655Y25522
X45655Y23222
X49155Y23222
X49155Y25522
T10
X57824Y19891
X54486Y8561
X45824Y8561
X43486Y8561
X34824Y8561
X17793Y7257
X2517Y7257
X2517Y24061
X17793Y24061
X57824Y35427
T11
X2655Y3159
X2655Y38159
X57155Y38159
X57155Y3159
M30
