%FSLAX46Y46*%
G04 Gerber Fmt 4.6, Leading zero omitted, Abs format (unit mm)*
G04 Created by KiCad (PCBNEW (2014-10-27 BZR 5228)-product) date 6/26/2015 11:48:30 AM*
%MOMM*%
G01*
G04 APERTURE LIST*
%ADD10C,0.100000*%
%ADD11R,1.250000X0.760000*%
%ADD12R,2.400300X3.500120*%
%ADD13R,0.750000X0.800000*%
%ADD14R,1.000000X1.250000*%
%ADD15R,0.800000X0.750000*%
%ADD16R,1.250000X1.000000*%
%ADD17R,0.797560X0.797560*%
%ADD18R,1.800860X2.499360*%
%ADD19R,2.499360X1.800860*%
%ADD20R,0.760000X2.400000*%
%ADD21R,1.550000X0.600000*%
%ADD22R,0.600000X1.550000*%
%ADD23R,0.500000X0.900000*%
%ADD24R,0.900000X0.500000*%
%ADD25R,1.700000X0.900000*%
%ADD26R,0.900000X1.700000*%
%ADD27R,0.400000X1.200000*%
%ADD28R,1.000000X0.250000*%
%ADD29R,0.250000X1.000000*%
%ADD30R,3.657600X2.032000*%
%ADD31R,1.016000X2.032000*%
%ADD32R,0.225000X0.600000*%
%ADD33R,1.998980X5.499100*%
%ADD34R,0.800100X0.800100*%
%ADD35R,0.650000X1.060000*%
%ADD36R,3.048000X1.651000*%
%ADD37R,6.096000X6.096000*%
G04 APERTURE END LIST*
D10*
D11*
X123407500Y-125095000D03*
X123407500Y-126365000D03*
X123407500Y-127635000D03*
X123407500Y-128905000D03*
X123407500Y-130175000D03*
X123407500Y-131445000D03*
X123407500Y-132715000D03*
X123407500Y-133985000D03*
X117257500Y-125095000D03*
X117257500Y-126365000D03*
X117257500Y-127635000D03*
X117257500Y-128905000D03*
X117257500Y-130175000D03*
X117257500Y-131445000D03*
X117257500Y-132715000D03*
X117257500Y-133985000D03*
D12*
X127952500Y-160261300D03*
X127952500Y-166763700D03*
D13*
X141605000Y-170295000D03*
X141605000Y-168795000D03*
D14*
X137842500Y-131762500D03*
X135842500Y-131762500D03*
D13*
X76835000Y-128155000D03*
X76835000Y-129655000D03*
X76835000Y-137275000D03*
X76835000Y-135775000D03*
D15*
X89420000Y-124460000D03*
X90920000Y-124460000D03*
X101802500Y-128270000D03*
X103302500Y-128270000D03*
D13*
X98742500Y-139902500D03*
X98742500Y-141402500D03*
D15*
X84975000Y-133985000D03*
X86475000Y-133985000D03*
D13*
X90805000Y-141402500D03*
X90805000Y-139902500D03*
X84772500Y-115137500D03*
X84772500Y-116637500D03*
X94932500Y-115455000D03*
X94932500Y-116955000D03*
D16*
X63817500Y-146002500D03*
X63817500Y-148002500D03*
X59372500Y-146002500D03*
X59372500Y-148002500D03*
D14*
X93297500Y-93662500D03*
X95297500Y-93662500D03*
D16*
X63817500Y-131715000D03*
X63817500Y-133715000D03*
D13*
X61595000Y-131965000D03*
X61595000Y-133465000D03*
D14*
X95297500Y-91440000D03*
X93297500Y-91440000D03*
X66310000Y-146367500D03*
X68310000Y-146367500D03*
X143557500Y-172720000D03*
X141557500Y-172720000D03*
X137112500Y-172720000D03*
X139112500Y-172720000D03*
D13*
X106680000Y-139815000D03*
X106680000Y-138315000D03*
D15*
X110375000Y-136207500D03*
X111875000Y-136207500D03*
D13*
X108585000Y-139815000D03*
X108585000Y-138315000D03*
X113665000Y-139815000D03*
X113665000Y-138315000D03*
D17*
X130060700Y-120650000D03*
X131559300Y-120650000D03*
X130060700Y-92710000D03*
X131559300Y-92710000D03*
X130060700Y-118110000D03*
X131559300Y-118110000D03*
X130060700Y-95250000D03*
X131559300Y-95250000D03*
X130060700Y-112395000D03*
X131559300Y-112395000D03*
X130060700Y-101282500D03*
X131559300Y-101282500D03*
X130060700Y-109855000D03*
X131559300Y-109855000D03*
X130060700Y-103822500D03*
X131559300Y-103822500D03*
D18*
X76200000Y-149131020D03*
X76200000Y-153128980D03*
X86360000Y-149131020D03*
X86360000Y-153128980D03*
X96520000Y-149131020D03*
X96520000Y-153128980D03*
X106680000Y-149131020D03*
X106680000Y-153128980D03*
X76200000Y-165641020D03*
X76200000Y-169638980D03*
X86360000Y-165641020D03*
X86360000Y-169638980D03*
X96520000Y-165641020D03*
X96520000Y-169638980D03*
X106680000Y-165641020D03*
X106680000Y-169638980D03*
X81280000Y-149131020D03*
X81280000Y-153128980D03*
X91440000Y-149131020D03*
X91440000Y-153128980D03*
X101600000Y-149131020D03*
X101600000Y-153128980D03*
X111760000Y-149131020D03*
X111760000Y-153128980D03*
X81280000Y-165641020D03*
X81280000Y-169638980D03*
X91440000Y-165641020D03*
X91440000Y-169638980D03*
X101600000Y-165641020D03*
X101600000Y-169638980D03*
X111760000Y-165641020D03*
X111760000Y-169638980D03*
D17*
X71551800Y-129857500D03*
X70053200Y-129857500D03*
X71551800Y-131762500D03*
X70053200Y-131762500D03*
X71551800Y-133667500D03*
X70053200Y-133667500D03*
X71551800Y-135572500D03*
X70053200Y-135572500D03*
D19*
X135161020Y-127000000D03*
X139158980Y-127000000D03*
X153128980Y-90805000D03*
X149131020Y-90805000D03*
X153128980Y-117475000D03*
X149131020Y-117475000D03*
X153128980Y-95250000D03*
X149131020Y-95250000D03*
X153128980Y-113030000D03*
X149131020Y-113030000D03*
X153128980Y-99695000D03*
X149131020Y-99695000D03*
X153128980Y-108585000D03*
X149131020Y-108585000D03*
X153128980Y-104140000D03*
X149131020Y-104140000D03*
D17*
X71551800Y-127952500D03*
X70053200Y-127952500D03*
X71551800Y-126047500D03*
X70053200Y-126047500D03*
D20*
X99695000Y-123235000D03*
X99695000Y-119335000D03*
X100965000Y-123235000D03*
X100965000Y-119335000D03*
X104775000Y-119335000D03*
X104775000Y-123235000D03*
X103505000Y-119335000D03*
X103505000Y-123235000D03*
X102235000Y-119335000D03*
X102235000Y-123235000D03*
D21*
X121760000Y-116840000D03*
X121760000Y-118110000D03*
X121760000Y-119380000D03*
X121760000Y-120650000D03*
X127160000Y-120650000D03*
X127160000Y-119380000D03*
X127160000Y-118110000D03*
X127160000Y-116840000D03*
X121760000Y-91440000D03*
X121760000Y-92710000D03*
X121760000Y-93980000D03*
X121760000Y-95250000D03*
X127160000Y-95250000D03*
X127160000Y-93980000D03*
X127160000Y-92710000D03*
X127160000Y-91440000D03*
X121760000Y-108585000D03*
X121760000Y-109855000D03*
X121760000Y-111125000D03*
X121760000Y-112395000D03*
X127160000Y-112395000D03*
X127160000Y-111125000D03*
X127160000Y-109855000D03*
X127160000Y-108585000D03*
X121760000Y-100012500D03*
X121760000Y-101282500D03*
X121760000Y-102552500D03*
X121760000Y-103822500D03*
X127160000Y-103822500D03*
X127160000Y-102552500D03*
X127160000Y-101282500D03*
X127160000Y-100012500D03*
D22*
X72707500Y-155732500D03*
X71437500Y-155732500D03*
X70167500Y-155732500D03*
X68897500Y-155732500D03*
X68897500Y-161132500D03*
X70167500Y-161132500D03*
X71437500Y-161132500D03*
X72707500Y-161132500D03*
X72707500Y-172242500D03*
X71437500Y-172242500D03*
X70167500Y-172242500D03*
X68897500Y-172242500D03*
X68897500Y-177642500D03*
X70167500Y-177642500D03*
X71437500Y-177642500D03*
X72707500Y-177642500D03*
D23*
X108152500Y-119697500D03*
X109652500Y-119697500D03*
X117590000Y-119697500D03*
X116090000Y-119697500D03*
X134735000Y-120650000D03*
X133235000Y-120650000D03*
X134735000Y-92710000D03*
X133235000Y-92710000D03*
X117590000Y-90487500D03*
X116090000Y-90487500D03*
X108152500Y-90487500D03*
X109652500Y-90487500D03*
X108152500Y-121602500D03*
X109652500Y-121602500D03*
X117590000Y-121602500D03*
X116090000Y-121602500D03*
X117590000Y-92392500D03*
X116090000Y-92392500D03*
X108152500Y-92392500D03*
X109652500Y-92392500D03*
D24*
X114617500Y-121400000D03*
X114617500Y-119900000D03*
X114617500Y-90690000D03*
X114617500Y-92190000D03*
D23*
X108152500Y-115887500D03*
X109652500Y-115887500D03*
X117590000Y-115887500D03*
X116090000Y-115887500D03*
X134735000Y-118110000D03*
X133235000Y-118110000D03*
X134735000Y-95250000D03*
X133235000Y-95250000D03*
X117590000Y-94297500D03*
X116090000Y-94297500D03*
X108152500Y-94297500D03*
X109652500Y-94297500D03*
X108152500Y-117792500D03*
X109652500Y-117792500D03*
X117590000Y-117792500D03*
X116090000Y-117792500D03*
X117590000Y-96202500D03*
X116090000Y-96202500D03*
X108152500Y-96202500D03*
X109652500Y-96202500D03*
D24*
X114617500Y-117590000D03*
X114617500Y-116090000D03*
X114617500Y-94500000D03*
X114617500Y-96000000D03*
D23*
X108152500Y-111442500D03*
X109652500Y-111442500D03*
X117590000Y-111442500D03*
X116090000Y-111442500D03*
X134735000Y-112395000D03*
X133235000Y-112395000D03*
X134735000Y-101282500D03*
X133235000Y-101282500D03*
X117590000Y-99060000D03*
X116090000Y-99060000D03*
X108152500Y-99060000D03*
X109652500Y-99060000D03*
X108152500Y-113347500D03*
X109652500Y-113347500D03*
X117590000Y-113347500D03*
X116090000Y-113347500D03*
X117590000Y-100965000D03*
X116090000Y-100965000D03*
X108152500Y-100965000D03*
X109652500Y-100965000D03*
D24*
X114617500Y-113145000D03*
X114617500Y-111645000D03*
X114617500Y-99262500D03*
X114617500Y-100762500D03*
D23*
X108152500Y-107632500D03*
X109652500Y-107632500D03*
X117590000Y-107632500D03*
X116090000Y-107632500D03*
X134735000Y-109855000D03*
X133235000Y-109855000D03*
X134735000Y-103822500D03*
X133235000Y-103822500D03*
X117590000Y-102870000D03*
X116090000Y-102870000D03*
X108152500Y-102870000D03*
X109652500Y-102870000D03*
X108152500Y-109537500D03*
X109652500Y-109537500D03*
X117590000Y-109537500D03*
X116090000Y-109537500D03*
X117590000Y-104775000D03*
X116090000Y-104775000D03*
X108152500Y-104775000D03*
X109652500Y-104775000D03*
D24*
X114617500Y-109335000D03*
X114617500Y-107835000D03*
X114617500Y-103072500D03*
X114617500Y-104572500D03*
X121602500Y-171335000D03*
X121602500Y-172835000D03*
X117792500Y-176327500D03*
X117792500Y-174827500D03*
X121602500Y-154507500D03*
X121602500Y-156007500D03*
X117792500Y-159500000D03*
X117792500Y-158000000D03*
X119697500Y-163715000D03*
X119697500Y-165215000D03*
X119697500Y-172835000D03*
X119697500Y-171335000D03*
X115887500Y-163715000D03*
X115887500Y-165215000D03*
X117792500Y-172835000D03*
X117792500Y-171335000D03*
X119697500Y-146570000D03*
X119697500Y-148070000D03*
X119697500Y-156007500D03*
X119697500Y-154507500D03*
X115887500Y-146570000D03*
X115887500Y-148070000D03*
X117792500Y-156007500D03*
X117792500Y-154507500D03*
X121602500Y-163715000D03*
X121602500Y-165215000D03*
X117792500Y-163715000D03*
X117792500Y-165215000D03*
X121602500Y-146570000D03*
X121602500Y-148070000D03*
X117792500Y-146570000D03*
X117792500Y-148070000D03*
D23*
X58940000Y-150812500D03*
X60440000Y-150812500D03*
D24*
X70802500Y-149110000D03*
X70802500Y-150610000D03*
D23*
X58940000Y-154622500D03*
X60440000Y-154622500D03*
D24*
X66992500Y-149110000D03*
X66992500Y-150610000D03*
D23*
X58940000Y-164465000D03*
X60440000Y-164465000D03*
D24*
X70802500Y-165620000D03*
X70802500Y-167120000D03*
D23*
X58940000Y-168275000D03*
X60440000Y-168275000D03*
D24*
X66992500Y-165620000D03*
X66992500Y-167120000D03*
X72707500Y-153467500D03*
X72707500Y-151967500D03*
X68897500Y-151967500D03*
X68897500Y-153467500D03*
X72707500Y-168477500D03*
X72707500Y-169977500D03*
X68897500Y-168477500D03*
X68897500Y-169977500D03*
D23*
X58940000Y-152717500D03*
X60440000Y-152717500D03*
D24*
X72707500Y-150610000D03*
X72707500Y-149110000D03*
D23*
X58940000Y-156527500D03*
X60440000Y-156527500D03*
D24*
X68897500Y-150610000D03*
X68897500Y-149110000D03*
D23*
X58940000Y-166370000D03*
X60440000Y-166370000D03*
D24*
X72707500Y-167120000D03*
X72707500Y-165620000D03*
D23*
X58940000Y-170180000D03*
X60440000Y-170180000D03*
D24*
X68897500Y-167120000D03*
X68897500Y-165620000D03*
X140017500Y-134187500D03*
X140017500Y-135687500D03*
X140017500Y-139267500D03*
X140017500Y-140767500D03*
X140017500Y-144347500D03*
X140017500Y-145847500D03*
X140017500Y-149427500D03*
X140017500Y-150927500D03*
X139700000Y-156007500D03*
X139700000Y-154507500D03*
X137795000Y-156007500D03*
X137795000Y-154507500D03*
X133667500Y-134187500D03*
X133667500Y-135687500D03*
X135890000Y-156007500D03*
X135890000Y-154507500D03*
X133667500Y-139267500D03*
X133667500Y-140767500D03*
X133985000Y-156007500D03*
X133985000Y-154507500D03*
X133667500Y-144347500D03*
X133667500Y-145847500D03*
X139700000Y-158635000D03*
X139700000Y-160135000D03*
X137795000Y-158635000D03*
X137795000Y-160135000D03*
X135890000Y-158635000D03*
X135890000Y-160135000D03*
X133985000Y-158635000D03*
X133985000Y-160135000D03*
X133667500Y-149427500D03*
X133667500Y-150927500D03*
D23*
X105207500Y-113982500D03*
X103707500Y-113982500D03*
X105207500Y-115887500D03*
X103707500Y-115887500D03*
X72910000Y-127952500D03*
X74410000Y-127952500D03*
X72910000Y-126047500D03*
X74410000Y-126047500D03*
X128067500Y-142875000D03*
X126567500Y-142875000D03*
X128067500Y-140335000D03*
X126567500Y-140335000D03*
X125615000Y-133985000D03*
X127115000Y-133985000D03*
X128472500Y-132715000D03*
X129972500Y-132715000D03*
X125615000Y-131445000D03*
X127115000Y-131445000D03*
X128472500Y-130175000D03*
X129972500Y-130175000D03*
X125615000Y-128905000D03*
X127115000Y-128905000D03*
X128472500Y-127635000D03*
X129972500Y-127635000D03*
X125615000Y-126365000D03*
X127115000Y-126365000D03*
X128472500Y-125095000D03*
X129972500Y-125095000D03*
X85205000Y-101917500D03*
X83705000Y-101917500D03*
X85205000Y-99695000D03*
X83705000Y-99695000D03*
X87745000Y-91440000D03*
X86245000Y-91440000D03*
X89420000Y-91440000D03*
X90920000Y-91440000D03*
D25*
X101917500Y-94160000D03*
X101917500Y-91260000D03*
D23*
X98540000Y-93662500D03*
X97040000Y-93662500D03*
X98540000Y-84772500D03*
X97040000Y-84772500D03*
X97040000Y-91440000D03*
X98540000Y-91440000D03*
D26*
X126502500Y-153035000D03*
X129402500Y-153035000D03*
D23*
X95047500Y-82550000D03*
X93547500Y-82550000D03*
D24*
X91440000Y-86792500D03*
X91440000Y-85292500D03*
D23*
X97040000Y-86995000D03*
X98540000Y-86995000D03*
X127202500Y-147002500D03*
X128702500Y-147002500D03*
D24*
X66357500Y-144577500D03*
X66357500Y-143077500D03*
D23*
X67195000Y-129857500D03*
X68695000Y-129857500D03*
X67195000Y-131762500D03*
X68695000Y-131762500D03*
X67195000Y-133667500D03*
X68695000Y-133667500D03*
X67195000Y-135572500D03*
X68695000Y-135572500D03*
D24*
X68262500Y-144577500D03*
X68262500Y-143077500D03*
X132080000Y-173470000D03*
X132080000Y-171970000D03*
X130175000Y-173470000D03*
X130175000Y-171970000D03*
D23*
X126567500Y-169862500D03*
X128067500Y-169862500D03*
D24*
X124460000Y-171970000D03*
X124460000Y-173470000D03*
D27*
X138792500Y-163237500D03*
X138142500Y-163237500D03*
X137492500Y-163237500D03*
X136842500Y-163237500D03*
X136192500Y-163237500D03*
X135542500Y-163237500D03*
X134892500Y-163237500D03*
X134892500Y-170137500D03*
X135542500Y-170137500D03*
X136192500Y-170137500D03*
X136842500Y-170137500D03*
X137492500Y-170137500D03*
X138142500Y-170137500D03*
X138792500Y-170137500D03*
D28*
X88597500Y-128647500D03*
X88597500Y-129147500D03*
X88597500Y-129647500D03*
X88597500Y-130147500D03*
X88597500Y-130647500D03*
X88597500Y-131147500D03*
X88597500Y-131647500D03*
X88597500Y-132147500D03*
X88597500Y-132647500D03*
X88597500Y-133147500D03*
X88597500Y-133647500D03*
X88597500Y-134147500D03*
X88597500Y-134647500D03*
X88597500Y-135147500D03*
X88597500Y-135647500D03*
X88597500Y-136147500D03*
D29*
X90547500Y-138097500D03*
X91047500Y-138097500D03*
X91547500Y-138097500D03*
X92047500Y-138097500D03*
X92547500Y-138097500D03*
X93047500Y-138097500D03*
X93547500Y-138097500D03*
X94047500Y-138097500D03*
X94547500Y-138097500D03*
X95047500Y-138097500D03*
X95547500Y-138097500D03*
X96047500Y-138097500D03*
X96547500Y-138097500D03*
X97047500Y-138097500D03*
X97547500Y-138097500D03*
X98047500Y-138097500D03*
D28*
X99997500Y-136147500D03*
X99997500Y-135647500D03*
X99997500Y-135147500D03*
X99997500Y-134647500D03*
X99997500Y-134147500D03*
X99997500Y-133647500D03*
X99997500Y-133147500D03*
X99997500Y-132647500D03*
X99997500Y-132147500D03*
X99997500Y-131647500D03*
X99997500Y-131147500D03*
X99997500Y-130647500D03*
X99997500Y-130147500D03*
X99997500Y-129647500D03*
X99997500Y-129147500D03*
X99997500Y-128647500D03*
D29*
X98047500Y-126697500D03*
X97547500Y-126697500D03*
X97047500Y-126697500D03*
X96547500Y-126697500D03*
X96047500Y-126697500D03*
X95547500Y-126697500D03*
X95047500Y-126697500D03*
X94547500Y-126697500D03*
X94047500Y-126697500D03*
X93547500Y-126697500D03*
X93047500Y-126697500D03*
X92547500Y-126697500D03*
X92047500Y-126697500D03*
X91547500Y-126697500D03*
X91047500Y-126697500D03*
X90547500Y-126697500D03*
D21*
X92552500Y-118110000D03*
X92552500Y-116840000D03*
X92552500Y-115570000D03*
X92552500Y-114300000D03*
X87152500Y-114300000D03*
X87152500Y-115570000D03*
X87152500Y-116840000D03*
X87152500Y-118110000D03*
D30*
X61595000Y-136715500D03*
D31*
X61595000Y-143319500D03*
X63881000Y-143319500D03*
X59309000Y-143319500D03*
D30*
X61595000Y-122428000D03*
D31*
X61595000Y-129032000D03*
X63881000Y-129032000D03*
X59309000Y-129032000D03*
D32*
X110325000Y-139965000D03*
X110725000Y-139965000D03*
X111125000Y-139965000D03*
X111525000Y-139965000D03*
X111925000Y-139965000D03*
X111925000Y-138165000D03*
X111525000Y-138165000D03*
X111125000Y-138165000D03*
X110725000Y-138165000D03*
X110325000Y-138165000D03*
D33*
X80645000Y-128016000D03*
X80645000Y-137414000D03*
D34*
X144193260Y-166367500D03*
X144193260Y-164467500D03*
X142194280Y-165417500D03*
X144193260Y-161287500D03*
X144193260Y-159387500D03*
X142194280Y-160337500D03*
X144193260Y-156207500D03*
X144193260Y-154307500D03*
X142194280Y-155257500D03*
X144193260Y-151127500D03*
X144193260Y-149227500D03*
X142194280Y-150177500D03*
X144193260Y-146047500D03*
X144193260Y-144147500D03*
X142194280Y-145097500D03*
X144193260Y-140967500D03*
X144193260Y-139067500D03*
X142194280Y-140017500D03*
X144193260Y-135887500D03*
X144193260Y-133987500D03*
X142194280Y-134937500D03*
X144193260Y-130807500D03*
X144193260Y-128907500D03*
X142194280Y-129857500D03*
X111076740Y-119700000D03*
X111076740Y-121600000D03*
X113075720Y-120650000D03*
X111076740Y-90490000D03*
X111076740Y-92390000D03*
X113075720Y-91440000D03*
X111076740Y-115890000D03*
X111076740Y-117790000D03*
X113075720Y-116840000D03*
X111076740Y-94300000D03*
X111076740Y-96200000D03*
X113075720Y-95250000D03*
X111076740Y-111445000D03*
X111076740Y-113345000D03*
X113075720Y-112395000D03*
X111076740Y-99062500D03*
X111076740Y-100962500D03*
X113075720Y-100012500D03*
X111076740Y-107635000D03*
X111076740Y-109535000D03*
X113075720Y-108585000D03*
X111076740Y-102872500D03*
X111076740Y-104772500D03*
X113075720Y-103822500D03*
D35*
X121600000Y-175430000D03*
X120650000Y-175430000D03*
X119700000Y-175430000D03*
X119700000Y-177630000D03*
X121600000Y-177630000D03*
X120650000Y-177630000D03*
X121600000Y-158602500D03*
X120650000Y-158602500D03*
X119700000Y-158602500D03*
X119700000Y-160802500D03*
X121600000Y-160802500D03*
X120650000Y-160802500D03*
D34*
X121600000Y-167591740D03*
X119700000Y-167591740D03*
X120650000Y-169590720D03*
X118107500Y-167591740D03*
X116207500Y-167591740D03*
X117157500Y-169590720D03*
X121600000Y-150764240D03*
X119700000Y-150764240D03*
X120650000Y-152763220D03*
X118107500Y-150764240D03*
X116207500Y-150764240D03*
X117157500Y-152763220D03*
X63134240Y-150815000D03*
X63134240Y-152715000D03*
X65133220Y-151765000D03*
X63134240Y-154625000D03*
X63134240Y-156525000D03*
X65133220Y-155575000D03*
X63134240Y-164467500D03*
X63134240Y-166367500D03*
X65133220Y-165417500D03*
X63134240Y-168277500D03*
X63134240Y-170177500D03*
X65133220Y-169227500D03*
X135841740Y-133987500D03*
X135841740Y-135887500D03*
X137840720Y-134937500D03*
X135841740Y-139067500D03*
X135841740Y-140967500D03*
X137840720Y-140017500D03*
X135841740Y-144147500D03*
X135841740Y-146047500D03*
X137840720Y-145097500D03*
X135841740Y-149227500D03*
X135841740Y-151127500D03*
X137840720Y-150177500D03*
X91170760Y-95247500D03*
X91170760Y-93347500D03*
X89171780Y-94297500D03*
X95298260Y-86992500D03*
X95298260Y-85092500D03*
X93299280Y-86042500D03*
X126316740Y-171770000D03*
X126316740Y-173670000D03*
X128315720Y-172720000D03*
D35*
X106360000Y-91610000D03*
X105410000Y-91610000D03*
X104460000Y-91610000D03*
X104460000Y-93810000D03*
X106360000Y-93810000D03*
D34*
X126951740Y-148910000D03*
X126951740Y-150810000D03*
X128950720Y-149860000D03*
D36*
X101592000Y-82443833D03*
D37*
X107942000Y-84729833D03*
D36*
X101592000Y-87015833D03*
M02*
