%FSLAX46Y46*%
G04 Gerber Fmt 4.6, Leading zero omitted, Abs format (unit mm)*
G04 Created by KiCad (PCBNEW (2014-10-27 BZR 5228)-product) date 6/28/2015 5:24:41 PM*
%MOMM*%
G01*
G04 APERTURE LIST*
%ADD10C,0.100000*%
%ADD11R,1.300000X1.300000*%
%ADD12C,1.300000*%
%ADD13C,1.700000*%
%ADD14O,1.800860X3.500120*%
%ADD15R,1.727200X2.032000*%
%ADD16O,1.727200X2.032000*%
%ADD17C,2.700000*%
%ADD18C,3.300000*%
%ADD19O,1.501140X2.499360*%
%ADD20C,1.397000*%
%ADD21R,1.700000X1.700000*%
G04 APERTURE END LIST*
D10*
D11*
X99377500Y-104140000D03*
D12*
X91877500Y-104140000D03*
D13*
X62537500Y-113705000D03*
X62537500Y-118705000D03*
X80337500Y-118705000D03*
X80337500Y-113705000D03*
X69522500Y-82272500D03*
X69522500Y-87272500D03*
X87322500Y-87272500D03*
X87322500Y-82272500D03*
D14*
X116205000Y-141605000D03*
X118745000Y-141605000D03*
X121285000Y-141605000D03*
X123825000Y-141605000D03*
D15*
X131313679Y-176482250D03*
D16*
X128773679Y-176482250D03*
X126233679Y-176482250D03*
D17*
X71437500Y-90912500D03*
X71437500Y-96412500D03*
X75637500Y-90912500D03*
X75637500Y-96412500D03*
X79837500Y-90912500D03*
X79837500Y-96412500D03*
X67237500Y-96412500D03*
X67237500Y-90912500D03*
X63037500Y-96412500D03*
X63037500Y-90912500D03*
D18*
X84537500Y-95952500D03*
X58337500Y-95952500D03*
D17*
X71437500Y-103612500D03*
X71437500Y-109112500D03*
X75637500Y-103612500D03*
X75637500Y-109112500D03*
X79837500Y-103612500D03*
X79837500Y-109112500D03*
X67237500Y-109112500D03*
X67237500Y-103612500D03*
X63037500Y-109112500D03*
X63037500Y-103612500D03*
D18*
X84537500Y-108652500D03*
X58337500Y-108652500D03*
D17*
X138061250Y-112503750D03*
X143561250Y-112503750D03*
X138061250Y-108303750D03*
X143561250Y-108303750D03*
X138061250Y-104103750D03*
X143561250Y-104103750D03*
X143561250Y-116703750D03*
X138061250Y-116703750D03*
X143561250Y-120903750D03*
X138061250Y-120903750D03*
D18*
X143101250Y-86803750D03*
X143101250Y-125603750D03*
D17*
X138061250Y-99903750D03*
X143561250Y-99903750D03*
X138061250Y-95703750D03*
X143561250Y-95703750D03*
X143561250Y-91503750D03*
X138061250Y-91503750D03*
D14*
X76200000Y-158432500D03*
X78740000Y-158432500D03*
X81280000Y-158432500D03*
X83820000Y-158432500D03*
X86360000Y-158432500D03*
X88900000Y-158432500D03*
X91440000Y-158432500D03*
X93980000Y-158432500D03*
X96520000Y-158432500D03*
X99060000Y-158432500D03*
X101600000Y-158432500D03*
X104140000Y-158432500D03*
X106680000Y-158432500D03*
X109220000Y-158432500D03*
X111760000Y-158432500D03*
X114300000Y-158432500D03*
X76200000Y-174942500D03*
X78740000Y-174942500D03*
X81280000Y-174942500D03*
X83820000Y-174942500D03*
X86360000Y-174942500D03*
X88900000Y-174942500D03*
X91440000Y-174942500D03*
X93980000Y-174942500D03*
X96520000Y-174942500D03*
X99060000Y-174942500D03*
X101600000Y-174942500D03*
X104140000Y-174942500D03*
X106680000Y-174942500D03*
X109220000Y-174942500D03*
X111760000Y-174942500D03*
X114300000Y-174942500D03*
D15*
X133350000Y-82232500D03*
D16*
X135890000Y-82232500D03*
X138430000Y-82232500D03*
X140970000Y-82232500D03*
X143510000Y-82232500D03*
X146050000Y-82232500D03*
D19*
X140335000Y-176530000D03*
X142875000Y-176530000D03*
X137795000Y-176530000D03*
D20*
X130492500Y-82232500D03*
X130492500Y-87312500D03*
X122872500Y-82232500D03*
X122872500Y-87312500D03*
X120650000Y-82232500D03*
X120650000Y-87312500D03*
X113030000Y-82232500D03*
X113030000Y-87312500D03*
D21*
X152082500Y-166370000D03*
D13*
X149542500Y-166370000D03*
X152082500Y-163830000D03*
X149542500Y-163830000D03*
X152082500Y-161290000D03*
X149542500Y-161290000D03*
X152082500Y-158750000D03*
X149542500Y-158750000D03*
X152082500Y-156210000D03*
X149542500Y-156210000D03*
X152082500Y-153670000D03*
X149542500Y-153670000D03*
X152082500Y-151130000D03*
X149542500Y-151130000D03*
X152082500Y-148590000D03*
X149542500Y-148590000D03*
X152082500Y-146050000D03*
X149542500Y-146050000D03*
X152082500Y-143510000D03*
X149542500Y-143510000D03*
X152082500Y-140970000D03*
X149542500Y-140970000D03*
X152082500Y-138430000D03*
X149542500Y-138430000D03*
X152082500Y-135890000D03*
X149542500Y-135890000D03*
X152082500Y-133350000D03*
X149542500Y-133350000D03*
X152082500Y-130810000D03*
X149542500Y-130810000D03*
X152082500Y-128270000D03*
X149542500Y-128270000D03*
X152082500Y-125730000D03*
X149542500Y-125730000D03*
M02*
