M48
;DRILL file {kicad (2014-10-27 BZR 5228)-product} date 6/26/2015 11:47:26 AM
;FORMAT={-:-/ absolute / inch / decimal}
FMAT,2
INCH,TZ
T1C0.025
T2C0.031
T3C0.032
T4C0.039
T5C0.040
T6C0.043
T7C0.046
T8C0.047
T9C0.071
T10C0.118
T11C0.138
%
G90
G05
M72
T1
X2.25Y-5.9375
X2.25Y-6.0125
X2.25Y-6.0875
X2.25Y-6.1625
X2.25Y-6.475
X2.25Y-6.55
X2.25Y-6.7
X2.2875Y-6.625
X2.3125Y-4.8
X2.3125Y-4.85
X2.3125Y-4.9
X2.3125Y-5.3625
X2.3125Y-5.4125
X2.3125Y-5.4625
X2.3375Y-5.0125
X2.3375Y-5.575
X2.375Y-4.9
X2.375Y-5.4625
X2.425Y-4.9
X2.425Y-5.0125
X2.425Y-5.4625
X2.425Y-5.825
X2.4375Y-6.0125
X2.4375Y-6.1625
X2.4375Y-6.55
X2.4375Y-6.7
X2.475Y-4.9
X2.475Y-5.4625
X2.5375Y-4.8
X2.5375Y-4.85
X2.5375Y-5.3625
X2.5375Y-5.4125
X2.5375Y-5.4625
X2.5625Y-6.025
X2.5625Y-6.5625
X2.6Y-5.1125
X2.6125Y-5.2625
X2.6125Y-5.3375
X2.6375Y-5.825
X2.6375Y-6.475
X2.6875Y-5.6
X2.7125Y-5.825
X2.7125Y-6.275
X2.7125Y-6.4125
X2.7125Y-6.475
X2.7125Y-6.925
X2.7625Y-6.2125
X2.7625Y-6.275
X2.7625Y-6.4125
X2.7625Y-6.85
X2.7625Y-6.925
X2.7875Y-5.825
X2.7875Y-6.0125
X2.7875Y-6.475
X2.7875Y-6.6625
X2.8125Y-5.3875
X2.8125Y-6.275
X2.8625Y-5.825
X2.8625Y-6.2
X2.8625Y-6.275
X2.8625Y-6.475
X2.8625Y-6.85
X3.025Y-5.1625
X3.025Y-5.2875
X3.05Y-6.15
X3.25Y-5.2
X3.25Y-6.125
X3.2625Y-3.925
X3.3Y-4.0875
X3.3125Y-5.3375
X3.3375Y-4.65
X3.425Y-5.075
X3.4375Y-5.2375
X3.4625Y-4.7625
X3.4625Y-5.575
X3.4875Y-4.475
X3.4875Y-4.55
X3.4875Y-4.6
X3.5Y-6.075
X3.5125Y-4.8375
X3.5375Y-5.25
X3.5375Y-5.5625
X3.5625Y-5.375
X3.5625Y-5.6375
X3.575Y-4.55
X3.575Y-4.6
X3.6Y-3.3125
X3.6Y-5.05
X3.6125Y-5.1
X3.6125Y-5.6375
X3.625Y-3.6
X3.6375Y-5.7875
X3.65Y-5.6625
X3.6625Y-5.175
X3.675Y-3.75
X3.6875Y-5.075
X3.6875Y-5.275
X3.6875Y-5.6875
X3.6875Y-5.7875
X3.7Y-6.4625
X3.7125Y-4.45
X3.725Y-4.7625
X3.725Y-4.925
X3.725Y-5.25
X3.7375Y-5.6875
X3.75Y-3.3
X3.75Y-3.875
X3.7625Y-5.225
X3.775Y-5.35
X3.775Y-5.5
X3.8Y-5.2
X3.8Y-5.3875
X3.8Y-5.5375
X3.8125Y-5.15
X3.825Y-5.675
X3.8375Y-4.925
X3.8375Y-5.1
X3.85Y-5.3875
X3.85Y-6.1625
X3.8625Y-5.6375
X3.875Y-3.475
X3.875Y-4.8375
X3.875Y-5.075
X3.8875Y-5.125
X3.9125Y-3.6
X3.925Y-5.5125
X3.9375Y-5.0375
X3.95Y-3.3625
X3.9997Y-3.3625
X4.Y-4.4875
X4.025Y-4.6125
X4.0375Y-4.5625
X4.05Y-3.3625
X4.05Y-6.125
X4.1Y-4.775
X4.125Y-3.5375
X4.1375Y-4.4125
X4.2Y-5.55
X4.2125Y-3.7875
X4.2125Y-3.975
X4.2125Y-4.125
X4.2125Y-4.3125
X4.2125Y-4.4625
X4.2125Y-4.6375
X4.2375Y-4.8375
X4.275Y-4.875
X4.2875Y-3.675
X4.3Y-6.075
X4.3Y-6.4625
X4.3125Y-4.8375
X4.325Y-5.475
X4.35Y-4.875
X4.3625Y-5.55
X4.375Y-3.8375
X4.3875Y-4.8375
X4.4125Y-3.6375
X4.4125Y-3.975
X4.425Y-4.875
X4.45Y-5.6875
X4.4625Y-4.8375
X4.5125Y-4.175
X4.5125Y-4.35
X4.5125Y-4.5125
X4.5125Y-4.675
X4.5125Y-4.825
X4.5625Y-5.725
X4.5625Y-6.4
X4.575Y-5.8875
X4.575Y-6.55
X4.5875Y-6.275
X4.65Y-3.825
X4.675Y-3.7875
X4.675Y-3.9
X4.675Y-3.975
X4.675Y-4.05
X4.675Y-4.125
X4.675Y-4.2375
X4.675Y-4.3125
X4.675Y-4.3875
X4.675Y-4.4625
X4.675Y-4.5625
X4.675Y-4.6375
X4.675Y-4.7125
X4.675Y-4.7875
X4.675Y-4.975
X4.7125Y-5.725
X4.7125Y-5.8875
X4.7125Y-6.4125
X4.7125Y-6.55
X4.725Y-3.6
X4.725Y-3.7
X4.725Y-3.9375
X4.725Y-4.0375
X4.725Y-4.275
X4.725Y-4.375
X4.725Y-4.6
X4.725Y-4.7
X4.75Y-6.1875
X4.75Y-6.8625
X4.8Y-4.925
X4.8Y-4.975
X4.8Y-5.025
X4.8Y-5.075
X4.8Y-5.125
X4.8Y-5.175
X4.8Y-5.225
X4.8Y-5.275
X4.8375Y-6.325
X4.8625Y-3.6
X4.8625Y-3.65
X4.8625Y-3.7
X4.8625Y-3.75
X4.8625Y-3.9375
X4.8625Y-3.9875
X4.8625Y-4.0375
X4.8625Y-4.0875
X4.8625Y-4.275
X4.8625Y-4.325
X4.8625Y-4.375
X4.8625Y-4.425
X4.8625Y-4.6
X4.8625Y-4.65
X4.8625Y-4.7
X4.8625Y-4.75
X4.8625Y-6.0875
X4.8625Y-6.1375
X4.9125Y-3.85
X4.95Y-6.2125
X4.95Y-6.2625
X4.95Y-6.3125
X4.95Y-6.3625
X4.95Y-6.4125
X4.95Y-6.5125
X4.95Y-6.5625
X4.95Y-6.6125
X4.9625Y-5.7875
X5.Y-6.2125
X5.Y-6.4125
X5.0375Y-5.675
X5.05Y-6.1
X5.05Y-6.4125
X5.075Y-5.85
X5.0875Y-6.6875
X5.1Y-6.1
X5.1125Y-5.7875
X5.125Y-6.5125
X5.125Y-6.5625
X5.125Y-6.6125
X5.15Y-5.075
X5.225Y-6.3625
X5.225Y-6.6875
X5.2625Y-5.3875
X5.2625Y-5.5875
X5.2625Y-5.7875
X5.2625Y-5.9875
X5.275Y-6.2
X5.3Y-5.1875
X5.3Y-6.3625
X5.3125Y-3.7
X5.3125Y-4.0375
X5.3125Y-4.375
X5.3125Y-4.7
X5.3125Y-6.0375
X5.325Y-6.6375
X5.35Y-6.2
X5.35Y-6.3625
X5.3832Y-5.9355
X5.3858Y-5.339
X5.3858Y-5.539
X5.3858Y-5.739
X5.425Y-6.2
X5.425Y-6.3625
X5.475Y-5.1875
X5.5Y-6.2
X5.5Y-6.3625
X5.5125Y-5.25
X5.5125Y-5.45
X5.5125Y-5.65
X5.5125Y-5.85
X5.5125Y-6.0125
X5.575Y-6.75
X5.6Y-5.1625
X5.6Y-5.3625
X5.6Y-5.5625
X5.6Y-5.7625
X5.6Y-5.9625
X5.6Y-6.075
X5.625Y-6.6375
X5.725Y-5.35
X5.725Y-5.75
X5.725Y-6.15
X5.725Y-6.55
X5.7625Y-5.25
X5.7625Y-5.5625
X5.7625Y-5.65
X5.7625Y-6.05
X5.7625Y-6.45
X5.8Y-5.15
X5.8Y-5.5375
X5.8Y-5.7625
X5.8Y-5.95
X5.8Y-6.35
X5.8375Y-5.05
X5.8375Y-5.45
X5.8375Y-5.85
X5.8375Y-6.25
T2
X3.6172Y-4.1
X3.9125Y-4.1
T3
X4.45Y-3.2375
X4.45Y-3.4375
X4.75Y-3.2375
X4.75Y-3.4375
X4.8375Y-3.2375
X4.8375Y-3.4375
X5.1375Y-3.2375
X5.1375Y-3.4375
T4
X5.425Y-6.95
X5.525Y-6.95
X5.625Y-6.95
T5
X4.9698Y-6.9481
X5.0698Y-6.9481
X5.1698Y-6.9481
X5.25Y-3.2375
X5.35Y-3.2375
X5.45Y-3.2375
X5.55Y-3.2375
X5.65Y-3.2375
X5.75Y-3.2375
T6
X5.8875Y-4.95
X5.8875Y-5.05
X5.8875Y-5.15
X5.8875Y-5.25
X5.8875Y-5.35
X5.8875Y-5.45
X5.8875Y-5.55
X5.8875Y-5.65
X5.8875Y-5.75
X5.8875Y-5.85
X5.8875Y-5.95
X5.8875Y-6.05
X5.8875Y-6.15
X5.8875Y-6.25
X5.8875Y-6.35
X5.8875Y-6.45
X5.8875Y-6.55
X5.9875Y-4.95
X5.9875Y-5.05
X5.9875Y-5.15
X5.9875Y-5.25
X5.9875Y-5.35
X5.9875Y-5.45
X5.9875Y-5.55
X5.9875Y-5.65
X5.9875Y-5.75
X5.9875Y-5.85
X5.9875Y-5.95
X5.9875Y-6.05
X5.9875Y-6.15
X5.9875Y-6.25
X5.9875Y-6.35
X5.9875Y-6.45
X5.9875Y-6.55
T7
X2.4621Y-4.4766
X2.4621Y-4.6734
X2.7371Y-3.2391
X2.7371Y-3.4359
X3.1629Y-4.4766
X3.1629Y-4.6734
X3.4379Y-3.2391
X3.4379Y-3.4359
T8
X3.Y-6.2375
X3.Y-6.8875
X3.1Y-6.2375
X3.1Y-6.8875
X3.2Y-6.2375
X3.2Y-6.8875
X3.3Y-6.2375
X3.3Y-6.8875
X3.4Y-6.2375
X3.4Y-6.8875
X3.5Y-6.2375
X3.5Y-6.8875
X3.6Y-6.2375
X3.6Y-6.8875
X3.7Y-6.2375
X3.7Y-6.8875
X3.8Y-6.2375
X3.8Y-6.8875
X3.9Y-6.2375
X3.9Y-6.8875
X4.Y-6.2375
X4.Y-6.8875
X4.1Y-6.2375
X4.1Y-6.8875
X4.2Y-6.2375
X4.2Y-6.8875
X4.3Y-6.2375
X4.3Y-6.8875
X4.4Y-6.2375
X4.4Y-6.8875
X4.5Y-6.2375
X4.5Y-6.8875
X4.575Y-5.575
X4.675Y-5.575
X4.775Y-5.575
X4.875Y-5.575
T9
X2.4818Y-3.5792
X2.4818Y-3.7958
X2.4818Y-4.0792
X2.4818Y-4.2958
X2.6471Y-3.5792
X2.6471Y-3.7958
X2.6471Y-4.0792
X2.6471Y-4.2958
X2.8125Y-3.5792
X2.8125Y-3.7958
X2.8125Y-4.0792
X2.8125Y-4.2958
X2.9779Y-3.5792
X2.9779Y-3.7958
X2.9779Y-4.0792
X2.9779Y-4.2958
X3.1432Y-3.5792
X3.1432Y-3.7958
X3.1432Y-4.0792
X3.1432Y-4.2958
X5.4355Y-3.6025
X5.4355Y-3.7679
X5.4355Y-3.9332
X5.4355Y-4.0986
X5.4355Y-4.2639
X5.4355Y-4.4293
X5.4355Y-4.5946
X5.4355Y-4.76
X5.652Y-3.6025
X5.652Y-3.7679
X5.652Y-3.9332
X5.652Y-4.0986
X5.652Y-4.2639
X5.652Y-4.4293
X5.652Y-4.5946
X5.652Y-4.76
T10
X2.2968Y-3.7777
X2.2968Y-4.2777
X3.3282Y-3.7777
X3.3282Y-4.2777
X5.6339Y-3.4175
X5.6339Y-4.945
T11
X2.375Y-3.325
X2.375Y-6.9
X5.95Y-3.325
X5.95Y-6.9
T0
M30
