%FSLAX46Y46*%
G04 Gerber Fmt 4.6, Leading zero omitted, Abs format (unit mm)*
G04 Created by KiCad (PCBNEW (2014-10-27 BZR 5228)-product) date 6/28/2015 5:24:40 PM*
%MOMM*%
G01*
G04 APERTURE LIST*
%ADD10C,0.100000*%
%ADD11R,1.300000X1.300000*%
%ADD12C,1.300000*%
%ADD13C,1.700000*%
%ADD14O,1.800860X3.500120*%
%ADD15R,1.727200X2.032000*%
%ADD16O,1.727200X2.032000*%
%ADD17C,2.700000*%
%ADD18C,3.300000*%
%ADD19O,1.501140X2.499360*%
%ADD20C,1.397000*%
%ADD21C,3.500000*%
%ADD22R,1.700000X1.700000*%
%ADD23C,0.889000*%
%ADD24C,0.254000*%
%ADD25C,0.203200*%
%ADD26C,0.203800*%
G04 APERTURE END LIST*
D10*
D11*
X99377500Y-104140000D03*
D12*
X91877500Y-104140000D03*
D13*
X62537500Y-113705000D03*
X62537500Y-118705000D03*
X80337500Y-118705000D03*
X80337500Y-113705000D03*
X69522500Y-82272500D03*
X69522500Y-87272500D03*
X87322500Y-87272500D03*
X87322500Y-82272500D03*
D14*
X116205000Y-141605000D03*
X118745000Y-141605000D03*
X121285000Y-141605000D03*
X123825000Y-141605000D03*
D15*
X131313679Y-176482250D03*
D16*
X128773679Y-176482250D03*
X126233679Y-176482250D03*
D17*
X71437500Y-90912500D03*
X71437500Y-96412500D03*
X75637500Y-90912500D03*
X75637500Y-96412500D03*
X79837500Y-90912500D03*
X79837500Y-96412500D03*
X67237500Y-96412500D03*
X67237500Y-90912500D03*
X63037500Y-96412500D03*
X63037500Y-90912500D03*
D18*
X84537500Y-95952500D03*
X58337500Y-95952500D03*
D17*
X71437500Y-103612500D03*
X71437500Y-109112500D03*
X75637500Y-103612500D03*
X75637500Y-109112500D03*
X79837500Y-103612500D03*
X79837500Y-109112500D03*
X67237500Y-109112500D03*
X67237500Y-103612500D03*
X63037500Y-109112500D03*
X63037500Y-103612500D03*
D18*
X84537500Y-108652500D03*
X58337500Y-108652500D03*
D17*
X138061250Y-112503750D03*
X143561250Y-112503750D03*
X138061250Y-108303750D03*
X143561250Y-108303750D03*
X138061250Y-104103750D03*
X143561250Y-104103750D03*
X143561250Y-116703750D03*
X138061250Y-116703750D03*
X143561250Y-120903750D03*
X138061250Y-120903750D03*
D18*
X143101250Y-86803750D03*
X143101250Y-125603750D03*
D17*
X138061250Y-99903750D03*
X143561250Y-99903750D03*
X138061250Y-95703750D03*
X143561250Y-95703750D03*
X143561250Y-91503750D03*
X138061250Y-91503750D03*
D14*
X76200000Y-158432500D03*
X78740000Y-158432500D03*
X81280000Y-158432500D03*
X83820000Y-158432500D03*
X86360000Y-158432500D03*
X88900000Y-158432500D03*
X91440000Y-158432500D03*
X93980000Y-158432500D03*
X96520000Y-158432500D03*
X99060000Y-158432500D03*
X101600000Y-158432500D03*
X104140000Y-158432500D03*
X106680000Y-158432500D03*
X109220000Y-158432500D03*
X111760000Y-158432500D03*
X114300000Y-158432500D03*
X76200000Y-174942500D03*
X78740000Y-174942500D03*
X81280000Y-174942500D03*
X83820000Y-174942500D03*
X86360000Y-174942500D03*
X88900000Y-174942500D03*
X91440000Y-174942500D03*
X93980000Y-174942500D03*
X96520000Y-174942500D03*
X99060000Y-174942500D03*
X101600000Y-174942500D03*
X104140000Y-174942500D03*
X106680000Y-174942500D03*
X109220000Y-174942500D03*
X111760000Y-174942500D03*
X114300000Y-174942500D03*
D15*
X133350000Y-82232500D03*
D16*
X135890000Y-82232500D03*
X138430000Y-82232500D03*
X140970000Y-82232500D03*
X143510000Y-82232500D03*
X146050000Y-82232500D03*
D19*
X140335000Y-176530000D03*
X142875000Y-176530000D03*
X137795000Y-176530000D03*
D20*
X130492500Y-82232500D03*
X130492500Y-87312500D03*
X122872500Y-82232500D03*
X122872500Y-87312500D03*
X120650000Y-82232500D03*
X120650000Y-87312500D03*
X113030000Y-82232500D03*
X113030000Y-87312500D03*
D21*
X60325000Y-84455000D03*
D22*
X152082500Y-166370000D03*
D13*
X149542500Y-166370000D03*
X152082500Y-163830000D03*
X149542500Y-163830000D03*
X152082500Y-161290000D03*
X149542500Y-161290000D03*
X152082500Y-158750000D03*
X149542500Y-158750000D03*
X152082500Y-156210000D03*
X149542500Y-156210000D03*
X152082500Y-153670000D03*
X149542500Y-153670000D03*
X152082500Y-151130000D03*
X149542500Y-151130000D03*
X152082500Y-148590000D03*
X149542500Y-148590000D03*
X152082500Y-146050000D03*
X149542500Y-146050000D03*
X152082500Y-143510000D03*
X149542500Y-143510000D03*
X152082500Y-140970000D03*
X149542500Y-140970000D03*
X152082500Y-138430000D03*
X149542500Y-138430000D03*
X152082500Y-135890000D03*
X149542500Y-135890000D03*
X152082500Y-133350000D03*
X149542500Y-133350000D03*
X152082500Y-130810000D03*
X149542500Y-130810000D03*
X152082500Y-128270000D03*
X149542500Y-128270000D03*
X152082500Y-125730000D03*
X149542500Y-125730000D03*
D23*
X121920000Y-125095000D03*
X98742500Y-130175000D03*
X97472500Y-129540000D03*
X121920000Y-126365000D03*
X96837500Y-130810000D03*
X121920000Y-127635000D03*
X96520000Y-132080000D03*
X121920000Y-128905000D03*
X95567500Y-132715000D03*
X121920000Y-130175000D03*
X94615000Y-133350000D03*
X121920000Y-131445000D03*
X93662500Y-133985000D03*
X121920000Y-132715000D03*
X93027500Y-131445000D03*
X121920000Y-133985000D03*
X127000000Y-157797500D03*
X125730000Y-159067500D03*
X125730000Y-160337500D03*
X125730000Y-157797500D03*
X127000000Y-162877500D03*
X125730000Y-161607500D03*
X125730000Y-162877500D03*
X128270000Y-162877500D03*
X120650000Y-174307500D03*
X70802500Y-147955000D03*
X66992500Y-147955000D03*
X70802500Y-164465000D03*
X66992500Y-164465000D03*
X120650000Y-157162500D03*
X116522500Y-159385000D03*
X59372500Y-127317500D03*
X64452500Y-137477500D03*
X61595000Y-138747500D03*
X62865000Y-138747500D03*
X64452500Y-138747500D03*
X64452500Y-136207500D03*
X58737500Y-137477500D03*
X60325000Y-138747500D03*
X58737500Y-138747500D03*
X58737500Y-136207500D03*
X142875000Y-168592500D03*
X98425000Y-88265000D03*
X120015000Y-116840000D03*
X120015000Y-119380000D03*
X120015000Y-111125000D03*
X120015000Y-108585000D03*
X120015000Y-93980000D03*
X120015000Y-100012500D03*
X120015000Y-102552500D03*
X123507500Y-91440000D03*
X123507500Y-92710000D03*
X123507500Y-93980000D03*
X123507500Y-95250000D03*
X123507500Y-100012500D03*
X123507500Y-101282500D03*
X123507500Y-102552500D03*
X123507500Y-103822500D03*
X123507500Y-108585000D03*
X123507500Y-109855000D03*
X123507500Y-111125000D03*
X123507500Y-112395000D03*
X123507500Y-116840000D03*
X123507500Y-118110000D03*
X123507500Y-119380000D03*
X123507500Y-120650000D03*
X125730000Y-166687500D03*
X125730000Y-165417500D03*
X125730000Y-167957500D03*
X130175000Y-166687500D03*
X130175000Y-167957500D03*
X130175000Y-165417500D03*
X115887500Y-162560000D03*
X119697500Y-162877500D03*
X116205000Y-166370000D03*
X119697500Y-166370000D03*
X90487500Y-136525000D03*
X99377500Y-91440000D03*
X134620000Y-131762500D03*
X71437500Y-136842500D03*
X134620000Y-161607500D03*
X129857500Y-147002500D03*
X130810000Y-128905000D03*
X119697500Y-145415000D03*
X115887500Y-145415000D03*
X68262500Y-142240000D03*
X68897500Y-147955000D03*
X82867500Y-99695000D03*
X104775000Y-89852500D03*
X61595000Y-147955000D03*
X92075000Y-91440000D03*
X95250000Y-83820000D03*
X72707500Y-147955000D03*
X102235000Y-117157500D03*
X98425000Y-128905000D03*
X90805000Y-116840000D03*
X84772500Y-118110000D03*
X91440000Y-128270000D03*
X97790000Y-136842500D03*
X136799518Y-135611010D03*
X136799518Y-140691010D03*
X136799518Y-145771010D03*
X136732670Y-150762081D03*
X68897500Y-164465000D03*
X72707500Y-164465000D03*
X76835000Y-131127500D03*
X76835000Y-134302500D03*
X119697500Y-149542500D03*
X116205000Y-149542500D03*
X61912500Y-152717500D03*
X61912500Y-156527500D03*
X72707500Y-157480000D03*
X70167500Y-157797500D03*
X72707500Y-173990000D03*
X70167500Y-173990000D03*
X61912500Y-166370000D03*
X61912500Y-170180000D03*
X112077500Y-92392500D03*
X111125000Y-97472500D03*
X118745000Y-100965000D03*
X112077500Y-100965000D03*
X114617500Y-106045000D03*
X118745000Y-109537500D03*
X118745000Y-113347500D03*
X114617500Y-110490000D03*
X114617500Y-114617500D03*
X118745000Y-117792500D03*
X114617500Y-118745000D03*
X118745000Y-121602500D03*
X120015000Y-91440000D03*
X118745000Y-104775000D03*
X118110000Y-97155000D03*
X114617500Y-122555000D03*
X129540000Y-154940000D03*
X128270000Y-154940000D03*
X128905000Y-148590000D03*
X139065000Y-131762500D03*
X140017500Y-133350000D03*
X140017500Y-138430000D03*
X140017500Y-143510000D03*
X140017500Y-148590000D03*
X134937500Y-93980000D03*
X134937500Y-102552500D03*
X134937500Y-111125000D03*
X134937500Y-119380000D03*
X118745000Y-99060000D03*
X118745000Y-107632500D03*
X118745000Y-111442500D03*
X118745000Y-115887500D03*
X118745000Y-119697500D03*
X124777500Y-97790000D03*
X118745000Y-102870000D03*
X118745000Y-96202500D03*
X66357500Y-133667500D03*
X90805000Y-115570000D03*
X59372500Y-141605000D03*
X89852500Y-133350000D03*
X93345000Y-95250000D03*
X87312500Y-133032500D03*
X95250000Y-98425000D03*
X97790000Y-156527500D03*
X77470000Y-156210000D03*
X88900000Y-154305000D03*
X109220000Y-154305000D03*
X122872500Y-160655000D03*
X102870000Y-155575000D03*
X82550000Y-155575000D03*
X93980000Y-164147500D03*
X109220000Y-164147500D03*
X100330000Y-85407500D03*
X102870000Y-85407500D03*
X101592000Y-85407500D03*
X66040000Y-129857500D03*
X91757500Y-129540000D03*
X110807500Y-140970000D03*
X94615000Y-125095000D03*
X109855000Y-139065000D03*
X88582500Y-116840000D03*
X88582500Y-115570000D03*
X71437500Y-159385000D03*
X72707500Y-159385000D03*
X70167500Y-159385000D03*
X68897500Y-159385000D03*
X68897500Y-162877500D03*
X70167500Y-162877500D03*
X70167500Y-175895000D03*
X68897500Y-175895000D03*
X145415000Y-166370000D03*
X145415000Y-156210000D03*
X145415000Y-135890000D03*
X145415000Y-146050000D03*
X146367500Y-163830000D03*
X146367500Y-153670000D03*
X146367500Y-133350000D03*
X146367500Y-143510000D03*
X146367500Y-141287500D03*
X147320000Y-161290000D03*
X147320000Y-130810000D03*
X147320000Y-151130000D03*
X147320000Y-140652500D03*
X147320000Y-146367500D03*
X148272500Y-158750000D03*
X148272500Y-128270000D03*
X148272500Y-138430000D03*
X148272500Y-148590000D03*
X104140000Y-121285000D03*
X108902500Y-93345000D03*
X113347500Y-122872500D03*
X106997500Y-117792500D03*
X107632500Y-122872500D03*
X112395000Y-123825000D03*
X106997500Y-96202500D03*
X106997500Y-113347500D03*
X108585000Y-123825000D03*
X106997500Y-100965000D03*
X111442500Y-122872500D03*
X106997500Y-109537500D03*
X109537500Y-122872500D03*
X106997500Y-104775000D03*
X110490000Y-123825000D03*
X123507500Y-154622500D03*
X92392500Y-147002500D03*
X123507500Y-155892500D03*
X93662500Y-147002500D03*
X87947500Y-141605000D03*
X94932500Y-144462500D03*
X70802500Y-152717500D03*
X65087500Y-153035000D03*
X70802500Y-169227500D03*
X65087500Y-166687500D03*
X57150000Y-152717500D03*
X90487500Y-143192500D03*
X57150000Y-156527500D03*
X91757500Y-143192500D03*
X57150000Y-166370000D03*
X92710000Y-143827500D03*
X57150000Y-170180000D03*
X93662500Y-144462500D03*
X139700000Y-157480000D03*
X139700000Y-161607500D03*
X137795000Y-157480000D03*
X137795000Y-161607500D03*
X142240000Y-151447500D03*
X142240000Y-154305000D03*
X133667500Y-136842500D03*
X95885000Y-135890000D03*
X135890000Y-157480000D03*
X135890000Y-161607500D03*
X140017500Y-152717500D03*
X142240000Y-141287500D03*
X142240000Y-146367500D03*
X133667500Y-141922500D03*
X96520000Y-136842500D03*
X133985000Y-157480000D03*
X135255000Y-168592500D03*
X134937500Y-153352500D03*
X142240000Y-136207500D03*
X142240000Y-131127500D03*
X95885000Y-139700000D03*
X133667500Y-147002500D03*
X133667500Y-152082500D03*
X96520000Y-140652500D03*
X98425000Y-122872500D03*
X94615000Y-120967500D03*
X82550000Y-132080000D03*
X101600000Y-113982500D03*
X102552500Y-115887500D03*
X97155000Y-144145000D03*
X83820000Y-103822500D03*
X98107500Y-143192500D03*
X91440000Y-84137500D03*
X113030000Y-144462500D03*
X126047500Y-147002500D03*
X93662500Y-128905000D03*
X129222500Y-169862500D03*
X97472500Y-125095000D03*
X132715000Y-169862500D03*
X132715000Y-161607500D03*
X87947500Y-120967500D03*
X94297500Y-113030000D03*
X64452500Y-121920000D03*
X62865000Y-124460000D03*
X61595000Y-124460000D03*
X58737500Y-121920000D03*
X58737500Y-124460000D03*
X60325000Y-124460000D03*
X58737500Y-123190000D03*
X64452500Y-123190000D03*
X61595000Y-127317500D03*
X86995000Y-128905000D03*
X89217500Y-122872500D03*
X127952500Y-144145000D03*
X88582500Y-113665000D03*
X105092500Y-112077500D03*
X58102500Y-168275000D03*
X57150000Y-164465000D03*
X57150000Y-150812500D03*
X57150000Y-154622500D03*
X84137500Y-135572500D03*
X118745000Y-126365000D03*
X100012500Y-127952500D03*
X141605000Y-171450000D03*
X89852500Y-141287500D03*
X106680000Y-140970000D03*
X99695000Y-140017500D03*
X66357500Y-135572500D03*
D24*
X116205000Y-130492500D02*
X116205000Y-130492500D01*
X121602500Y-125095000D02*
X116205000Y-130492500D01*
X121920000Y-125095000D02*
X121602500Y-125095000D01*
X99060000Y-130492500D02*
X98742500Y-130175000D01*
X116205000Y-130492500D02*
X99060000Y-130492500D01*
X97472500Y-130175000D02*
X97472500Y-129540000D01*
X98425000Y-131127500D02*
X97472500Y-130175000D01*
X101600000Y-131127500D02*
X98425000Y-131127500D01*
X101600000Y-131127500D02*
X101600000Y-131127500D01*
X116522500Y-131127500D02*
X101600000Y-131127500D01*
X121285000Y-126365000D02*
X116522500Y-131127500D01*
X121920000Y-126365000D02*
X121285000Y-126365000D01*
X96837500Y-130810000D02*
X96837500Y-130810000D01*
X97790000Y-131762500D02*
X96837500Y-130810000D01*
X101511098Y-131762500D02*
X97790000Y-131762500D01*
X111671098Y-131762500D02*
X101511098Y-131762500D01*
X116840000Y-131762500D02*
X111671098Y-131762500D01*
X120967500Y-127635000D02*
X116840000Y-131762500D01*
X121920000Y-127635000D02*
X120967500Y-127635000D01*
X96837500Y-132397500D02*
X96520000Y-132080000D01*
X101282500Y-132397500D02*
X96837500Y-132397500D01*
X111442500Y-132397500D02*
X101282500Y-132397500D01*
X117157500Y-132397500D02*
X111442500Y-132397500D01*
X120650000Y-128905000D02*
X117157500Y-132397500D01*
X121920000Y-128905000D02*
X120650000Y-128905000D01*
X95885000Y-133032500D02*
X95567500Y-132715000D01*
X100965000Y-133032500D02*
X95885000Y-133032500D01*
X111125000Y-133032500D02*
X100965000Y-133032500D01*
X117475000Y-133032500D02*
X111125000Y-133032500D01*
X120332500Y-130175000D02*
X117475000Y-133032500D01*
X121920000Y-130175000D02*
X120332500Y-130175000D01*
X94932500Y-133667500D02*
X94615000Y-133350000D01*
X100647500Y-133667500D02*
X94932500Y-133667500D01*
X110807500Y-133667500D02*
X100647500Y-133667500D01*
X117792500Y-133667500D02*
X110807500Y-133667500D01*
X120015000Y-131445000D02*
X117792500Y-133667500D01*
X121920000Y-131445000D02*
X120015000Y-131445000D01*
X93980000Y-134302500D02*
X93662500Y-133985000D01*
X100330000Y-134302500D02*
X93980000Y-134302500D01*
X110490000Y-134302500D02*
X100330000Y-134302500D01*
X118110000Y-134302500D02*
X110490000Y-134302500D01*
X119697500Y-132715000D02*
X118110000Y-134302500D01*
X121920000Y-132715000D02*
X119697500Y-132715000D01*
X92710000Y-133667500D02*
X93027500Y-133350000D01*
X93027500Y-133350000D02*
X93027500Y-131445000D01*
X93027500Y-134937500D02*
X92710000Y-134620000D01*
X100012500Y-134937500D02*
X93027500Y-134937500D01*
X110172500Y-134937500D02*
X100012500Y-134937500D01*
X118427500Y-134937500D02*
X110172500Y-134937500D01*
X119380000Y-133985000D02*
X118427500Y-134937500D01*
X121920000Y-133985000D02*
X119380000Y-133985000D01*
X92710000Y-134620000D02*
X92710000Y-133667500D01*
X89852500Y-133032500D02*
X89852500Y-133350000D01*
X92075000Y-124142500D02*
X95885000Y-124142500D01*
X89852500Y-133032500D02*
X89852500Y-126365000D01*
X89852500Y-126365000D02*
X92075000Y-124142500D01*
X97472500Y-99377500D02*
X93345000Y-95250000D01*
X97472500Y-122555000D02*
X97472500Y-99377500D01*
X95885000Y-124142500D02*
X97472500Y-122555000D01*
X91757500Y-123507500D02*
X91757500Y-123507500D01*
X87312500Y-133032500D02*
X87312500Y-130175000D01*
X87312500Y-130175000D02*
X89217500Y-128270000D01*
X89217500Y-128270000D02*
X89217500Y-126047500D01*
X89217500Y-126047500D02*
X91757500Y-123507500D01*
X96837500Y-100012500D02*
X95250000Y-98425000D01*
X96837500Y-122237500D02*
X96837500Y-100012500D01*
X95567500Y-123507500D02*
X96837500Y-122237500D01*
X91757500Y-123507500D02*
X95567500Y-123507500D01*
X77470000Y-156210000D02*
X81597500Y-156210000D01*
X81915000Y-156527500D02*
X81597500Y-156210000D01*
X83185000Y-156527500D02*
X81915000Y-156527500D01*
X83502500Y-156210000D02*
X83185000Y-156527500D01*
X97472500Y-156210000D02*
X83502500Y-156210000D01*
X97472500Y-156210000D02*
X97790000Y-156527500D01*
X109220000Y-154305000D02*
X88900000Y-154305000D01*
X119697500Y-154305000D02*
X109220000Y-154305000D01*
X122872500Y-157480000D02*
X119697500Y-154305000D01*
X122872500Y-160655000D02*
X122872500Y-157480000D01*
X102870000Y-155575000D02*
X82550000Y-155575000D01*
X109220000Y-164147500D02*
X93980000Y-164147500D01*
X73660000Y-94615000D02*
X73660000Y-92710000D01*
X66040000Y-129857500D02*
X65405000Y-129222500D01*
X65405000Y-129222500D02*
X65405000Y-119062500D01*
X65405000Y-119062500D02*
X73660000Y-110807500D01*
X73660000Y-110807500D02*
X73660000Y-94615000D01*
X73660000Y-92710000D02*
X73660000Y-88582500D01*
X73660000Y-88582500D02*
X74970000Y-87272500D01*
X87322500Y-87272500D02*
X74970000Y-87272500D01*
X91757500Y-129857500D02*
X91757500Y-129540000D01*
X110172500Y-140970000D02*
X109220000Y-140017500D01*
X109220000Y-140017500D02*
X101917500Y-140017500D01*
X101917500Y-140017500D02*
X99695000Y-142240000D01*
X99695000Y-142240000D02*
X95885000Y-142240000D01*
X95885000Y-142240000D02*
X93027500Y-139382500D01*
X93027500Y-139382500D02*
X93027500Y-137795000D01*
X93027500Y-137795000D02*
X90805000Y-135572500D01*
X90805000Y-135572500D02*
X90805000Y-130810000D01*
X90805000Y-130810000D02*
X91757500Y-129857500D01*
X110807500Y-140970000D02*
X110172500Y-140970000D01*
X121285000Y-141605000D02*
X121285000Y-139700000D01*
X113982500Y-140970000D02*
X110807500Y-140970000D01*
X115570000Y-139382500D02*
X113982500Y-140970000D01*
X120967500Y-139382500D02*
X115570000Y-139382500D01*
X121285000Y-139700000D02*
X120967500Y-139382500D01*
X109855000Y-139065000D02*
X109537500Y-139382500D01*
X92710000Y-127000000D02*
X94615000Y-125095000D01*
X92710000Y-129857500D02*
X92710000Y-127000000D01*
X91440000Y-131127500D02*
X92710000Y-129857500D01*
X91440000Y-135572500D02*
X91440000Y-131127500D01*
X93662500Y-137795000D02*
X91440000Y-135572500D01*
X93662500Y-139065000D02*
X93662500Y-137795000D01*
X96202500Y-141605000D02*
X93662500Y-139065000D01*
X99377500Y-141605000D02*
X96202500Y-141605000D01*
X101600000Y-139382500D02*
X99377500Y-141605000D01*
X109537500Y-139382500D02*
X101600000Y-139382500D01*
D25*
X123825000Y-141605000D02*
X123825000Y-139700000D01*
X110807500Y-139065000D02*
X109855000Y-139065000D01*
X111760000Y-139065000D02*
X110807500Y-139065000D01*
X113982500Y-139065000D02*
X111760000Y-139065000D01*
X114300000Y-138747500D02*
X113982500Y-139065000D01*
X122872500Y-138747500D02*
X114300000Y-138747500D01*
X123825000Y-139700000D02*
X122872500Y-138747500D01*
D24*
X77787500Y-105662500D02*
X79837500Y-103612500D01*
X77787500Y-110490000D02*
X77787500Y-105662500D01*
X78740000Y-111442500D02*
X77787500Y-110490000D01*
X80962500Y-111442500D02*
X78740000Y-111442500D01*
X86360000Y-116840000D02*
X80962500Y-111442500D01*
X88582500Y-116840000D02*
X86360000Y-116840000D01*
X77787500Y-101562500D02*
X79837500Y-103612500D01*
X77787500Y-93027500D02*
X77787500Y-101562500D01*
X79837500Y-90977500D02*
X77787500Y-93027500D01*
X79837500Y-90912500D02*
X79837500Y-90977500D01*
X86295000Y-115570000D02*
X79837500Y-109112500D01*
X88582500Y-115570000D02*
X86295000Y-115570000D01*
X81915000Y-107035000D02*
X79837500Y-109112500D01*
X81915000Y-98425000D02*
X81915000Y-107035000D01*
X79902500Y-96412500D02*
X81915000Y-98425000D01*
X79837500Y-96412500D02*
X79902500Y-96412500D01*
X145415000Y-166370000D02*
X145415000Y-156210000D01*
X145415000Y-146050000D02*
X145415000Y-156210000D01*
X145415000Y-135890000D02*
X145415000Y-146050000D01*
X146367500Y-163830000D02*
X146367500Y-153670000D01*
X146367500Y-143510000D02*
X146367500Y-153670000D01*
X146367500Y-142240000D02*
X146367500Y-143510000D01*
X146367500Y-141287500D02*
X146367500Y-142240000D01*
X146367500Y-133350000D02*
X146367500Y-141287500D01*
X147320000Y-140652500D02*
X147320000Y-140652500D01*
X147320000Y-146367500D02*
X147320000Y-140652500D01*
X147320000Y-151130000D02*
X147320000Y-148272500D01*
X147320000Y-148272500D02*
X147320000Y-146367500D01*
X147320000Y-161290000D02*
X147320000Y-151130000D01*
X147320000Y-130810000D02*
X147320000Y-140652500D01*
X148272500Y-158750000D02*
X148272500Y-153352500D01*
X148272500Y-153352500D02*
X148272500Y-148590000D01*
X148272500Y-148590000D02*
X148272500Y-138430000D01*
X148272500Y-138430000D02*
X148272500Y-128270000D01*
X143510000Y-82232500D02*
X135890000Y-89852500D01*
X104140000Y-114935000D02*
X104140000Y-121285000D01*
X103822500Y-114617500D02*
X104140000Y-114935000D01*
X103822500Y-94932500D02*
X103822500Y-114617500D01*
X106997500Y-91757500D02*
X103822500Y-94932500D01*
X111442500Y-91757500D02*
X106997500Y-91757500D01*
X113347500Y-89852500D02*
X111442500Y-91757500D01*
X135890000Y-89852500D02*
X113347500Y-89852500D01*
X113347500Y-99060000D02*
X113347500Y-97790000D01*
X113347500Y-97790000D02*
X108902500Y-93345000D01*
X113347500Y-122872500D02*
X113347500Y-99060000D01*
X107632500Y-118427500D02*
X106997500Y-117792500D01*
X107632500Y-122872500D02*
X107632500Y-118427500D01*
X112395000Y-102552500D02*
X106997500Y-97155000D01*
X106997500Y-97155000D02*
X106997500Y-96202500D01*
X112395000Y-123825000D02*
X112395000Y-102552500D01*
X108585000Y-114935000D02*
X106997500Y-113347500D01*
X108585000Y-123825000D02*
X108585000Y-114935000D01*
X111442500Y-105410000D02*
X106997500Y-100965000D01*
X111442500Y-122872500D02*
X111442500Y-105410000D01*
X109537500Y-112077500D02*
X106997500Y-109537500D01*
X109537500Y-122872500D02*
X109537500Y-112077500D01*
X110490000Y-108267500D02*
X106997500Y-104775000D01*
X110490000Y-123825000D02*
X110490000Y-108267500D01*
X123507500Y-154622500D02*
X117792500Y-148907500D01*
X117792500Y-148907500D02*
X117792500Y-148272500D01*
X117792500Y-148272500D02*
X115887500Y-146367500D01*
X115887500Y-146367500D02*
X94297500Y-146367500D01*
X94297500Y-146367500D02*
X93980000Y-146050000D01*
X93980000Y-146050000D02*
X93345000Y-146050000D01*
X93345000Y-146050000D02*
X92392500Y-147002500D01*
X123507500Y-155892500D02*
X117157500Y-149542500D01*
X117157500Y-149542500D02*
X117157500Y-148590000D01*
X117157500Y-148590000D02*
X115570000Y-147002500D01*
X115570000Y-147002500D02*
X93662500Y-147002500D01*
X92710000Y-142240000D02*
X88582500Y-142240000D01*
X88582500Y-142240000D02*
X87947500Y-141605000D01*
X94932500Y-144462500D02*
X92710000Y-142240000D01*
X65405000Y-152717500D02*
X70802500Y-152717500D01*
X65087500Y-153035000D02*
X65405000Y-152717500D01*
X67627500Y-169227500D02*
X70802500Y-169227500D01*
X65087500Y-166687500D02*
X67627500Y-169227500D01*
X87630000Y-147637500D02*
X83502500Y-151765000D01*
X83502500Y-151765000D02*
X60642500Y-151765000D01*
X60642500Y-151765000D02*
X59690000Y-152717500D01*
X59690000Y-152717500D02*
X57150000Y-152717500D01*
X90487500Y-144780000D02*
X87630000Y-147637500D01*
X90487500Y-144462500D02*
X90487500Y-144780000D01*
X90487500Y-143192500D02*
X90487500Y-144462500D01*
X88265000Y-147955000D02*
X83820000Y-152400000D01*
X83820000Y-152400000D02*
X72707500Y-152400000D01*
X72707500Y-152400000D02*
X69532500Y-155575000D01*
X69532500Y-155575000D02*
X60642500Y-155575000D01*
X60642500Y-155575000D02*
X59690000Y-156527500D01*
X59690000Y-156527500D02*
X57150000Y-156527500D01*
X91757500Y-144462500D02*
X88265000Y-147955000D01*
X91757500Y-144145000D02*
X91757500Y-144462500D01*
X91757500Y-143192500D02*
X91757500Y-144145000D01*
X66675000Y-156210000D02*
X57150000Y-165735000D01*
X69850000Y-156210000D02*
X66675000Y-156210000D01*
X73025000Y-153035000D02*
X69850000Y-156210000D01*
X84137500Y-153035000D02*
X73025000Y-153035000D01*
X88900000Y-148272500D02*
X84137500Y-153035000D01*
X57150000Y-165735000D02*
X57150000Y-166370000D01*
X92710000Y-144462500D02*
X88900000Y-148272500D01*
X92710000Y-143827500D02*
X92710000Y-144462500D01*
X58102500Y-166687500D02*
X57150000Y-167640000D01*
X57150000Y-167640000D02*
X57150000Y-170180000D01*
X70485000Y-156527500D02*
X70167500Y-156845000D01*
X89535000Y-148590000D02*
X84455000Y-153670000D01*
X84455000Y-153670000D02*
X73342500Y-153670000D01*
X73342500Y-153670000D02*
X70485000Y-156527500D01*
X66992500Y-156845000D02*
X58102500Y-165735000D01*
X70167500Y-156845000D02*
X66992500Y-156845000D01*
X58102500Y-165735000D02*
X58102500Y-166687500D01*
X93662500Y-144462500D02*
X89535000Y-148590000D01*
X139700000Y-161607500D02*
X139700000Y-157480000D01*
X137795000Y-161607500D02*
X137795000Y-157480000D01*
X142240000Y-154305000D02*
X142240000Y-151447500D01*
X132397500Y-135572500D02*
X133667500Y-136842500D01*
X96202500Y-135572500D02*
X132397500Y-135572500D01*
X95885000Y-135890000D02*
X96202500Y-135572500D01*
X135890000Y-161607500D02*
X135890000Y-157480000D01*
X142240000Y-149542500D02*
X142240000Y-146367500D01*
X140017500Y-151765000D02*
X142240000Y-149542500D01*
X140017500Y-152717500D02*
X140017500Y-151765000D01*
X142240000Y-146367500D02*
X142240000Y-141287500D01*
X133667500Y-138112500D02*
X133667500Y-141922500D01*
X131762500Y-136207500D02*
X133667500Y-138112500D01*
X98425000Y-136207500D02*
X131762500Y-136207500D01*
X98196402Y-135978902D02*
X98425000Y-136207500D01*
X97383598Y-135978902D02*
X98196402Y-135978902D01*
X96520000Y-136842500D02*
X97383598Y-135978902D01*
X133667500Y-157797500D02*
X133985000Y-157480000D01*
X133667500Y-167005000D02*
X133667500Y-157797500D01*
X134302500Y-167640000D02*
X133667500Y-167005000D01*
X135255000Y-168592500D02*
X134302500Y-167640000D01*
X142240000Y-136207500D02*
X142240000Y-140017500D01*
X135572500Y-152717500D02*
X134937500Y-153352500D01*
X138112500Y-152717500D02*
X135572500Y-152717500D01*
X141287500Y-149542500D02*
X138112500Y-152717500D01*
X141287500Y-140970000D02*
X141287500Y-149542500D01*
X142240000Y-140017500D02*
X141287500Y-140970000D01*
X142240000Y-131127500D02*
X142240000Y-136207500D01*
X99060000Y-137477500D02*
X98425000Y-138112500D01*
X99060000Y-137477500D02*
X100330000Y-137477500D01*
X100330000Y-137477500D02*
X106362500Y-137477500D01*
X106362500Y-137477500D02*
X107632500Y-137477500D01*
X112395000Y-137477500D02*
X113982500Y-137477500D01*
X111125000Y-137477500D02*
X112395000Y-137477500D01*
X108902500Y-137477500D02*
X111125000Y-137477500D01*
X108267500Y-137477500D02*
X108902500Y-137477500D01*
X107632500Y-137477500D02*
X108267500Y-137477500D01*
X113982500Y-137477500D02*
X114617500Y-137477500D01*
X114617500Y-137477500D02*
X131445000Y-137477500D01*
X131445000Y-137477500D02*
X132080000Y-138112500D01*
X132080000Y-138112500D02*
X132080000Y-142240000D01*
X132080000Y-142240000D02*
X133667500Y-143827500D01*
X133667500Y-143827500D02*
X133667500Y-147002500D01*
X97155000Y-138430000D02*
X95885000Y-139700000D01*
X98107500Y-138430000D02*
X97155000Y-138430000D01*
X98425000Y-138112500D02*
X98107500Y-138430000D01*
X99060000Y-138112500D02*
X98425000Y-138747500D01*
X114935000Y-138112500D02*
X131127500Y-138112500D01*
X131127500Y-138112500D02*
X131445000Y-138430000D01*
X131445000Y-138430000D02*
X131445000Y-142557500D01*
X131445000Y-142557500D02*
X132715000Y-143827500D01*
X132715000Y-143827500D02*
X132715000Y-147320000D01*
X132715000Y-147320000D02*
X133667500Y-148272500D01*
X133667500Y-148272500D02*
X133667500Y-152082500D01*
X111760000Y-138112500D02*
X113982500Y-138112500D01*
X110807500Y-138112500D02*
X111760000Y-138112500D01*
X109220000Y-138112500D02*
X110807500Y-138112500D01*
X108585000Y-138112500D02*
X109220000Y-138112500D01*
X107315000Y-138112500D02*
X108585000Y-138112500D01*
X104775000Y-138112500D02*
X107315000Y-138112500D01*
X99060000Y-138112500D02*
X104775000Y-138112500D01*
X113982500Y-138112500D02*
X114935000Y-138112500D01*
X98425000Y-138747500D02*
X96520000Y-140652500D01*
X98425000Y-118745000D02*
X98425000Y-122872500D01*
X101600000Y-115570000D02*
X98425000Y-118745000D01*
X101600000Y-113982500D02*
X101600000Y-115570000D01*
X89852500Y-120967500D02*
X94615000Y-120967500D01*
X82550000Y-128270000D02*
X89852500Y-120967500D01*
X82550000Y-128270000D02*
X82550000Y-128270000D01*
X82550000Y-132080000D02*
X82550000Y-131445000D01*
X82550000Y-131445000D02*
X82550000Y-128270000D01*
X106045000Y-89852500D02*
X101600000Y-94297500D01*
X101600000Y-94297500D02*
X101600000Y-113982500D01*
X113030000Y-87312500D02*
X110490000Y-89852500D01*
X110490000Y-89852500D02*
X106045000Y-89852500D01*
X120650000Y-87312500D02*
X113030000Y-87312500D01*
X107950000Y-90487500D02*
X106362500Y-90487500D01*
X102552500Y-94297500D02*
X102552500Y-95885000D01*
X106362500Y-90487500D02*
X102552500Y-94297500D01*
X122872500Y-87312500D02*
X121602500Y-88582500D01*
X102552500Y-95885000D02*
X102552500Y-115887500D01*
X110807500Y-90487500D02*
X107950000Y-90487500D01*
X112712500Y-88582500D02*
X110807500Y-90487500D01*
X121602500Y-88582500D02*
X112712500Y-88582500D01*
X130492500Y-87312500D02*
X122872500Y-87312500D01*
X90805000Y-122555000D02*
X91440000Y-121920000D01*
X95250000Y-143192500D02*
X94615000Y-143192500D01*
X96202500Y-144145000D02*
X95250000Y-143192500D01*
X97155000Y-144145000D02*
X96202500Y-144145000D01*
X94615000Y-143192500D02*
X93027500Y-141605000D01*
X93027500Y-141605000D02*
X91757500Y-140335000D01*
X91757500Y-140335000D02*
X87312500Y-140335000D01*
X87312500Y-140335000D02*
X85407500Y-138430000D01*
X85407500Y-138430000D02*
X85407500Y-127952500D01*
X85407500Y-127952500D02*
X90805000Y-122555000D01*
X94932500Y-121920000D02*
X95567500Y-121285000D01*
X91440000Y-121920000D02*
X94932500Y-121920000D01*
X88265000Y-103822500D02*
X83820000Y-103822500D01*
X95567500Y-111125000D02*
X88265000Y-103822500D01*
X95567500Y-121285000D02*
X95567500Y-111125000D01*
X86042500Y-128587500D02*
X86042500Y-128270000D01*
X86042500Y-138112500D02*
X86042500Y-128905000D01*
X86042500Y-128905000D02*
X86042500Y-128587500D01*
X87630000Y-139700000D02*
X86677500Y-138747500D01*
X92392500Y-139700000D02*
X87630000Y-139700000D01*
X95567500Y-142875000D02*
X92392500Y-139700000D01*
X96520000Y-142875000D02*
X95567500Y-142875000D01*
X96837500Y-143192500D02*
X96520000Y-142875000D01*
X98107500Y-143192500D02*
X96837500Y-143192500D01*
X86677500Y-138747500D02*
X86042500Y-138112500D01*
X91122500Y-84455000D02*
X91440000Y-84137500D01*
X91122500Y-95885000D02*
X91122500Y-84455000D01*
X96202500Y-100965000D02*
X91122500Y-95885000D01*
X96202500Y-121602500D02*
X96202500Y-100965000D01*
X95250000Y-122555000D02*
X96202500Y-121602500D01*
X91757500Y-122555000D02*
X95250000Y-122555000D01*
X86042500Y-128270000D02*
X91757500Y-122555000D01*
X113030000Y-144462500D02*
X113982500Y-144462500D01*
X113982500Y-144462500D02*
X123507500Y-144462500D01*
X123507500Y-144462500D02*
X126047500Y-147002500D01*
X106997500Y-136842500D02*
X131445000Y-136842500D01*
X98107500Y-137795000D02*
X99060000Y-136842500D01*
X99060000Y-136842500D02*
X106997500Y-136842500D01*
X94615000Y-137795000D02*
X96837500Y-137795000D01*
X92075000Y-134937500D02*
X94615000Y-137795000D01*
X92075000Y-131127500D02*
X92075000Y-134937500D01*
X92710000Y-130492500D02*
X92075000Y-131127500D01*
X93662500Y-129540000D02*
X92710000Y-130492500D01*
X93662500Y-128905000D02*
X93662500Y-129540000D01*
X96837500Y-137795000D02*
X98107500Y-137795000D01*
X129222500Y-157797500D02*
X129222500Y-169862500D01*
X133985000Y-153035000D02*
X129222500Y-157797500D01*
X133985000Y-153035000D02*
X133985000Y-153035000D01*
X134620000Y-152400000D02*
X133985000Y-153035000D01*
X134620000Y-144145000D02*
X134620000Y-152400000D01*
X132715000Y-142240000D02*
X134620000Y-144145000D01*
X132715000Y-138112500D02*
X132715000Y-142240000D01*
X131445000Y-136842500D02*
X132715000Y-138112500D01*
X108267500Y-91122500D02*
X106680000Y-91122500D01*
X133985000Y-89217500D02*
X113030000Y-89217500D01*
X113030000Y-89217500D02*
X111125000Y-91122500D01*
X111125000Y-91122500D02*
X108267500Y-91122500D01*
X140970000Y-82232500D02*
X133985000Y-89217500D01*
X103505000Y-119062500D02*
X97472500Y-125095000D01*
X103505000Y-115252500D02*
X103505000Y-119062500D01*
X103187500Y-114935000D02*
X103505000Y-115252500D01*
X103187500Y-94615000D02*
X103187500Y-114935000D01*
X106680000Y-91122500D02*
X103187500Y-94615000D01*
X132715000Y-161607500D02*
X132715000Y-169862500D01*
X87947500Y-120967500D02*
X87947500Y-120967500D01*
X94297500Y-113030000D02*
X93345000Y-113982500D01*
X93345000Y-113982500D02*
X93345000Y-115570000D01*
X93345000Y-115570000D02*
X87947500Y-120967500D01*
X87947500Y-120967500D02*
X87947500Y-120967500D01*
D26*
G36*
X71970600Y-88480600D02*
X70997805Y-88480600D01*
X70997805Y-87470268D01*
X70997805Y-82470268D01*
X70961186Y-81890639D01*
X70809821Y-81525212D01*
X70568622Y-81441480D01*
X70353520Y-81656582D01*
X70353520Y-81226378D01*
X70269788Y-80985179D01*
X69720268Y-80797195D01*
X69140639Y-80833814D01*
X68775212Y-80985179D01*
X68691480Y-81226378D01*
X69522500Y-82057398D01*
X70353520Y-81226378D01*
X70353520Y-81656582D01*
X69737602Y-82272500D01*
X70568622Y-83103520D01*
X70809821Y-83019788D01*
X70997805Y-82470268D01*
X70997805Y-87470268D01*
X70961186Y-86890639D01*
X70809821Y-86525212D01*
X70568622Y-86441480D01*
X70353520Y-86656582D01*
X70353520Y-86226378D01*
X70353520Y-83318622D01*
X69522500Y-82487602D01*
X69307398Y-82702704D01*
X69307398Y-82272500D01*
X68476378Y-81441480D01*
X68235179Y-81525212D01*
X68047195Y-82074732D01*
X68083814Y-82654361D01*
X68235179Y-83019788D01*
X68476378Y-83103520D01*
X69307398Y-82272500D01*
X69307398Y-82702704D01*
X68691480Y-83318622D01*
X68775212Y-83559821D01*
X69324732Y-83747805D01*
X69904361Y-83711186D01*
X70269788Y-83559821D01*
X70353520Y-83318622D01*
X70353520Y-86226378D01*
X70269788Y-85985179D01*
X69720268Y-85797195D01*
X69140639Y-85833814D01*
X68775212Y-85985179D01*
X68691480Y-86226378D01*
X69522500Y-87057398D01*
X70353520Y-86226378D01*
X70353520Y-86656582D01*
X69737602Y-87272500D01*
X70568622Y-88103520D01*
X70809821Y-88019788D01*
X70997805Y-87470268D01*
X70997805Y-88480600D01*
X70297289Y-88480600D01*
X70353520Y-88318622D01*
X69522500Y-87487602D01*
X69307398Y-87702704D01*
X69307398Y-87272500D01*
X68476378Y-86441480D01*
X68235179Y-86525212D01*
X68047195Y-87074732D01*
X68083814Y-87654361D01*
X68235179Y-88019788D01*
X68476378Y-88103520D01*
X69307398Y-87272500D01*
X69307398Y-87702704D01*
X68691480Y-88318622D01*
X68747710Y-88480600D01*
X64985600Y-88480600D01*
X64985600Y-90556842D01*
X64981675Y-90450577D01*
X64738868Y-89864390D01*
X64445806Y-89719296D01*
X64230704Y-89934398D01*
X64230704Y-89504194D01*
X64177567Y-89396867D01*
X64177567Y-83692171D01*
X63592386Y-82275925D01*
X62509775Y-81191422D01*
X61094552Y-80603770D01*
X59562171Y-80602433D01*
X58145925Y-81187614D01*
X57061422Y-82270225D01*
X56473770Y-83685448D01*
X56472433Y-85217829D01*
X57057614Y-86634075D01*
X58140225Y-87718578D01*
X59555448Y-88306230D01*
X61087829Y-88307567D01*
X62504075Y-87722386D01*
X63588578Y-86639775D01*
X64176230Y-85224552D01*
X64177567Y-83692171D01*
X64177567Y-89396867D01*
X64085610Y-89211132D01*
X63354742Y-88939546D01*
X62575577Y-88968325D01*
X61989390Y-89211132D01*
X61844296Y-89504194D01*
X63037500Y-90697398D01*
X64230704Y-89504194D01*
X64230704Y-89934398D01*
X63252602Y-90912500D01*
X64445806Y-92105704D01*
X64738868Y-91960610D01*
X64985600Y-91296626D01*
X64985600Y-96056842D01*
X64981675Y-95950577D01*
X64738868Y-95364390D01*
X64445806Y-95219296D01*
X64230704Y-95434398D01*
X64230704Y-95004194D01*
X64230704Y-92320806D01*
X63037500Y-91127602D01*
X62822398Y-91342704D01*
X62822398Y-90912500D01*
X61629194Y-89719296D01*
X61336132Y-89864390D01*
X61064546Y-90595258D01*
X61093325Y-91374423D01*
X61336132Y-91960610D01*
X61629194Y-92105704D01*
X62822398Y-90912500D01*
X62822398Y-91342704D01*
X61844296Y-92320806D01*
X61989390Y-92613868D01*
X62720258Y-92885454D01*
X63499423Y-92856675D01*
X64085610Y-92613868D01*
X64230704Y-92320806D01*
X64230704Y-95004194D01*
X64085610Y-94711132D01*
X63354742Y-94439546D01*
X62575577Y-94468325D01*
X61989390Y-94711132D01*
X61844296Y-95004194D01*
X63037500Y-96197398D01*
X64230704Y-95004194D01*
X64230704Y-95434398D01*
X63252602Y-96412500D01*
X64445806Y-97605704D01*
X64738868Y-97460610D01*
X64985600Y-96796626D01*
X64985600Y-103256842D01*
X64981675Y-103150577D01*
X64738868Y-102564390D01*
X64445806Y-102419296D01*
X64230704Y-102634398D01*
X64230704Y-102204194D01*
X64230704Y-97820806D01*
X63037500Y-96627602D01*
X62822398Y-96842704D01*
X62822398Y-96412500D01*
X61629194Y-95219296D01*
X61336132Y-95364390D01*
X61064546Y-96095258D01*
X61093325Y-96874423D01*
X61336132Y-97460610D01*
X61629194Y-97605704D01*
X62822398Y-96412500D01*
X62822398Y-96842704D01*
X61844296Y-97820806D01*
X61989390Y-98113868D01*
X62720258Y-98385454D01*
X63499423Y-98356675D01*
X64085610Y-98113868D01*
X64230704Y-97820806D01*
X64230704Y-102204194D01*
X64085610Y-101911132D01*
X63354742Y-101639546D01*
X62575577Y-101668325D01*
X61989390Y-101911132D01*
X61844296Y-102204194D01*
X63037500Y-103397398D01*
X64230704Y-102204194D01*
X64230704Y-102634398D01*
X63252602Y-103612500D01*
X64445806Y-104805704D01*
X64738868Y-104660610D01*
X64985600Y-103996626D01*
X64985600Y-108756842D01*
X64981675Y-108650577D01*
X64738868Y-108064390D01*
X64445806Y-107919296D01*
X64230704Y-108134398D01*
X64230704Y-107704194D01*
X64230704Y-105020806D01*
X63037500Y-103827602D01*
X62822398Y-104042704D01*
X62822398Y-103612500D01*
X61629194Y-102419296D01*
X61336132Y-102564390D01*
X61064546Y-103295258D01*
X61093325Y-104074423D01*
X61336132Y-104660610D01*
X61629194Y-104805704D01*
X62822398Y-103612500D01*
X62822398Y-104042704D01*
X61844296Y-105020806D01*
X61989390Y-105313868D01*
X62720258Y-105585454D01*
X63499423Y-105556675D01*
X64085610Y-105313868D01*
X64230704Y-105020806D01*
X64230704Y-107704194D01*
X64085610Y-107411132D01*
X63354742Y-107139546D01*
X62575577Y-107168325D01*
X61989390Y-107411132D01*
X61844296Y-107704194D01*
X63037500Y-108897398D01*
X64230704Y-107704194D01*
X64230704Y-108134398D01*
X63252602Y-109112500D01*
X64445806Y-110305704D01*
X64738868Y-110160610D01*
X64985600Y-109496626D01*
X64985600Y-111340600D01*
X64230704Y-111340600D01*
X64230704Y-110520806D01*
X63037500Y-109327602D01*
X62822398Y-109542704D01*
X62822398Y-109112500D01*
X61629194Y-107919296D01*
X61336132Y-108064390D01*
X61064546Y-108795258D01*
X61093325Y-109574423D01*
X61336132Y-110160610D01*
X61629194Y-110305704D01*
X62822398Y-109112500D01*
X62822398Y-109542704D01*
X61844296Y-110520806D01*
X61989390Y-110813868D01*
X62720258Y-111085454D01*
X63499423Y-111056675D01*
X64085610Y-110813868D01*
X64230704Y-110520806D01*
X64230704Y-111340600D01*
X60343748Y-111340600D01*
X60343748Y-108255252D01*
X60343748Y-95555252D01*
X60039011Y-94817733D01*
X59475235Y-94252972D01*
X58738249Y-93946949D01*
X57940252Y-93946252D01*
X57202733Y-94250989D01*
X56637972Y-94814765D01*
X56331949Y-95551751D01*
X56331252Y-96349748D01*
X56635989Y-97087267D01*
X57199765Y-97652028D01*
X57936751Y-97958051D01*
X58734748Y-97958748D01*
X59472267Y-97654011D01*
X60037028Y-97090235D01*
X60343051Y-96353249D01*
X60343748Y-95555252D01*
X60343748Y-108255252D01*
X60039011Y-107517733D01*
X59475235Y-106952972D01*
X58738249Y-106646949D01*
X57940252Y-106646252D01*
X57202733Y-106950989D01*
X56637972Y-107514765D01*
X56331949Y-108251751D01*
X56331252Y-109049748D01*
X56635989Y-109787267D01*
X57199765Y-110352028D01*
X57936751Y-110658051D01*
X58734748Y-110658748D01*
X59472267Y-110354011D01*
X60037028Y-109790235D01*
X60343051Y-109053249D01*
X60343748Y-108255252D01*
X60343748Y-111340600D01*
X56285900Y-111340600D01*
X56285900Y-80415900D01*
X71970600Y-80415900D01*
X71970600Y-80962500D01*
X71970600Y-88480600D01*
X71970600Y-88480600D01*
G37*
X71970600Y-88480600D02*
X70997805Y-88480600D01*
X70997805Y-87470268D01*
X70997805Y-82470268D01*
X70961186Y-81890639D01*
X70809821Y-81525212D01*
X70568622Y-81441480D01*
X70353520Y-81656582D01*
X70353520Y-81226378D01*
X70269788Y-80985179D01*
X69720268Y-80797195D01*
X69140639Y-80833814D01*
X68775212Y-80985179D01*
X68691480Y-81226378D01*
X69522500Y-82057398D01*
X70353520Y-81226378D01*
X70353520Y-81656582D01*
X69737602Y-82272500D01*
X70568622Y-83103520D01*
X70809821Y-83019788D01*
X70997805Y-82470268D01*
X70997805Y-87470268D01*
X70961186Y-86890639D01*
X70809821Y-86525212D01*
X70568622Y-86441480D01*
X70353520Y-86656582D01*
X70353520Y-86226378D01*
X70353520Y-83318622D01*
X69522500Y-82487602D01*
X69307398Y-82702704D01*
X69307398Y-82272500D01*
X68476378Y-81441480D01*
X68235179Y-81525212D01*
X68047195Y-82074732D01*
X68083814Y-82654361D01*
X68235179Y-83019788D01*
X68476378Y-83103520D01*
X69307398Y-82272500D01*
X69307398Y-82702704D01*
X68691480Y-83318622D01*
X68775212Y-83559821D01*
X69324732Y-83747805D01*
X69904361Y-83711186D01*
X70269788Y-83559821D01*
X70353520Y-83318622D01*
X70353520Y-86226378D01*
X70269788Y-85985179D01*
X69720268Y-85797195D01*
X69140639Y-85833814D01*
X68775212Y-85985179D01*
X68691480Y-86226378D01*
X69522500Y-87057398D01*
X70353520Y-86226378D01*
X70353520Y-86656582D01*
X69737602Y-87272500D01*
X70568622Y-88103520D01*
X70809821Y-88019788D01*
X70997805Y-87470268D01*
X70997805Y-88480600D01*
X70297289Y-88480600D01*
X70353520Y-88318622D01*
X69522500Y-87487602D01*
X69307398Y-87702704D01*
X69307398Y-87272500D01*
X68476378Y-86441480D01*
X68235179Y-86525212D01*
X68047195Y-87074732D01*
X68083814Y-87654361D01*
X68235179Y-88019788D01*
X68476378Y-88103520D01*
X69307398Y-87272500D01*
X69307398Y-87702704D01*
X68691480Y-88318622D01*
X68747710Y-88480600D01*
X64985600Y-88480600D01*
X64985600Y-90556842D01*
X64981675Y-90450577D01*
X64738868Y-89864390D01*
X64445806Y-89719296D01*
X64230704Y-89934398D01*
X64230704Y-89504194D01*
X64177567Y-89396867D01*
X64177567Y-83692171D01*
X63592386Y-82275925D01*
X62509775Y-81191422D01*
X61094552Y-80603770D01*
X59562171Y-80602433D01*
X58145925Y-81187614D01*
X57061422Y-82270225D01*
X56473770Y-83685448D01*
X56472433Y-85217829D01*
X57057614Y-86634075D01*
X58140225Y-87718578D01*
X59555448Y-88306230D01*
X61087829Y-88307567D01*
X62504075Y-87722386D01*
X63588578Y-86639775D01*
X64176230Y-85224552D01*
X64177567Y-83692171D01*
X64177567Y-89396867D01*
X64085610Y-89211132D01*
X63354742Y-88939546D01*
X62575577Y-88968325D01*
X61989390Y-89211132D01*
X61844296Y-89504194D01*
X63037500Y-90697398D01*
X64230704Y-89504194D01*
X64230704Y-89934398D01*
X63252602Y-90912500D01*
X64445806Y-92105704D01*
X64738868Y-91960610D01*
X64985600Y-91296626D01*
X64985600Y-96056842D01*
X64981675Y-95950577D01*
X64738868Y-95364390D01*
X64445806Y-95219296D01*
X64230704Y-95434398D01*
X64230704Y-95004194D01*
X64230704Y-92320806D01*
X63037500Y-91127602D01*
X62822398Y-91342704D01*
X62822398Y-90912500D01*
X61629194Y-89719296D01*
X61336132Y-89864390D01*
X61064546Y-90595258D01*
X61093325Y-91374423D01*
X61336132Y-91960610D01*
X61629194Y-92105704D01*
X62822398Y-90912500D01*
X62822398Y-91342704D01*
X61844296Y-92320806D01*
X61989390Y-92613868D01*
X62720258Y-92885454D01*
X63499423Y-92856675D01*
X64085610Y-92613868D01*
X64230704Y-92320806D01*
X64230704Y-95004194D01*
X64085610Y-94711132D01*
X63354742Y-94439546D01*
X62575577Y-94468325D01*
X61989390Y-94711132D01*
X61844296Y-95004194D01*
X63037500Y-96197398D01*
X64230704Y-95004194D01*
X64230704Y-95434398D01*
X63252602Y-96412500D01*
X64445806Y-97605704D01*
X64738868Y-97460610D01*
X64985600Y-96796626D01*
X64985600Y-103256842D01*
X64981675Y-103150577D01*
X64738868Y-102564390D01*
X64445806Y-102419296D01*
X64230704Y-102634398D01*
X64230704Y-102204194D01*
X64230704Y-97820806D01*
X63037500Y-96627602D01*
X62822398Y-96842704D01*
X62822398Y-96412500D01*
X61629194Y-95219296D01*
X61336132Y-95364390D01*
X61064546Y-96095258D01*
X61093325Y-96874423D01*
X61336132Y-97460610D01*
X61629194Y-97605704D01*
X62822398Y-96412500D01*
X62822398Y-96842704D01*
X61844296Y-97820806D01*
X61989390Y-98113868D01*
X62720258Y-98385454D01*
X63499423Y-98356675D01*
X64085610Y-98113868D01*
X64230704Y-97820806D01*
X64230704Y-102204194D01*
X64085610Y-101911132D01*
X63354742Y-101639546D01*
X62575577Y-101668325D01*
X61989390Y-101911132D01*
X61844296Y-102204194D01*
X63037500Y-103397398D01*
X64230704Y-102204194D01*
X64230704Y-102634398D01*
X63252602Y-103612500D01*
X64445806Y-104805704D01*
X64738868Y-104660610D01*
X64985600Y-103996626D01*
X64985600Y-108756842D01*
X64981675Y-108650577D01*
X64738868Y-108064390D01*
X64445806Y-107919296D01*
X64230704Y-108134398D01*
X64230704Y-107704194D01*
X64230704Y-105020806D01*
X63037500Y-103827602D01*
X62822398Y-104042704D01*
X62822398Y-103612500D01*
X61629194Y-102419296D01*
X61336132Y-102564390D01*
X61064546Y-103295258D01*
X61093325Y-104074423D01*
X61336132Y-104660610D01*
X61629194Y-104805704D01*
X62822398Y-103612500D01*
X62822398Y-104042704D01*
X61844296Y-105020806D01*
X61989390Y-105313868D01*
X62720258Y-105585454D01*
X63499423Y-105556675D01*
X64085610Y-105313868D01*
X64230704Y-105020806D01*
X64230704Y-107704194D01*
X64085610Y-107411132D01*
X63354742Y-107139546D01*
X62575577Y-107168325D01*
X61989390Y-107411132D01*
X61844296Y-107704194D01*
X63037500Y-108897398D01*
X64230704Y-107704194D01*
X64230704Y-108134398D01*
X63252602Y-109112500D01*
X64445806Y-110305704D01*
X64738868Y-110160610D01*
X64985600Y-109496626D01*
X64985600Y-111340600D01*
X64230704Y-111340600D01*
X64230704Y-110520806D01*
X63037500Y-109327602D01*
X62822398Y-109542704D01*
X62822398Y-109112500D01*
X61629194Y-107919296D01*
X61336132Y-108064390D01*
X61064546Y-108795258D01*
X61093325Y-109574423D01*
X61336132Y-110160610D01*
X61629194Y-110305704D01*
X62822398Y-109112500D01*
X62822398Y-109542704D01*
X61844296Y-110520806D01*
X61989390Y-110813868D01*
X62720258Y-111085454D01*
X63499423Y-111056675D01*
X64085610Y-110813868D01*
X64230704Y-110520806D01*
X64230704Y-111340600D01*
X60343748Y-111340600D01*
X60343748Y-108255252D01*
X60343748Y-95555252D01*
X60039011Y-94817733D01*
X59475235Y-94252972D01*
X58738249Y-93946949D01*
X57940252Y-93946252D01*
X57202733Y-94250989D01*
X56637972Y-94814765D01*
X56331949Y-95551751D01*
X56331252Y-96349748D01*
X56635989Y-97087267D01*
X57199765Y-97652028D01*
X57936751Y-97958051D01*
X58734748Y-97958748D01*
X59472267Y-97654011D01*
X60037028Y-97090235D01*
X60343051Y-96353249D01*
X60343748Y-95555252D01*
X60343748Y-108255252D01*
X60039011Y-107517733D01*
X59475235Y-106952972D01*
X58738249Y-106646949D01*
X57940252Y-106646252D01*
X57202733Y-106950989D01*
X56637972Y-107514765D01*
X56331949Y-108251751D01*
X56331252Y-109049748D01*
X56635989Y-109787267D01*
X57199765Y-110352028D01*
X57936751Y-110658051D01*
X58734748Y-110658748D01*
X59472267Y-110354011D01*
X60037028Y-109790235D01*
X60343051Y-109053249D01*
X60343748Y-108255252D01*
X60343748Y-111340600D01*
X56285900Y-111340600D01*
X56285900Y-80415900D01*
X71970600Y-80415900D01*
X71970600Y-80962500D01*
X71970600Y-88480600D01*
G36*
X69430600Y-114353976D02*
X69210454Y-114574122D01*
X69210454Y-109429742D01*
X69210454Y-103929742D01*
X69210454Y-96729742D01*
X69210454Y-91229742D01*
X69181675Y-90450577D01*
X68938868Y-89864390D01*
X68645806Y-89719296D01*
X67452602Y-90912500D01*
X68645806Y-92105704D01*
X68938868Y-91960610D01*
X69210454Y-91229742D01*
X69210454Y-96729742D01*
X69181675Y-95950577D01*
X68938868Y-95364390D01*
X68645806Y-95219296D01*
X68430704Y-95434398D01*
X68430704Y-95004194D01*
X68430704Y-92320806D01*
X67237500Y-91127602D01*
X66044296Y-92320806D01*
X66189390Y-92613868D01*
X66920258Y-92885454D01*
X67699423Y-92856675D01*
X68285610Y-92613868D01*
X68430704Y-92320806D01*
X68430704Y-95004194D01*
X68285610Y-94711132D01*
X67554742Y-94439546D01*
X66775577Y-94468325D01*
X66189390Y-94711132D01*
X66044296Y-95004194D01*
X67237500Y-96197398D01*
X68430704Y-95004194D01*
X68430704Y-95434398D01*
X67452602Y-96412500D01*
X68645806Y-97605704D01*
X68938868Y-97460610D01*
X69210454Y-96729742D01*
X69210454Y-103929742D01*
X69181675Y-103150577D01*
X68938868Y-102564390D01*
X68645806Y-102419296D01*
X68430704Y-102634398D01*
X68430704Y-102204194D01*
X68430704Y-97820806D01*
X67237500Y-96627602D01*
X66044296Y-97820806D01*
X66189390Y-98113868D01*
X66920258Y-98385454D01*
X67699423Y-98356675D01*
X68285610Y-98113868D01*
X68430704Y-97820806D01*
X68430704Y-102204194D01*
X68285610Y-101911132D01*
X67554742Y-101639546D01*
X66775577Y-101668325D01*
X66189390Y-101911132D01*
X66044296Y-102204194D01*
X67237500Y-103397398D01*
X68430704Y-102204194D01*
X68430704Y-102634398D01*
X67452602Y-103612500D01*
X68645806Y-104805704D01*
X68938868Y-104660610D01*
X69210454Y-103929742D01*
X69210454Y-109429742D01*
X69181675Y-108650577D01*
X68938868Y-108064390D01*
X68645806Y-107919296D01*
X68430704Y-108134398D01*
X68430704Y-107704194D01*
X68430704Y-105020806D01*
X67237500Y-103827602D01*
X66044296Y-105020806D01*
X66189390Y-105313868D01*
X66920258Y-105585454D01*
X67699423Y-105556675D01*
X68285610Y-105313868D01*
X68430704Y-105020806D01*
X68430704Y-107704194D01*
X68285610Y-107411132D01*
X67554742Y-107139546D01*
X66775577Y-107168325D01*
X66189390Y-107411132D01*
X66044296Y-107704194D01*
X67237500Y-108897398D01*
X68430704Y-107704194D01*
X68430704Y-108134398D01*
X67452602Y-109112500D01*
X68645806Y-110305704D01*
X68938868Y-110160610D01*
X69210454Y-109429742D01*
X69210454Y-114574122D01*
X68951476Y-114833100D01*
X68430704Y-114833100D01*
X68430704Y-110520806D01*
X67237500Y-109327602D01*
X66044296Y-110520806D01*
X66189390Y-110813868D01*
X66920258Y-111085454D01*
X67699423Y-111056675D01*
X68285610Y-110813868D01*
X68430704Y-110520806D01*
X68430704Y-114833100D01*
X64350600Y-114833100D01*
X64350600Y-120230600D01*
X64012805Y-120230600D01*
X64012805Y-118902768D01*
X64012805Y-113902768D01*
X63976186Y-113323139D01*
X63824821Y-112957712D01*
X63583622Y-112873980D01*
X63368520Y-113089082D01*
X63368520Y-112658878D01*
X63284788Y-112417679D01*
X62735268Y-112229695D01*
X62155639Y-112266314D01*
X61790212Y-112417679D01*
X61706480Y-112658878D01*
X62537500Y-113489898D01*
X63368520Y-112658878D01*
X63368520Y-113089082D01*
X62752602Y-113705000D01*
X63583622Y-114536020D01*
X63824821Y-114452288D01*
X64012805Y-113902768D01*
X64012805Y-118902768D01*
X63976186Y-118323139D01*
X63824821Y-117957712D01*
X63583622Y-117873980D01*
X63368520Y-118089082D01*
X63368520Y-117658878D01*
X63368520Y-114751122D01*
X62537500Y-113920102D01*
X62322398Y-114135204D01*
X62322398Y-113705000D01*
X61491378Y-112873980D01*
X61250179Y-112957712D01*
X61062195Y-113507232D01*
X61098814Y-114086861D01*
X61250179Y-114452288D01*
X61491378Y-114536020D01*
X62322398Y-113705000D01*
X62322398Y-114135204D01*
X61706480Y-114751122D01*
X61790212Y-114992321D01*
X62339732Y-115180305D01*
X62919361Y-115143686D01*
X63284788Y-114992321D01*
X63368520Y-114751122D01*
X63368520Y-117658878D01*
X63284788Y-117417679D01*
X62735268Y-117229695D01*
X62155639Y-117266314D01*
X61790212Y-117417679D01*
X61706480Y-117658878D01*
X62537500Y-118489898D01*
X63368520Y-117658878D01*
X63368520Y-118089082D01*
X62752602Y-118705000D01*
X63583622Y-119536020D01*
X63824821Y-119452288D01*
X64012805Y-118902768D01*
X64012805Y-120230600D01*
X63368520Y-120230600D01*
X63368520Y-119751122D01*
X62537500Y-118920102D01*
X62322398Y-119135204D01*
X62322398Y-118705000D01*
X61491378Y-117873980D01*
X61250179Y-117957712D01*
X61062195Y-118507232D01*
X61098814Y-119086861D01*
X61250179Y-119452288D01*
X61491378Y-119536020D01*
X62322398Y-118705000D01*
X62322398Y-119135204D01*
X61706480Y-119751122D01*
X61790212Y-119992321D01*
X62339732Y-120180305D01*
X62919361Y-120143686D01*
X63284788Y-119992321D01*
X63368520Y-119751122D01*
X63368520Y-120230600D01*
X56285900Y-120230600D01*
X56285900Y-112179400D01*
X65824400Y-112179400D01*
X65824400Y-110303330D01*
X65829194Y-110305704D01*
X67022398Y-109112500D01*
X65829194Y-107919296D01*
X65824400Y-107921669D01*
X65824400Y-104803330D01*
X65829194Y-104805704D01*
X67022398Y-103612500D01*
X65829194Y-102419296D01*
X65824400Y-102421669D01*
X65824400Y-97603330D01*
X65829194Y-97605704D01*
X67022398Y-96412500D01*
X65829194Y-95219296D01*
X65824400Y-95221669D01*
X65824400Y-92103330D01*
X65829194Y-92105704D01*
X67022398Y-90912500D01*
X65829194Y-89719296D01*
X65824400Y-89721669D01*
X65824400Y-89319400D01*
X66135786Y-89319400D01*
X66044296Y-89504194D01*
X67237500Y-90697398D01*
X68430704Y-89504194D01*
X68339213Y-89319400D01*
X69430600Y-89319400D01*
X69430600Y-111125000D01*
X69430600Y-114353976D01*
X69430600Y-114353976D01*
G37*
X69430600Y-114353976D02*
X69210454Y-114574122D01*
X69210454Y-109429742D01*
X69210454Y-103929742D01*
X69210454Y-96729742D01*
X69210454Y-91229742D01*
X69181675Y-90450577D01*
X68938868Y-89864390D01*
X68645806Y-89719296D01*
X67452602Y-90912500D01*
X68645806Y-92105704D01*
X68938868Y-91960610D01*
X69210454Y-91229742D01*
X69210454Y-96729742D01*
X69181675Y-95950577D01*
X68938868Y-95364390D01*
X68645806Y-95219296D01*
X68430704Y-95434398D01*
X68430704Y-95004194D01*
X68430704Y-92320806D01*
X67237500Y-91127602D01*
X66044296Y-92320806D01*
X66189390Y-92613868D01*
X66920258Y-92885454D01*
X67699423Y-92856675D01*
X68285610Y-92613868D01*
X68430704Y-92320806D01*
X68430704Y-95004194D01*
X68285610Y-94711132D01*
X67554742Y-94439546D01*
X66775577Y-94468325D01*
X66189390Y-94711132D01*
X66044296Y-95004194D01*
X67237500Y-96197398D01*
X68430704Y-95004194D01*
X68430704Y-95434398D01*
X67452602Y-96412500D01*
X68645806Y-97605704D01*
X68938868Y-97460610D01*
X69210454Y-96729742D01*
X69210454Y-103929742D01*
X69181675Y-103150577D01*
X68938868Y-102564390D01*
X68645806Y-102419296D01*
X68430704Y-102634398D01*
X68430704Y-102204194D01*
X68430704Y-97820806D01*
X67237500Y-96627602D01*
X66044296Y-97820806D01*
X66189390Y-98113868D01*
X66920258Y-98385454D01*
X67699423Y-98356675D01*
X68285610Y-98113868D01*
X68430704Y-97820806D01*
X68430704Y-102204194D01*
X68285610Y-101911132D01*
X67554742Y-101639546D01*
X66775577Y-101668325D01*
X66189390Y-101911132D01*
X66044296Y-102204194D01*
X67237500Y-103397398D01*
X68430704Y-102204194D01*
X68430704Y-102634398D01*
X67452602Y-103612500D01*
X68645806Y-104805704D01*
X68938868Y-104660610D01*
X69210454Y-103929742D01*
X69210454Y-109429742D01*
X69181675Y-108650577D01*
X68938868Y-108064390D01*
X68645806Y-107919296D01*
X68430704Y-108134398D01*
X68430704Y-107704194D01*
X68430704Y-105020806D01*
X67237500Y-103827602D01*
X66044296Y-105020806D01*
X66189390Y-105313868D01*
X66920258Y-105585454D01*
X67699423Y-105556675D01*
X68285610Y-105313868D01*
X68430704Y-105020806D01*
X68430704Y-107704194D01*
X68285610Y-107411132D01*
X67554742Y-107139546D01*
X66775577Y-107168325D01*
X66189390Y-107411132D01*
X66044296Y-107704194D01*
X67237500Y-108897398D01*
X68430704Y-107704194D01*
X68430704Y-108134398D01*
X67452602Y-109112500D01*
X68645806Y-110305704D01*
X68938868Y-110160610D01*
X69210454Y-109429742D01*
X69210454Y-114574122D01*
X68951476Y-114833100D01*
X68430704Y-114833100D01*
X68430704Y-110520806D01*
X67237500Y-109327602D01*
X66044296Y-110520806D01*
X66189390Y-110813868D01*
X66920258Y-111085454D01*
X67699423Y-111056675D01*
X68285610Y-110813868D01*
X68430704Y-110520806D01*
X68430704Y-114833100D01*
X64350600Y-114833100D01*
X64350600Y-120230600D01*
X64012805Y-120230600D01*
X64012805Y-118902768D01*
X64012805Y-113902768D01*
X63976186Y-113323139D01*
X63824821Y-112957712D01*
X63583622Y-112873980D01*
X63368520Y-113089082D01*
X63368520Y-112658878D01*
X63284788Y-112417679D01*
X62735268Y-112229695D01*
X62155639Y-112266314D01*
X61790212Y-112417679D01*
X61706480Y-112658878D01*
X62537500Y-113489898D01*
X63368520Y-112658878D01*
X63368520Y-113089082D01*
X62752602Y-113705000D01*
X63583622Y-114536020D01*
X63824821Y-114452288D01*
X64012805Y-113902768D01*
X64012805Y-118902768D01*
X63976186Y-118323139D01*
X63824821Y-117957712D01*
X63583622Y-117873980D01*
X63368520Y-118089082D01*
X63368520Y-117658878D01*
X63368520Y-114751122D01*
X62537500Y-113920102D01*
X62322398Y-114135204D01*
X62322398Y-113705000D01*
X61491378Y-112873980D01*
X61250179Y-112957712D01*
X61062195Y-113507232D01*
X61098814Y-114086861D01*
X61250179Y-114452288D01*
X61491378Y-114536020D01*
X62322398Y-113705000D01*
X62322398Y-114135204D01*
X61706480Y-114751122D01*
X61790212Y-114992321D01*
X62339732Y-115180305D01*
X62919361Y-115143686D01*
X63284788Y-114992321D01*
X63368520Y-114751122D01*
X63368520Y-117658878D01*
X63284788Y-117417679D01*
X62735268Y-117229695D01*
X62155639Y-117266314D01*
X61790212Y-117417679D01*
X61706480Y-117658878D01*
X62537500Y-118489898D01*
X63368520Y-117658878D01*
X63368520Y-118089082D01*
X62752602Y-118705000D01*
X63583622Y-119536020D01*
X63824821Y-119452288D01*
X64012805Y-118902768D01*
X64012805Y-120230600D01*
X63368520Y-120230600D01*
X63368520Y-119751122D01*
X62537500Y-118920102D01*
X62322398Y-119135204D01*
X62322398Y-118705000D01*
X61491378Y-117873980D01*
X61250179Y-117957712D01*
X61062195Y-118507232D01*
X61098814Y-119086861D01*
X61250179Y-119452288D01*
X61491378Y-119536020D01*
X62322398Y-118705000D01*
X62322398Y-119135204D01*
X61706480Y-119751122D01*
X61790212Y-119992321D01*
X62339732Y-120180305D01*
X62919361Y-120143686D01*
X63284788Y-119992321D01*
X63368520Y-119751122D01*
X63368520Y-120230600D01*
X56285900Y-120230600D01*
X56285900Y-112179400D01*
X65824400Y-112179400D01*
X65824400Y-110303330D01*
X65829194Y-110305704D01*
X67022398Y-109112500D01*
X65829194Y-107919296D01*
X65824400Y-107921669D01*
X65824400Y-104803330D01*
X65829194Y-104805704D01*
X67022398Y-103612500D01*
X65829194Y-102419296D01*
X65824400Y-102421669D01*
X65824400Y-97603330D01*
X65829194Y-97605704D01*
X67022398Y-96412500D01*
X65829194Y-95219296D01*
X65824400Y-95221669D01*
X65824400Y-92103330D01*
X65829194Y-92105704D01*
X67022398Y-90912500D01*
X65829194Y-89719296D01*
X65824400Y-89721669D01*
X65824400Y-89319400D01*
X66135786Y-89319400D01*
X66044296Y-89504194D01*
X67237500Y-90697398D01*
X68430704Y-89504194D01*
X68339213Y-89319400D01*
X69430600Y-89319400D01*
X69430600Y-111125000D01*
X69430600Y-114353976D01*
G36*
X95783100Y-161823100D02*
X73508039Y-161823100D01*
X73508039Y-157321489D01*
X73386442Y-157027202D01*
X73161482Y-156801849D01*
X72867408Y-156679739D01*
X72548989Y-156679461D01*
X72254702Y-156801058D01*
X72029349Y-157026018D01*
X71907239Y-157320092D01*
X71906961Y-157638511D01*
X72028558Y-157932798D01*
X72253518Y-158158151D01*
X72547592Y-158280261D01*
X72866011Y-158280539D01*
X73160298Y-158158942D01*
X73385651Y-157933982D01*
X73507761Y-157639908D01*
X73508039Y-157321489D01*
X73508039Y-161823100D01*
X70904400Y-161823100D01*
X70904400Y-159697498D01*
X70967761Y-159544908D01*
X70968039Y-159226489D01*
X70904400Y-159072470D01*
X70904400Y-158109998D01*
X70967761Y-157957408D01*
X70968039Y-157638989D01*
X70904400Y-157484970D01*
X70904400Y-156791024D01*
X71383523Y-156311900D01*
X76066181Y-156311900D01*
X75719223Y-156380914D01*
X75311641Y-156653253D01*
X75039302Y-157060835D01*
X74943670Y-157541612D01*
X74943670Y-159323388D01*
X75039302Y-159804165D01*
X75311641Y-160211747D01*
X75719223Y-160484086D01*
X76200000Y-160579718D01*
X76680777Y-160484086D01*
X77088359Y-160211747D01*
X77348401Y-159822567D01*
X77402843Y-160000630D01*
X77779586Y-160457645D01*
X78302543Y-160735699D01*
X78354706Y-160742488D01*
X78587900Y-160631439D01*
X78587900Y-158584600D01*
X78567900Y-158584600D01*
X78567900Y-158280400D01*
X78587900Y-158280400D01*
X78587900Y-158260400D01*
X78892100Y-158260400D01*
X78892100Y-158280400D01*
X78912100Y-158280400D01*
X78912100Y-158584600D01*
X78892100Y-158584600D01*
X78892100Y-160631439D01*
X79125294Y-160742488D01*
X79177457Y-160735699D01*
X79700414Y-160457645D01*
X80077157Y-160000630D01*
X80131598Y-159822567D01*
X80391641Y-160211747D01*
X80799223Y-160484086D01*
X81280000Y-160579718D01*
X81760777Y-160484086D01*
X82168359Y-160211747D01*
X82428401Y-159822567D01*
X82482843Y-160000630D01*
X82859586Y-160457645D01*
X83382543Y-160735699D01*
X83434706Y-160742488D01*
X83667900Y-160631439D01*
X83667900Y-158584600D01*
X83647900Y-158584600D01*
X83647900Y-158280400D01*
X83667900Y-158280400D01*
X83667900Y-158260400D01*
X83972100Y-158260400D01*
X83972100Y-158280400D01*
X83992100Y-158280400D01*
X83992100Y-158584600D01*
X83972100Y-158584600D01*
X83972100Y-160631439D01*
X84205294Y-160742488D01*
X84257457Y-160735699D01*
X84780414Y-160457645D01*
X85157157Y-160000630D01*
X85211598Y-159822567D01*
X85471641Y-160211747D01*
X85879223Y-160484086D01*
X86360000Y-160579718D01*
X86840777Y-160484086D01*
X87248359Y-160211747D01*
X87508401Y-159822567D01*
X87562843Y-160000630D01*
X87939586Y-160457645D01*
X88462543Y-160735699D01*
X88514706Y-160742488D01*
X88747900Y-160631439D01*
X88747900Y-158584600D01*
X88727900Y-158584600D01*
X88727900Y-158280400D01*
X88747900Y-158280400D01*
X88747900Y-158260400D01*
X89052100Y-158260400D01*
X89052100Y-158280400D01*
X89072100Y-158280400D01*
X89072100Y-158584600D01*
X89052100Y-158584600D01*
X89052100Y-160631439D01*
X89285294Y-160742488D01*
X89337457Y-160735699D01*
X89860414Y-160457645D01*
X90237157Y-160000630D01*
X90291598Y-159822567D01*
X90551641Y-160211747D01*
X90959223Y-160484086D01*
X91440000Y-160579718D01*
X91920777Y-160484086D01*
X92328359Y-160211747D01*
X92588401Y-159822567D01*
X92642843Y-160000630D01*
X93019586Y-160457645D01*
X93542543Y-160735699D01*
X93594706Y-160742488D01*
X93827900Y-160631439D01*
X93827900Y-158584600D01*
X93807900Y-158584600D01*
X93807900Y-158280400D01*
X93827900Y-158280400D01*
X93827900Y-158260400D01*
X94132100Y-158260400D01*
X94132100Y-158280400D01*
X94152100Y-158280400D01*
X94152100Y-158584600D01*
X94132100Y-158584600D01*
X94132100Y-160631439D01*
X94365294Y-160742488D01*
X94417457Y-160735699D01*
X94940414Y-160457645D01*
X95317157Y-160000630D01*
X95371598Y-159822567D01*
X95631641Y-160211747D01*
X95783100Y-160312949D01*
X95783100Y-161823100D01*
X95783100Y-161823100D01*
G37*
X95783100Y-161823100D02*
X73508039Y-161823100D01*
X73508039Y-157321489D01*
X73386442Y-157027202D01*
X73161482Y-156801849D01*
X72867408Y-156679739D01*
X72548989Y-156679461D01*
X72254702Y-156801058D01*
X72029349Y-157026018D01*
X71907239Y-157320092D01*
X71906961Y-157638511D01*
X72028558Y-157932798D01*
X72253518Y-158158151D01*
X72547592Y-158280261D01*
X72866011Y-158280539D01*
X73160298Y-158158942D01*
X73385651Y-157933982D01*
X73507761Y-157639908D01*
X73508039Y-157321489D01*
X73508039Y-161823100D01*
X70904400Y-161823100D01*
X70904400Y-159697498D01*
X70967761Y-159544908D01*
X70968039Y-159226489D01*
X70904400Y-159072470D01*
X70904400Y-158109998D01*
X70967761Y-157957408D01*
X70968039Y-157638989D01*
X70904400Y-157484970D01*
X70904400Y-156791024D01*
X71383523Y-156311900D01*
X76066181Y-156311900D01*
X75719223Y-156380914D01*
X75311641Y-156653253D01*
X75039302Y-157060835D01*
X74943670Y-157541612D01*
X74943670Y-159323388D01*
X75039302Y-159804165D01*
X75311641Y-160211747D01*
X75719223Y-160484086D01*
X76200000Y-160579718D01*
X76680777Y-160484086D01*
X77088359Y-160211747D01*
X77348401Y-159822567D01*
X77402843Y-160000630D01*
X77779586Y-160457645D01*
X78302543Y-160735699D01*
X78354706Y-160742488D01*
X78587900Y-160631439D01*
X78587900Y-158584600D01*
X78567900Y-158584600D01*
X78567900Y-158280400D01*
X78587900Y-158280400D01*
X78587900Y-158260400D01*
X78892100Y-158260400D01*
X78892100Y-158280400D01*
X78912100Y-158280400D01*
X78912100Y-158584600D01*
X78892100Y-158584600D01*
X78892100Y-160631439D01*
X79125294Y-160742488D01*
X79177457Y-160735699D01*
X79700414Y-160457645D01*
X80077157Y-160000630D01*
X80131598Y-159822567D01*
X80391641Y-160211747D01*
X80799223Y-160484086D01*
X81280000Y-160579718D01*
X81760777Y-160484086D01*
X82168359Y-160211747D01*
X82428401Y-159822567D01*
X82482843Y-160000630D01*
X82859586Y-160457645D01*
X83382543Y-160735699D01*
X83434706Y-160742488D01*
X83667900Y-160631439D01*
X83667900Y-158584600D01*
X83647900Y-158584600D01*
X83647900Y-158280400D01*
X83667900Y-158280400D01*
X83667900Y-158260400D01*
X83972100Y-158260400D01*
X83972100Y-158280400D01*
X83992100Y-158280400D01*
X83992100Y-158584600D01*
X83972100Y-158584600D01*
X83972100Y-160631439D01*
X84205294Y-160742488D01*
X84257457Y-160735699D01*
X84780414Y-160457645D01*
X85157157Y-160000630D01*
X85211598Y-159822567D01*
X85471641Y-160211747D01*
X85879223Y-160484086D01*
X86360000Y-160579718D01*
X86840777Y-160484086D01*
X87248359Y-160211747D01*
X87508401Y-159822567D01*
X87562843Y-160000630D01*
X87939586Y-160457645D01*
X88462543Y-160735699D01*
X88514706Y-160742488D01*
X88747900Y-160631439D01*
X88747900Y-158584600D01*
X88727900Y-158584600D01*
X88727900Y-158280400D01*
X88747900Y-158280400D01*
X88747900Y-158260400D01*
X89052100Y-158260400D01*
X89052100Y-158280400D01*
X89072100Y-158280400D01*
X89072100Y-158584600D01*
X89052100Y-158584600D01*
X89052100Y-160631439D01*
X89285294Y-160742488D01*
X89337457Y-160735699D01*
X89860414Y-160457645D01*
X90237157Y-160000630D01*
X90291598Y-159822567D01*
X90551641Y-160211747D01*
X90959223Y-160484086D01*
X91440000Y-160579718D01*
X91920777Y-160484086D01*
X92328359Y-160211747D01*
X92588401Y-159822567D01*
X92642843Y-160000630D01*
X93019586Y-160457645D01*
X93542543Y-160735699D01*
X93594706Y-160742488D01*
X93827900Y-160631439D01*
X93827900Y-158584600D01*
X93807900Y-158584600D01*
X93807900Y-158280400D01*
X93827900Y-158280400D01*
X93827900Y-158260400D01*
X94132100Y-158260400D01*
X94132100Y-158280400D01*
X94152100Y-158280400D01*
X94152100Y-158584600D01*
X94132100Y-158584600D01*
X94132100Y-160631439D01*
X94365294Y-160742488D01*
X94417457Y-160735699D01*
X94940414Y-160457645D01*
X95317157Y-160000630D01*
X95371598Y-159822567D01*
X95631641Y-160211747D01*
X95783100Y-160312949D01*
X95783100Y-161823100D01*
G36*
X115468100Y-163410600D02*
X109532498Y-163410600D01*
X109379908Y-163347239D01*
X109061489Y-163346961D01*
X108907470Y-163410600D01*
X94292498Y-163410600D01*
X94139908Y-163347239D01*
X93821489Y-163346961D01*
X93667470Y-163410600D01*
X68364400Y-163410600D01*
X68364400Y-158851900D01*
X70383100Y-158851900D01*
X70383100Y-162344400D01*
X97256900Y-162344400D01*
X97256900Y-160312949D01*
X97408359Y-160211747D01*
X97668401Y-159822567D01*
X97722843Y-160000630D01*
X98099586Y-160457645D01*
X98622543Y-160735699D01*
X98674706Y-160742488D01*
X98907900Y-160631439D01*
X98907900Y-158584600D01*
X98887900Y-158584600D01*
X98887900Y-158280400D01*
X98907900Y-158280400D01*
X98907900Y-158260400D01*
X99212100Y-158260400D01*
X99212100Y-158280400D01*
X99232100Y-158280400D01*
X99232100Y-158584600D01*
X99212100Y-158584600D01*
X99212100Y-160631439D01*
X99445294Y-160742488D01*
X99497457Y-160735699D01*
X100020414Y-160457645D01*
X100397157Y-160000630D01*
X100451598Y-159822567D01*
X100711641Y-160211747D01*
X101119223Y-160484086D01*
X101600000Y-160579718D01*
X102080777Y-160484086D01*
X102488359Y-160211747D01*
X102748401Y-159822567D01*
X102802843Y-160000630D01*
X103179586Y-160457645D01*
X103702543Y-160735699D01*
X103754706Y-160742488D01*
X103987900Y-160631439D01*
X103987900Y-158584600D01*
X103967900Y-158584600D01*
X103967900Y-158280400D01*
X103987900Y-158280400D01*
X103987900Y-158260400D01*
X104292100Y-158260400D01*
X104292100Y-158280400D01*
X104312100Y-158280400D01*
X104312100Y-158584600D01*
X104292100Y-158584600D01*
X104292100Y-160631439D01*
X104525294Y-160742488D01*
X104577457Y-160735699D01*
X105100414Y-160457645D01*
X105477157Y-160000630D01*
X105531598Y-159822567D01*
X105791641Y-160211747D01*
X106199223Y-160484086D01*
X106680000Y-160579718D01*
X107160777Y-160484086D01*
X107568359Y-160211747D01*
X107828401Y-159822567D01*
X107882843Y-160000630D01*
X108259586Y-160457645D01*
X108782543Y-160735699D01*
X108834706Y-160742488D01*
X109067900Y-160631439D01*
X109067900Y-158584600D01*
X109047900Y-158584600D01*
X109047900Y-158280400D01*
X109067900Y-158280400D01*
X109067900Y-158260400D01*
X109372100Y-158260400D01*
X109372100Y-158280400D01*
X109392100Y-158280400D01*
X109392100Y-158584600D01*
X109372100Y-158584600D01*
X109372100Y-160631439D01*
X109605294Y-160742488D01*
X109657457Y-160735699D01*
X110180414Y-160457645D01*
X110557157Y-160000630D01*
X110611598Y-159822567D01*
X110871641Y-160211747D01*
X111279223Y-160484086D01*
X111760000Y-160579718D01*
X112240777Y-160484086D01*
X112648359Y-160211747D01*
X112908401Y-159822567D01*
X112962843Y-160000630D01*
X113339586Y-160457645D01*
X113862543Y-160735699D01*
X113914706Y-160742488D01*
X114147900Y-160631439D01*
X114147900Y-158584600D01*
X114127900Y-158584600D01*
X114127900Y-158280400D01*
X114147900Y-158280400D01*
X114147900Y-158260400D01*
X114452100Y-158260400D01*
X114452100Y-158280400D01*
X114472100Y-158280400D01*
X114472100Y-158584600D01*
X114452100Y-158584600D01*
X114452100Y-160631439D01*
X114685294Y-160742488D01*
X114737457Y-160735699D01*
X115260414Y-160457645D01*
X115468100Y-160205707D01*
X115468100Y-161867258D01*
X115434702Y-161881058D01*
X115209349Y-162106018D01*
X115087239Y-162400092D01*
X115086961Y-162718511D01*
X115208558Y-163012798D01*
X115433518Y-163238151D01*
X115468100Y-163252510D01*
X115468100Y-163410600D01*
X115468100Y-163410600D01*
G37*
X115468100Y-163410600D02*
X109532498Y-163410600D01*
X109379908Y-163347239D01*
X109061489Y-163346961D01*
X108907470Y-163410600D01*
X94292498Y-163410600D01*
X94139908Y-163347239D01*
X93821489Y-163346961D01*
X93667470Y-163410600D01*
X68364400Y-163410600D01*
X68364400Y-158851900D01*
X70383100Y-158851900D01*
X70383100Y-162344400D01*
X97256900Y-162344400D01*
X97256900Y-160312949D01*
X97408359Y-160211747D01*
X97668401Y-159822567D01*
X97722843Y-160000630D01*
X98099586Y-160457645D01*
X98622543Y-160735699D01*
X98674706Y-160742488D01*
X98907900Y-160631439D01*
X98907900Y-158584600D01*
X98887900Y-158584600D01*
X98887900Y-158280400D01*
X98907900Y-158280400D01*
X98907900Y-158260400D01*
X99212100Y-158260400D01*
X99212100Y-158280400D01*
X99232100Y-158280400D01*
X99232100Y-158584600D01*
X99212100Y-158584600D01*
X99212100Y-160631439D01*
X99445294Y-160742488D01*
X99497457Y-160735699D01*
X100020414Y-160457645D01*
X100397157Y-160000630D01*
X100451598Y-159822567D01*
X100711641Y-160211747D01*
X101119223Y-160484086D01*
X101600000Y-160579718D01*
X102080777Y-160484086D01*
X102488359Y-160211747D01*
X102748401Y-159822567D01*
X102802843Y-160000630D01*
X103179586Y-160457645D01*
X103702543Y-160735699D01*
X103754706Y-160742488D01*
X103987900Y-160631439D01*
X103987900Y-158584600D01*
X103967900Y-158584600D01*
X103967900Y-158280400D01*
X103987900Y-158280400D01*
X103987900Y-158260400D01*
X104292100Y-158260400D01*
X104292100Y-158280400D01*
X104312100Y-158280400D01*
X104312100Y-158584600D01*
X104292100Y-158584600D01*
X104292100Y-160631439D01*
X104525294Y-160742488D01*
X104577457Y-160735699D01*
X105100414Y-160457645D01*
X105477157Y-160000630D01*
X105531598Y-159822567D01*
X105791641Y-160211747D01*
X106199223Y-160484086D01*
X106680000Y-160579718D01*
X107160777Y-160484086D01*
X107568359Y-160211747D01*
X107828401Y-159822567D01*
X107882843Y-160000630D01*
X108259586Y-160457645D01*
X108782543Y-160735699D01*
X108834706Y-160742488D01*
X109067900Y-160631439D01*
X109067900Y-158584600D01*
X109047900Y-158584600D01*
X109047900Y-158280400D01*
X109067900Y-158280400D01*
X109067900Y-158260400D01*
X109372100Y-158260400D01*
X109372100Y-158280400D01*
X109392100Y-158280400D01*
X109392100Y-158584600D01*
X109372100Y-158584600D01*
X109372100Y-160631439D01*
X109605294Y-160742488D01*
X109657457Y-160735699D01*
X110180414Y-160457645D01*
X110557157Y-160000630D01*
X110611598Y-159822567D01*
X110871641Y-160211747D01*
X111279223Y-160484086D01*
X111760000Y-160579718D01*
X112240777Y-160484086D01*
X112648359Y-160211747D01*
X112908401Y-159822567D01*
X112962843Y-160000630D01*
X113339586Y-160457645D01*
X113862543Y-160735699D01*
X113914706Y-160742488D01*
X114147900Y-160631439D01*
X114147900Y-158584600D01*
X114127900Y-158584600D01*
X114127900Y-158280400D01*
X114147900Y-158280400D01*
X114147900Y-158260400D01*
X114452100Y-158260400D01*
X114452100Y-158280400D01*
X114472100Y-158280400D01*
X114472100Y-158584600D01*
X114452100Y-158584600D01*
X114452100Y-160631439D01*
X114685294Y-160742488D01*
X114737457Y-160735699D01*
X115260414Y-160457645D01*
X115468100Y-160205707D01*
X115468100Y-161867258D01*
X115434702Y-161881058D01*
X115209349Y-162106018D01*
X115087239Y-162400092D01*
X115086961Y-162718511D01*
X115208558Y-163012798D01*
X115433518Y-163238151D01*
X115468100Y-163252510D01*
X115468100Y-163410600D01*
G36*
X116103100Y-179299100D02*
X115810330Y-179299100D01*
X115810330Y-175944230D01*
X115810330Y-175094600D01*
X115810330Y-174790400D01*
X115810330Y-173940770D01*
X115637157Y-173374370D01*
X115260414Y-172917355D01*
X114737457Y-172639301D01*
X114685294Y-172632512D01*
X114452100Y-172743561D01*
X114452100Y-174790400D01*
X115810330Y-174790400D01*
X115810330Y-175094600D01*
X114452100Y-175094600D01*
X114452100Y-177141439D01*
X114685294Y-177252488D01*
X114737457Y-177245699D01*
X115260414Y-176967645D01*
X115637157Y-176510630D01*
X115810330Y-175944230D01*
X115810330Y-179299100D01*
X114147900Y-179299100D01*
X114147900Y-177141439D01*
X114147900Y-175094600D01*
X114127900Y-175094600D01*
X114127900Y-174790400D01*
X114147900Y-174790400D01*
X114147900Y-172743561D01*
X113914706Y-172632512D01*
X113862543Y-172639301D01*
X113339586Y-172917355D01*
X112962843Y-173374370D01*
X112908401Y-173552432D01*
X112648359Y-173163253D01*
X112240777Y-172890914D01*
X111760000Y-172795282D01*
X111279223Y-172890914D01*
X110871641Y-173163253D01*
X110611598Y-173552432D01*
X110557157Y-173374370D01*
X110180414Y-172917355D01*
X109657457Y-172639301D01*
X109605294Y-172632512D01*
X109372100Y-172743561D01*
X109372100Y-174790400D01*
X109392100Y-174790400D01*
X109392100Y-175094600D01*
X109372100Y-175094600D01*
X109372100Y-177141439D01*
X109605294Y-177252488D01*
X109657457Y-177245699D01*
X110180414Y-176967645D01*
X110557157Y-176510630D01*
X110611598Y-176332567D01*
X110871641Y-176721747D01*
X111279223Y-176994086D01*
X111760000Y-177089718D01*
X112240777Y-176994086D01*
X112648359Y-176721747D01*
X112908401Y-176332567D01*
X112962843Y-176510630D01*
X113339586Y-176967645D01*
X113862543Y-177245699D01*
X113914706Y-177252488D01*
X114147900Y-177141439D01*
X114147900Y-179299100D01*
X109067900Y-179299100D01*
X109067900Y-177141439D01*
X109067900Y-175094600D01*
X109047900Y-175094600D01*
X109047900Y-174790400D01*
X109067900Y-174790400D01*
X109067900Y-172743561D01*
X108834706Y-172632512D01*
X108782543Y-172639301D01*
X108259586Y-172917355D01*
X107882843Y-173374370D01*
X107828401Y-173552432D01*
X107568359Y-173163253D01*
X107160777Y-172890914D01*
X106680000Y-172795282D01*
X106199223Y-172890914D01*
X105791641Y-173163253D01*
X105531598Y-173552432D01*
X105477157Y-173374370D01*
X105100414Y-172917355D01*
X104577457Y-172639301D01*
X104525294Y-172632512D01*
X104292100Y-172743561D01*
X104292100Y-174790400D01*
X104312100Y-174790400D01*
X104312100Y-175094600D01*
X104292100Y-175094600D01*
X104292100Y-177141439D01*
X104525294Y-177252488D01*
X104577457Y-177245699D01*
X105100414Y-176967645D01*
X105477157Y-176510630D01*
X105531598Y-176332567D01*
X105791641Y-176721747D01*
X106199223Y-176994086D01*
X106680000Y-177089718D01*
X107160777Y-176994086D01*
X107568359Y-176721747D01*
X107828401Y-176332567D01*
X107882843Y-176510630D01*
X108259586Y-176967645D01*
X108782543Y-177245699D01*
X108834706Y-177252488D01*
X109067900Y-177141439D01*
X109067900Y-179299100D01*
X103987900Y-179299100D01*
X103987900Y-177141439D01*
X103987900Y-175094600D01*
X103967900Y-175094600D01*
X103967900Y-174790400D01*
X103987900Y-174790400D01*
X103987900Y-172743561D01*
X103754706Y-172632512D01*
X103702543Y-172639301D01*
X103179586Y-172917355D01*
X102802843Y-173374370D01*
X102748401Y-173552432D01*
X102488359Y-173163253D01*
X102080777Y-172890914D01*
X101600000Y-172795282D01*
X101119223Y-172890914D01*
X100711641Y-173163253D01*
X100451598Y-173552432D01*
X100397157Y-173374370D01*
X100020414Y-172917355D01*
X99497457Y-172639301D01*
X99445294Y-172632512D01*
X99212100Y-172743561D01*
X99212100Y-174790400D01*
X99232100Y-174790400D01*
X99232100Y-175094600D01*
X99212100Y-175094600D01*
X99212100Y-177141439D01*
X99445294Y-177252488D01*
X99497457Y-177245699D01*
X100020414Y-176967645D01*
X100397157Y-176510630D01*
X100451598Y-176332567D01*
X100711641Y-176721747D01*
X101119223Y-176994086D01*
X101600000Y-177089718D01*
X102080777Y-176994086D01*
X102488359Y-176721747D01*
X102748401Y-176332567D01*
X102802843Y-176510630D01*
X103179586Y-176967645D01*
X103702543Y-177245699D01*
X103754706Y-177252488D01*
X103987900Y-177141439D01*
X103987900Y-179299100D01*
X98907900Y-179299100D01*
X98907900Y-177141439D01*
X98907900Y-175094600D01*
X98887900Y-175094600D01*
X98887900Y-174790400D01*
X98907900Y-174790400D01*
X98907900Y-172743561D01*
X98674706Y-172632512D01*
X98622543Y-172639301D01*
X98099586Y-172917355D01*
X97722843Y-173374370D01*
X97668401Y-173552432D01*
X97408359Y-173163253D01*
X97000777Y-172890914D01*
X96520000Y-172795282D01*
X96039223Y-172890914D01*
X95631641Y-173163253D01*
X95359302Y-173570835D01*
X95263670Y-174051612D01*
X95263670Y-175833388D01*
X95359302Y-176314165D01*
X95631641Y-176721747D01*
X96039223Y-176994086D01*
X96520000Y-177089718D01*
X97000777Y-176994086D01*
X97408359Y-176721747D01*
X97668401Y-176332567D01*
X97722843Y-176510630D01*
X98099586Y-176967645D01*
X98622543Y-177245699D01*
X98674706Y-177252488D01*
X98907900Y-177141439D01*
X98907900Y-179299100D01*
X95236330Y-179299100D01*
X95236330Y-175833388D01*
X95236330Y-174051612D01*
X95140698Y-173570835D01*
X94868359Y-173163253D01*
X94460777Y-172890914D01*
X93980000Y-172795282D01*
X93499223Y-172890914D01*
X93091641Y-173163253D01*
X92819302Y-173570835D01*
X92723670Y-174051612D01*
X92723670Y-175833388D01*
X92819302Y-176314165D01*
X93091641Y-176721747D01*
X93499223Y-176994086D01*
X93980000Y-177089718D01*
X94460777Y-176994086D01*
X94868359Y-176721747D01*
X95140698Y-176314165D01*
X95236330Y-175833388D01*
X95236330Y-179299100D01*
X92696330Y-179299100D01*
X92696330Y-175833388D01*
X92696330Y-174051612D01*
X92600698Y-173570835D01*
X92328359Y-173163253D01*
X91920777Y-172890914D01*
X91440000Y-172795282D01*
X90959223Y-172890914D01*
X90551641Y-173163253D01*
X90279302Y-173570835D01*
X90183670Y-174051612D01*
X90183670Y-175833388D01*
X90279302Y-176314165D01*
X90551641Y-176721747D01*
X90959223Y-176994086D01*
X91440000Y-177089718D01*
X91920777Y-176994086D01*
X92328359Y-176721747D01*
X92600698Y-176314165D01*
X92696330Y-175833388D01*
X92696330Y-179299100D01*
X90156330Y-179299100D01*
X90156330Y-175833388D01*
X90156330Y-174051612D01*
X90060698Y-173570835D01*
X89788359Y-173163253D01*
X89380777Y-172890914D01*
X88900000Y-172795282D01*
X88419223Y-172890914D01*
X88011641Y-173163253D01*
X87739302Y-173570835D01*
X87643670Y-174051612D01*
X87643670Y-175833388D01*
X87739302Y-176314165D01*
X88011641Y-176721747D01*
X88419223Y-176994086D01*
X88900000Y-177089718D01*
X89380777Y-176994086D01*
X89788359Y-176721747D01*
X90060698Y-176314165D01*
X90156330Y-175833388D01*
X90156330Y-179299100D01*
X87616330Y-179299100D01*
X87616330Y-175833388D01*
X87616330Y-174051612D01*
X87520698Y-173570835D01*
X87248359Y-173163253D01*
X86840777Y-172890914D01*
X86360000Y-172795282D01*
X85879223Y-172890914D01*
X85471641Y-173163253D01*
X85199302Y-173570835D01*
X85103670Y-174051612D01*
X85103670Y-175833388D01*
X85199302Y-176314165D01*
X85471641Y-176721747D01*
X85879223Y-176994086D01*
X86360000Y-177089718D01*
X86840777Y-176994086D01*
X87248359Y-176721747D01*
X87520698Y-176314165D01*
X87616330Y-175833388D01*
X87616330Y-179299100D01*
X85076330Y-179299100D01*
X85076330Y-175833388D01*
X85076330Y-174051612D01*
X84980698Y-173570835D01*
X84708359Y-173163253D01*
X84300777Y-172890914D01*
X83820000Y-172795282D01*
X83339223Y-172890914D01*
X82931641Y-173163253D01*
X82659302Y-173570835D01*
X82563670Y-174051612D01*
X82563670Y-175833388D01*
X82659302Y-176314165D01*
X82931641Y-176721747D01*
X83339223Y-176994086D01*
X83820000Y-177089718D01*
X84300777Y-176994086D01*
X84708359Y-176721747D01*
X84980698Y-176314165D01*
X85076330Y-175833388D01*
X85076330Y-179299100D01*
X82536330Y-179299100D01*
X82536330Y-175833388D01*
X82536330Y-174051612D01*
X82440698Y-173570835D01*
X82168359Y-173163253D01*
X81760777Y-172890914D01*
X81280000Y-172795282D01*
X80799223Y-172890914D01*
X80391641Y-173163253D01*
X80119302Y-173570835D01*
X80023670Y-174051612D01*
X80023670Y-175833388D01*
X80119302Y-176314165D01*
X80391641Y-176721747D01*
X80799223Y-176994086D01*
X81280000Y-177089718D01*
X81760777Y-176994086D01*
X82168359Y-176721747D01*
X82440698Y-176314165D01*
X82536330Y-175833388D01*
X82536330Y-179299100D01*
X79996330Y-179299100D01*
X79996330Y-175833388D01*
X79996330Y-174051612D01*
X79900698Y-173570835D01*
X79628359Y-173163253D01*
X79220777Y-172890914D01*
X78740000Y-172795282D01*
X78259223Y-172890914D01*
X77851641Y-173163253D01*
X77579302Y-173570835D01*
X77483670Y-174051612D01*
X77483670Y-175833388D01*
X77579302Y-176314165D01*
X77851641Y-176721747D01*
X78259223Y-176994086D01*
X78740000Y-177089718D01*
X79220777Y-176994086D01*
X79628359Y-176721747D01*
X79900698Y-176314165D01*
X79996330Y-175833388D01*
X79996330Y-179299100D01*
X77456330Y-179299100D01*
X77456330Y-175833388D01*
X77456330Y-174051612D01*
X77360698Y-173570835D01*
X77088359Y-173163253D01*
X76680777Y-172890914D01*
X76200000Y-172795282D01*
X75719223Y-172890914D01*
X75311641Y-173163253D01*
X75039302Y-173570835D01*
X74943670Y-174051612D01*
X74943670Y-175833388D01*
X75039302Y-176314165D01*
X75311641Y-176721747D01*
X75719223Y-176994086D01*
X76200000Y-177089718D01*
X76680777Y-176994086D01*
X77088359Y-176721747D01*
X77360698Y-176314165D01*
X77456330Y-175833388D01*
X77456330Y-179299100D01*
X73508039Y-179299100D01*
X73508039Y-173831489D01*
X73386442Y-173537202D01*
X73161482Y-173311849D01*
X72867408Y-173189739D01*
X72548989Y-173189461D01*
X72254702Y-173311058D01*
X72029349Y-173536018D01*
X71907239Y-173830092D01*
X71906961Y-174148511D01*
X72028558Y-174442798D01*
X72253518Y-174668151D01*
X72547592Y-174790261D01*
X72866011Y-174790539D01*
X73160298Y-174668942D01*
X73385651Y-174443982D01*
X73507761Y-174149908D01*
X73508039Y-173831489D01*
X73508039Y-179299100D01*
X70968039Y-179299100D01*
X70968039Y-173831489D01*
X70846442Y-173537202D01*
X70621482Y-173311849D01*
X70327408Y-173189739D01*
X70008989Y-173189461D01*
X69714702Y-173311058D01*
X69489349Y-173536018D01*
X69367239Y-173830092D01*
X69366961Y-174148511D01*
X69488558Y-174442798D01*
X69713518Y-174668151D01*
X70007592Y-174790261D01*
X70326011Y-174790539D01*
X70620298Y-174668942D01*
X70845651Y-174443982D01*
X70967761Y-174149908D01*
X70968039Y-173831489D01*
X70968039Y-179299100D01*
X68364400Y-179299100D01*
X68364400Y-172186900D01*
X116103100Y-172186900D01*
X116103100Y-179299100D01*
X116103100Y-179299100D01*
G37*
X116103100Y-179299100D02*
X115810330Y-179299100D01*
X115810330Y-175944230D01*
X115810330Y-175094600D01*
X115810330Y-174790400D01*
X115810330Y-173940770D01*
X115637157Y-173374370D01*
X115260414Y-172917355D01*
X114737457Y-172639301D01*
X114685294Y-172632512D01*
X114452100Y-172743561D01*
X114452100Y-174790400D01*
X115810330Y-174790400D01*
X115810330Y-175094600D01*
X114452100Y-175094600D01*
X114452100Y-177141439D01*
X114685294Y-177252488D01*
X114737457Y-177245699D01*
X115260414Y-176967645D01*
X115637157Y-176510630D01*
X115810330Y-175944230D01*
X115810330Y-179299100D01*
X114147900Y-179299100D01*
X114147900Y-177141439D01*
X114147900Y-175094600D01*
X114127900Y-175094600D01*
X114127900Y-174790400D01*
X114147900Y-174790400D01*
X114147900Y-172743561D01*
X113914706Y-172632512D01*
X113862543Y-172639301D01*
X113339586Y-172917355D01*
X112962843Y-173374370D01*
X112908401Y-173552432D01*
X112648359Y-173163253D01*
X112240777Y-172890914D01*
X111760000Y-172795282D01*
X111279223Y-172890914D01*
X110871641Y-173163253D01*
X110611598Y-173552432D01*
X110557157Y-173374370D01*
X110180414Y-172917355D01*
X109657457Y-172639301D01*
X109605294Y-172632512D01*
X109372100Y-172743561D01*
X109372100Y-174790400D01*
X109392100Y-174790400D01*
X109392100Y-175094600D01*
X109372100Y-175094600D01*
X109372100Y-177141439D01*
X109605294Y-177252488D01*
X109657457Y-177245699D01*
X110180414Y-176967645D01*
X110557157Y-176510630D01*
X110611598Y-176332567D01*
X110871641Y-176721747D01*
X111279223Y-176994086D01*
X111760000Y-177089718D01*
X112240777Y-176994086D01*
X112648359Y-176721747D01*
X112908401Y-176332567D01*
X112962843Y-176510630D01*
X113339586Y-176967645D01*
X113862543Y-177245699D01*
X113914706Y-177252488D01*
X114147900Y-177141439D01*
X114147900Y-179299100D01*
X109067900Y-179299100D01*
X109067900Y-177141439D01*
X109067900Y-175094600D01*
X109047900Y-175094600D01*
X109047900Y-174790400D01*
X109067900Y-174790400D01*
X109067900Y-172743561D01*
X108834706Y-172632512D01*
X108782543Y-172639301D01*
X108259586Y-172917355D01*
X107882843Y-173374370D01*
X107828401Y-173552432D01*
X107568359Y-173163253D01*
X107160777Y-172890914D01*
X106680000Y-172795282D01*
X106199223Y-172890914D01*
X105791641Y-173163253D01*
X105531598Y-173552432D01*
X105477157Y-173374370D01*
X105100414Y-172917355D01*
X104577457Y-172639301D01*
X104525294Y-172632512D01*
X104292100Y-172743561D01*
X104292100Y-174790400D01*
X104312100Y-174790400D01*
X104312100Y-175094600D01*
X104292100Y-175094600D01*
X104292100Y-177141439D01*
X104525294Y-177252488D01*
X104577457Y-177245699D01*
X105100414Y-176967645D01*
X105477157Y-176510630D01*
X105531598Y-176332567D01*
X105791641Y-176721747D01*
X106199223Y-176994086D01*
X106680000Y-177089718D01*
X107160777Y-176994086D01*
X107568359Y-176721747D01*
X107828401Y-176332567D01*
X107882843Y-176510630D01*
X108259586Y-176967645D01*
X108782543Y-177245699D01*
X108834706Y-177252488D01*
X109067900Y-177141439D01*
X109067900Y-179299100D01*
X103987900Y-179299100D01*
X103987900Y-177141439D01*
X103987900Y-175094600D01*
X103967900Y-175094600D01*
X103967900Y-174790400D01*
X103987900Y-174790400D01*
X103987900Y-172743561D01*
X103754706Y-172632512D01*
X103702543Y-172639301D01*
X103179586Y-172917355D01*
X102802843Y-173374370D01*
X102748401Y-173552432D01*
X102488359Y-173163253D01*
X102080777Y-172890914D01*
X101600000Y-172795282D01*
X101119223Y-172890914D01*
X100711641Y-173163253D01*
X100451598Y-173552432D01*
X100397157Y-173374370D01*
X100020414Y-172917355D01*
X99497457Y-172639301D01*
X99445294Y-172632512D01*
X99212100Y-172743561D01*
X99212100Y-174790400D01*
X99232100Y-174790400D01*
X99232100Y-175094600D01*
X99212100Y-175094600D01*
X99212100Y-177141439D01*
X99445294Y-177252488D01*
X99497457Y-177245699D01*
X100020414Y-176967645D01*
X100397157Y-176510630D01*
X100451598Y-176332567D01*
X100711641Y-176721747D01*
X101119223Y-176994086D01*
X101600000Y-177089718D01*
X102080777Y-176994086D01*
X102488359Y-176721747D01*
X102748401Y-176332567D01*
X102802843Y-176510630D01*
X103179586Y-176967645D01*
X103702543Y-177245699D01*
X103754706Y-177252488D01*
X103987900Y-177141439D01*
X103987900Y-179299100D01*
X98907900Y-179299100D01*
X98907900Y-177141439D01*
X98907900Y-175094600D01*
X98887900Y-175094600D01*
X98887900Y-174790400D01*
X98907900Y-174790400D01*
X98907900Y-172743561D01*
X98674706Y-172632512D01*
X98622543Y-172639301D01*
X98099586Y-172917355D01*
X97722843Y-173374370D01*
X97668401Y-173552432D01*
X97408359Y-173163253D01*
X97000777Y-172890914D01*
X96520000Y-172795282D01*
X96039223Y-172890914D01*
X95631641Y-173163253D01*
X95359302Y-173570835D01*
X95263670Y-174051612D01*
X95263670Y-175833388D01*
X95359302Y-176314165D01*
X95631641Y-176721747D01*
X96039223Y-176994086D01*
X96520000Y-177089718D01*
X97000777Y-176994086D01*
X97408359Y-176721747D01*
X97668401Y-176332567D01*
X97722843Y-176510630D01*
X98099586Y-176967645D01*
X98622543Y-177245699D01*
X98674706Y-177252488D01*
X98907900Y-177141439D01*
X98907900Y-179299100D01*
X95236330Y-179299100D01*
X95236330Y-175833388D01*
X95236330Y-174051612D01*
X95140698Y-173570835D01*
X94868359Y-173163253D01*
X94460777Y-172890914D01*
X93980000Y-172795282D01*
X93499223Y-172890914D01*
X93091641Y-173163253D01*
X92819302Y-173570835D01*
X92723670Y-174051612D01*
X92723670Y-175833388D01*
X92819302Y-176314165D01*
X93091641Y-176721747D01*
X93499223Y-176994086D01*
X93980000Y-177089718D01*
X94460777Y-176994086D01*
X94868359Y-176721747D01*
X95140698Y-176314165D01*
X95236330Y-175833388D01*
X95236330Y-179299100D01*
X92696330Y-179299100D01*
X92696330Y-175833388D01*
X92696330Y-174051612D01*
X92600698Y-173570835D01*
X92328359Y-173163253D01*
X91920777Y-172890914D01*
X91440000Y-172795282D01*
X90959223Y-172890914D01*
X90551641Y-173163253D01*
X90279302Y-173570835D01*
X90183670Y-174051612D01*
X90183670Y-175833388D01*
X90279302Y-176314165D01*
X90551641Y-176721747D01*
X90959223Y-176994086D01*
X91440000Y-177089718D01*
X91920777Y-176994086D01*
X92328359Y-176721747D01*
X92600698Y-176314165D01*
X92696330Y-175833388D01*
X92696330Y-179299100D01*
X90156330Y-179299100D01*
X90156330Y-175833388D01*
X90156330Y-174051612D01*
X90060698Y-173570835D01*
X89788359Y-173163253D01*
X89380777Y-172890914D01*
X88900000Y-172795282D01*
X88419223Y-172890914D01*
X88011641Y-173163253D01*
X87739302Y-173570835D01*
X87643670Y-174051612D01*
X87643670Y-175833388D01*
X87739302Y-176314165D01*
X88011641Y-176721747D01*
X88419223Y-176994086D01*
X88900000Y-177089718D01*
X89380777Y-176994086D01*
X89788359Y-176721747D01*
X90060698Y-176314165D01*
X90156330Y-175833388D01*
X90156330Y-179299100D01*
X87616330Y-179299100D01*
X87616330Y-175833388D01*
X87616330Y-174051612D01*
X87520698Y-173570835D01*
X87248359Y-173163253D01*
X86840777Y-172890914D01*
X86360000Y-172795282D01*
X85879223Y-172890914D01*
X85471641Y-173163253D01*
X85199302Y-173570835D01*
X85103670Y-174051612D01*
X85103670Y-175833388D01*
X85199302Y-176314165D01*
X85471641Y-176721747D01*
X85879223Y-176994086D01*
X86360000Y-177089718D01*
X86840777Y-176994086D01*
X87248359Y-176721747D01*
X87520698Y-176314165D01*
X87616330Y-175833388D01*
X87616330Y-179299100D01*
X85076330Y-179299100D01*
X85076330Y-175833388D01*
X85076330Y-174051612D01*
X84980698Y-173570835D01*
X84708359Y-173163253D01*
X84300777Y-172890914D01*
X83820000Y-172795282D01*
X83339223Y-172890914D01*
X82931641Y-173163253D01*
X82659302Y-173570835D01*
X82563670Y-174051612D01*
X82563670Y-175833388D01*
X82659302Y-176314165D01*
X82931641Y-176721747D01*
X83339223Y-176994086D01*
X83820000Y-177089718D01*
X84300777Y-176994086D01*
X84708359Y-176721747D01*
X84980698Y-176314165D01*
X85076330Y-175833388D01*
X85076330Y-179299100D01*
X82536330Y-179299100D01*
X82536330Y-175833388D01*
X82536330Y-174051612D01*
X82440698Y-173570835D01*
X82168359Y-173163253D01*
X81760777Y-172890914D01*
X81280000Y-172795282D01*
X80799223Y-172890914D01*
X80391641Y-173163253D01*
X80119302Y-173570835D01*
X80023670Y-174051612D01*
X80023670Y-175833388D01*
X80119302Y-176314165D01*
X80391641Y-176721747D01*
X80799223Y-176994086D01*
X81280000Y-177089718D01*
X81760777Y-176994086D01*
X82168359Y-176721747D01*
X82440698Y-176314165D01*
X82536330Y-175833388D01*
X82536330Y-179299100D01*
X79996330Y-179299100D01*
X79996330Y-175833388D01*
X79996330Y-174051612D01*
X79900698Y-173570835D01*
X79628359Y-173163253D01*
X79220777Y-172890914D01*
X78740000Y-172795282D01*
X78259223Y-172890914D01*
X77851641Y-173163253D01*
X77579302Y-173570835D01*
X77483670Y-174051612D01*
X77483670Y-175833388D01*
X77579302Y-176314165D01*
X77851641Y-176721747D01*
X78259223Y-176994086D01*
X78740000Y-177089718D01*
X79220777Y-176994086D01*
X79628359Y-176721747D01*
X79900698Y-176314165D01*
X79996330Y-175833388D01*
X79996330Y-179299100D01*
X77456330Y-179299100D01*
X77456330Y-175833388D01*
X77456330Y-174051612D01*
X77360698Y-173570835D01*
X77088359Y-173163253D01*
X76680777Y-172890914D01*
X76200000Y-172795282D01*
X75719223Y-172890914D01*
X75311641Y-173163253D01*
X75039302Y-173570835D01*
X74943670Y-174051612D01*
X74943670Y-175833388D01*
X75039302Y-176314165D01*
X75311641Y-176721747D01*
X75719223Y-176994086D01*
X76200000Y-177089718D01*
X76680777Y-176994086D01*
X77088359Y-176721747D01*
X77360698Y-176314165D01*
X77456330Y-175833388D01*
X77456330Y-179299100D01*
X73508039Y-179299100D01*
X73508039Y-173831489D01*
X73386442Y-173537202D01*
X73161482Y-173311849D01*
X72867408Y-173189739D01*
X72548989Y-173189461D01*
X72254702Y-173311058D01*
X72029349Y-173536018D01*
X71907239Y-173830092D01*
X71906961Y-174148511D01*
X72028558Y-174442798D01*
X72253518Y-174668151D01*
X72547592Y-174790261D01*
X72866011Y-174790539D01*
X73160298Y-174668942D01*
X73385651Y-174443982D01*
X73507761Y-174149908D01*
X73508039Y-173831489D01*
X73508039Y-179299100D01*
X70968039Y-179299100D01*
X70968039Y-173831489D01*
X70846442Y-173537202D01*
X70621482Y-173311849D01*
X70327408Y-173189739D01*
X70008989Y-173189461D01*
X69714702Y-173311058D01*
X69489349Y-173536018D01*
X69367239Y-173830092D01*
X69366961Y-174148511D01*
X69488558Y-174442798D01*
X69713518Y-174668151D01*
X70007592Y-174790261D01*
X70326011Y-174790539D01*
X70620298Y-174668942D01*
X70845651Y-174443982D01*
X70967761Y-174149908D01*
X70968039Y-173831489D01*
X70968039Y-179299100D01*
X68364400Y-179299100D01*
X68364400Y-172186900D01*
X116103100Y-172186900D01*
X116103100Y-179299100D01*
G36*
X104355600Y-88798100D02*
X99023894Y-88798100D01*
X99103151Y-88718982D01*
X99225261Y-88424908D01*
X99225539Y-88106489D01*
X99103942Y-87812202D01*
X98878982Y-87586849D01*
X98584908Y-87464739D01*
X98266489Y-87464461D01*
X97972202Y-87586058D01*
X97746849Y-87811018D01*
X97624739Y-88105092D01*
X97624461Y-88423511D01*
X97746058Y-88717798D01*
X97826219Y-88798100D01*
X96050539Y-88798100D01*
X96050539Y-83661489D01*
X95928942Y-83367202D01*
X95703982Y-83141849D01*
X95409908Y-83019739D01*
X95091489Y-83019461D01*
X94797202Y-83141058D01*
X94571849Y-83366018D01*
X94449739Y-83660092D01*
X94449461Y-83978511D01*
X94571058Y-84272798D01*
X94796018Y-84498151D01*
X95090092Y-84620261D01*
X95408511Y-84620539D01*
X95702798Y-84498942D01*
X95928151Y-84273982D01*
X96050261Y-83979908D01*
X96050539Y-83661489D01*
X96050539Y-88798100D01*
X91605400Y-88798100D01*
X91605400Y-84935192D01*
X91892798Y-84816442D01*
X92118151Y-84591482D01*
X92240261Y-84297408D01*
X92240539Y-83978989D01*
X92118942Y-83684702D01*
X91893982Y-83459349D01*
X91599908Y-83337239D01*
X91281489Y-83336961D01*
X90987202Y-83458558D01*
X90761849Y-83683518D01*
X90639739Y-83977592D01*
X90639461Y-84296011D01*
X90660902Y-84347904D01*
X90639600Y-84455000D01*
X90639600Y-88798100D01*
X88797805Y-88798100D01*
X88797805Y-87470268D01*
X88797805Y-82470268D01*
X88761186Y-81890639D01*
X88609821Y-81525212D01*
X88368622Y-81441480D01*
X88153520Y-81656582D01*
X88153520Y-81226378D01*
X88069788Y-80985179D01*
X87520268Y-80797195D01*
X86940639Y-80833814D01*
X86575212Y-80985179D01*
X86491480Y-81226378D01*
X87322500Y-82057398D01*
X88153520Y-81226378D01*
X88153520Y-81656582D01*
X87537602Y-82272500D01*
X88368622Y-83103520D01*
X88609821Y-83019788D01*
X88797805Y-82470268D01*
X88797805Y-87470268D01*
X88761186Y-86890639D01*
X88609821Y-86525212D01*
X88368622Y-86441480D01*
X88153520Y-86656582D01*
X88153520Y-86226378D01*
X88153520Y-83318622D01*
X87322500Y-82487602D01*
X87107398Y-82702704D01*
X87107398Y-82272500D01*
X86276378Y-81441480D01*
X86035179Y-81525212D01*
X85847195Y-82074732D01*
X85883814Y-82654361D01*
X86035179Y-83019788D01*
X86276378Y-83103520D01*
X87107398Y-82272500D01*
X87107398Y-82702704D01*
X86491480Y-83318622D01*
X86575212Y-83559821D01*
X87124732Y-83747805D01*
X87704361Y-83711186D01*
X88069788Y-83559821D01*
X88153520Y-83318622D01*
X88153520Y-86226378D01*
X88069788Y-85985179D01*
X87520268Y-85797195D01*
X86940639Y-85833814D01*
X86575212Y-85985179D01*
X86491480Y-86226378D01*
X87322500Y-87057398D01*
X88153520Y-86226378D01*
X88153520Y-86656582D01*
X87537602Y-87272500D01*
X88368622Y-88103520D01*
X88609821Y-88019788D01*
X88797805Y-87470268D01*
X88797805Y-88798100D01*
X88153520Y-88798100D01*
X88153520Y-88318622D01*
X87322500Y-87487602D01*
X87107398Y-87702704D01*
X87107398Y-87272500D01*
X86276378Y-86441480D01*
X86035179Y-86525212D01*
X85847195Y-87074732D01*
X85883814Y-87654361D01*
X86035179Y-88019788D01*
X86276378Y-88103520D01*
X87107398Y-87272500D01*
X87107398Y-87702704D01*
X86491480Y-88318622D01*
X86575212Y-88559821D01*
X87124732Y-88747805D01*
X87704361Y-88711186D01*
X88069788Y-88559821D01*
X88153520Y-88318622D01*
X88153520Y-88798100D01*
X85826900Y-88798100D01*
X85826900Y-80415900D01*
X104355600Y-80415900D01*
X104355600Y-88798100D01*
X104355600Y-88798100D01*
G37*
X104355600Y-88798100D02*
X99023894Y-88798100D01*
X99103151Y-88718982D01*
X99225261Y-88424908D01*
X99225539Y-88106489D01*
X99103942Y-87812202D01*
X98878982Y-87586849D01*
X98584908Y-87464739D01*
X98266489Y-87464461D01*
X97972202Y-87586058D01*
X97746849Y-87811018D01*
X97624739Y-88105092D01*
X97624461Y-88423511D01*
X97746058Y-88717798D01*
X97826219Y-88798100D01*
X96050539Y-88798100D01*
X96050539Y-83661489D01*
X95928942Y-83367202D01*
X95703982Y-83141849D01*
X95409908Y-83019739D01*
X95091489Y-83019461D01*
X94797202Y-83141058D01*
X94571849Y-83366018D01*
X94449739Y-83660092D01*
X94449461Y-83978511D01*
X94571058Y-84272798D01*
X94796018Y-84498151D01*
X95090092Y-84620261D01*
X95408511Y-84620539D01*
X95702798Y-84498942D01*
X95928151Y-84273982D01*
X96050261Y-83979908D01*
X96050539Y-83661489D01*
X96050539Y-88798100D01*
X91605400Y-88798100D01*
X91605400Y-84935192D01*
X91892798Y-84816442D01*
X92118151Y-84591482D01*
X92240261Y-84297408D01*
X92240539Y-83978989D01*
X92118942Y-83684702D01*
X91893982Y-83459349D01*
X91599908Y-83337239D01*
X91281489Y-83336961D01*
X90987202Y-83458558D01*
X90761849Y-83683518D01*
X90639739Y-83977592D01*
X90639461Y-84296011D01*
X90660902Y-84347904D01*
X90639600Y-84455000D01*
X90639600Y-88798100D01*
X88797805Y-88798100D01*
X88797805Y-87470268D01*
X88797805Y-82470268D01*
X88761186Y-81890639D01*
X88609821Y-81525212D01*
X88368622Y-81441480D01*
X88153520Y-81656582D01*
X88153520Y-81226378D01*
X88069788Y-80985179D01*
X87520268Y-80797195D01*
X86940639Y-80833814D01*
X86575212Y-80985179D01*
X86491480Y-81226378D01*
X87322500Y-82057398D01*
X88153520Y-81226378D01*
X88153520Y-81656582D01*
X87537602Y-82272500D01*
X88368622Y-83103520D01*
X88609821Y-83019788D01*
X88797805Y-82470268D01*
X88797805Y-87470268D01*
X88761186Y-86890639D01*
X88609821Y-86525212D01*
X88368622Y-86441480D01*
X88153520Y-86656582D01*
X88153520Y-86226378D01*
X88153520Y-83318622D01*
X87322500Y-82487602D01*
X87107398Y-82702704D01*
X87107398Y-82272500D01*
X86276378Y-81441480D01*
X86035179Y-81525212D01*
X85847195Y-82074732D01*
X85883814Y-82654361D01*
X86035179Y-83019788D01*
X86276378Y-83103520D01*
X87107398Y-82272500D01*
X87107398Y-82702704D01*
X86491480Y-83318622D01*
X86575212Y-83559821D01*
X87124732Y-83747805D01*
X87704361Y-83711186D01*
X88069788Y-83559821D01*
X88153520Y-83318622D01*
X88153520Y-86226378D01*
X88069788Y-85985179D01*
X87520268Y-85797195D01*
X86940639Y-85833814D01*
X86575212Y-85985179D01*
X86491480Y-86226378D01*
X87322500Y-87057398D01*
X88153520Y-86226378D01*
X88153520Y-86656582D01*
X87537602Y-87272500D01*
X88368622Y-88103520D01*
X88609821Y-88019788D01*
X88797805Y-87470268D01*
X88797805Y-88798100D01*
X88153520Y-88798100D01*
X88153520Y-88318622D01*
X87322500Y-87487602D01*
X87107398Y-87702704D01*
X87107398Y-87272500D01*
X86276378Y-86441480D01*
X86035179Y-86525212D01*
X85847195Y-87074732D01*
X85883814Y-87654361D01*
X86035179Y-88019788D01*
X86276378Y-88103520D01*
X87107398Y-87272500D01*
X87107398Y-87702704D01*
X86491480Y-88318622D01*
X86575212Y-88559821D01*
X87124732Y-88747805D01*
X87704361Y-88711186D01*
X88069788Y-88559821D01*
X88153520Y-88318622D01*
X88153520Y-88798100D01*
X85826900Y-88798100D01*
X85826900Y-80415900D01*
X104355600Y-80415900D01*
X104355600Y-88798100D01*
M02*
